<svg xmlns="http://www.w3.org/2000/svg" width="512" height="512" viewBox="0 0 512 512" version="1.1">
	<path d="M -0 46.006 L 0 61.004 256.250 60.752 L 512.500 60.500 512.775 45.500 L 513.049 30.500 256.525 30.754 L -0 31.008 -0 46.006 M 0.402 46 C 0.402 54.525, 0.556 58.013, 0.743 53.750 C 0.931 49.487, 0.931 42.513, 0.743 38.250 C 0.556 33.987, 0.402 37.475, 0.402 46 M 91 286 L 91 481 166 481 L 241 481 241 286 L 241 91 166 91 L 91 91 91 286 M 271 226 L 271 361 346 361 L 421 361 421 226 L 421 91 346 91 L 271 91 271 226" stroke="none" fill="black" fill-rule="evenodd"/>
</svg>