<svg width="512" height="512" viewBox="0 0 512 512" fill="none" xmlns="http://www.w3.org/2000/svg">
    <path
        d="M41.2977 24.0244C20.6975 31.0477 5.04783 49.2371 1.06329 70.7885C0.192595 75.4975 -0.158908 149.619 0.0664799 281.051L0.415298 484.04L4.79695 487.955C9.79976 492.425 17.3194 493.237 22.18 489.832C23.7805 488.712 42.4019 467.592 63.5615 442.9L102.033 398.005L283.32 397.645L464.607 397.287L472.288 394.185C483.771 389.546 494.886 380.715 501.268 371.157C512.249 354.712 511.506 365.702 511.924 213.624C512.168 124.993 511.82 75.6826 510.917 70.7938C506.815 48.6078 490.527 30.1555 469.181 23.5119C461.314 21.0622 453.488 20.971 255.535 21.0045L50.0543 21.0394L41.2977 24.0244V24.0244ZM53.9772 50.4042V50.4042C60.6449 48.8104 451.555 48.9848 458.57 50.5867C466.829 52.4703 474.139 57.8273 478.443 65.1484L482.048 71.2795L482.436 206.11C482.72 305.105 482.41 342.44 481.27 346.586C479.476 353.111 472.264 362.113 466.15 365.459C462.225 367.607 448.706 367.82 275.919 368.443C92.2851 369.106 89.8743 369.149 86.9227 371.797C85.2793 373.273 71.7828 388.639 56.9314 405.945L29.9304 437.408L29.5427 259.04C29.328 160.937 29.5078 78.1659 29.9398 75.1057C31.5014 64.0349 41.9712 53.2766 53.9772 50.4042ZM88.5743 157.985C83.2642 159.516 78.9107 165.991 78.904 172.369C78.9 175.695 80.0846 178.049 83.4601 181.425L88.0215 185.986H423.957L428.519 181.425C431.894 178.049 433.079 175.695 433.075 172.369C433.068 165.594 428.772 159.574 422.752 157.902C416.122 156.062 94.9696 156.141 88.5743 157.985V157.985ZM87.3708 251.005C78.6277 254.807 76.3147 266.229 82.8134 273.504L86.7269 277.885L165.424 278.253L244.12 278.619L248.713 274.027C256.504 266.235 254.45 255.089 244.453 250.911C237.878 248.164 93.7045 248.249 87.3708 251.005"
        fill="black" />
</svg>