<svg width="512" height="512" viewBox="0 0 512 512" fill="none" xmlns="http://www.w3.org/2000/svg">
    <path
        d="M126.15 61.9581C90.4448 65.6269 55.5129 83.9918 33.3664 110.737C17.6734 129.688 8.66175 147.773 2.51181 172.654C0.411226 181.15 0.387253 182.542 0.0616269 316.328C-0.119165 390.63 0.111569 451.423 0.574038 451.423C1.03551 451.423 32.851 436.702 71.2738 418.71L141.133 385.998L264.99 385.445C388.132 384.895 388.904 384.879 398.536 382.688C446.453 371.786 483.637 340.664 501.277 296.697C505.333 286.585 509.974 268.584 510.441 261.141C510.58 258.944 510.925 300.746 511.207 354.035L511.722 450.923L511.963 319.266C512.097 246.854 511.852 187.827 511.418 188.094C510.986 188.362 510.096 184.681 509.442 179.913C507.728 167.418 503.85 154.867 497.769 142.138C475.821 96.1968 434.22 66.9873 383.498 61.9072C371.108 60.6666 138.273 60.7126 126.15 61.9581V61.9581ZM124.237 93.9274V93.9274C127.486 93.446 188.129 93.1183 258.997 93.1972L387.849 93.3421L397.615 96.034C408.825 99.1244 423.183 105.647 432.421 111.844C440.677 117.383 455.667 132.511 461.094 140.78C469.364 153.384 474.55 166.019 477.905 181.733C479.451 188.975 479.714 195.066 479.692 223.185C479.665 257.247 479.272 261.763 475.086 276.124C465.448 309.188 438.816 336.629 405.255 348.073C388.988 353.621 391.285 353.535 259.069 353.535H137.043L84.3508 378.007C55.3691 391.467 31.4556 402.479 31.2088 402.479C30.2979 402.479 30.8203 204.861 31.7602 193.719C33.4163 174.103 39.3095 156.909 49.9044 140.78C55.3391 132.505 70.3299 117.379 78.5814 111.844C91.6644 103.067 109.333 96.1329 124.237 93.9274ZM0.279377 320.074C0.279377 392.59 0.39824 422.108 0.544073 385.67C0.688906 349.232 0.688906 289.9 0.544073 253.822C0.39824 217.743 0.279377 247.557 0.279377 320.074ZM145.547 199.824C128.115 202.387 116.993 220.563 122.103 238.142C124.303 245.706 132.638 254.446 140.062 256.97C160.051 263.767 179.88 249.97 180.003 229.178C180.114 210.527 164.312 197.065 145.547 199.824ZM250.427 199.775C243.817 200.818 238.423 203.91 233.323 209.583C222.187 221.967 223.374 240.309 236.032 251.45C250.681 264.346 273.452 259.62 282.165 241.877C286.039 233.987 286.073 223.567 282.248 216.153C276.047 204.126 263.567 197.704 250.427 199.775V199.775ZM355.667 199.819C341.64 201.611 330.968 214.297 330.968 229.178C330.968 245.281 342.495 257.521 358.549 258.467C368.35 259.046 374.474 256.706 381.387 249.744C392.901 238.146 393.446 221.691 382.708 209.747C375.266 201.47 366.87 198.387 355.667 199.819"
        fill="black" />
</svg>