<svg width="512" height="512" viewBox="0 0 512 512" fill="none" xmlns="http://www.w3.org/2000/svg">
    <path
        d="M240 1.485C230.336 3.413 218.4 8.346 209.975 13.894C203.321 18.276 48.072 157.95 26.639 178.839C17.614 187.634 12.132 195.234 7.49699 205.378C0.121989 221.518 0.578989 213.677 0.238989 330C-0.0970111 445.07 -0.255011 441.625 6.07999 458.051C13.03 476.074 29.841 494.424 47.5 503.264C50.25 504.641 56.325 507.057 61 508.633L69.5 511.5H441.5L449.432 509.203C472.473 502.531 491.25 486.655 502.303 464.5C506.497 456.094 509.773 445.779 510.668 438.164C511.148 434.088 511.533 433.107 512.092 434.538C512.514 435.617 512.891 389.737 512.93 332.583C512.968 275.429 512.69 228.977 512.31 229.356C511.931 229.736 510.852 226.246 509.911 221.601C507.722 210.786 500.954 196.496 493.917 187.827C486.651 178.877 311.677 20.143 302.209 13.912C284.338 2.151 260.512 -2.608 240 1.485ZM244.166 54.991V54.991C247.185 53.905 252.197 53.056 255.712 53.036C268.698 52.961 264.205 49.392 357.045 133.518C403.495 175.609 443.525 212.197 446 214.826C448.475 217.454 452.075 222.731 454 226.552L457.5 233.5V437.5L454.906 443C451.621 449.963 445.421 456.155 438.164 459.719L432.5 462.5H77.458L70.771 459.208C63.14 455.452 58.019 450.157 54.125 442L51.5 436.5L51.217 339C50.924 238.347 51.145 231.557 54.948 224.101C56.239 221.57 85.185 194.659 144.789 140.572C193.154 96.684 234.099 59.906 235.779 58.843C237.458 57.78 241.232 56.047 244.166 54.991ZM0.481989 333.5C0.481989 390.7 0.601989 413.953 0.749989 385.174C0.896989 356.394 0.896989 309.594 0.749989 281.174C0.601989 252.753 0.481989 276.3 0.481989 333.5Z"
        fill="black" />
</svg>