<svg width="512" height="512" viewBox="0 0 512 512" fill="none" xmlns="http://www.w3.org/2000/svg">
    <path fill-rule="evenodd" clip-rule="evenodd"
        d="M245.729 118.015C243.268 119.131 187.427 173.984 121.639 239.913C-6.86391 368.692 -1.90659 363.138 0.996499 375.065C4.5918 389.84 21.5762 399.279 33.6153 393.195C35.407 392.29 86.044 342.451 146.139 282.441L255.406 173.333L366.184 283.982C463.249 380.934 477.641 394.754 482.44 395.627C490.248 397.046 496.521 395.26 502.656 389.875C511.489 382.12 514.432 370.888 509.878 362.321C506.533 356.028 268.651 119.193 263.907 117.432C258.248 115.33 251.155 115.558 245.729 118.015Z"
        fill="black" />
</svg>