<svg width="512" height="512" viewBox="0 0 512 512" fill="none" xmlns="http://www.w3.org/2000/svg">
    <path fill-rule="evenodd" clip-rule="evenodd"
        d="M88.7817 1.16333C84.8187 2.81239 79.0079 11.4582 79 15.7185C78.9891 20.5843 83.5576 27.6186 88.3296 30.086C92.0423 32.0057 99.8057 32.4594 128.958 32.4594H164.995L170.105 37.0248L175.215 41.5902V470.796L170.105 475.361L164.995 479.926L128.644 479.933C95.8395 479.937 91.8232 480.225 87.4737 482.876C81.8382 486.313 78.2303 493.884 79.6102 499.379C80.1437 501.506 82.2747 505.216 84.3462 507.624L88.1121 512H130.099C171.366 512 172.217 511.934 179.788 508.209C189.078 503.636 198.064 494.956 202.922 485.858L206.506 479.144V33.2417L202.922 26.5281C198.064 17.4302 189.078 8.74992 179.788 4.17669C172.314 0.498382 170.898 0.376347 132.189 0.0446585C110.143 -0.144654 90.7218 0.356014 88.7817 1.16333V1.16333ZM337.148 1.98942C326.842 5.27502 315.529 14.6875 309.923 24.6366L305.074 33.2417V479.144L308.658 485.858C313.516 494.956 322.502 503.636 331.792 508.209C339.363 511.934 340.214 512 381.481 512H423.468L427.234 507.624C429.306 505.216 431.437 501.506 431.97 499.379C433.35 493.884 429.742 486.313 424.107 482.876C419.757 480.225 415.741 479.937 382.936 479.933L346.585 479.926L341.475 475.361L336.365 470.796V41.5902L341.475 37.0248L346.585 32.4594L382.936 32.4532C415.741 32.4485 419.757 32.1606 424.107 29.5102C429.742 26.0728 433.35 18.5019 431.97 13.0071C431.437 10.8793 429.307 7.16971 427.237 4.76183L423.474 0.385738L383.831 0.0649987C353.003 -0.183768 342.622 0.244929 337.148 1.98942"
        fill="black" />
</svg>