<svg width="512" height="512" viewBox="0 0 512 512" fill="none" xmlns="http://www.w3.org/2000/svg">
    <path
        d="M65.5 1.05999C59.506 2.06999 49.02 5.49699 43.5 8.24899C29.592 15.184 15.461 29.375 8.646 43.25C-0.288996 61.442 0.500004 40.839 0.500004 256C0.500004 471.192 -0.291996 450.552 8.664 468.787C18.521 488.856 37.997 504.123 61.5 510.206C68.857 512.11 443.143 512.11 450.5 510.206C466.968 505.944 479.599 498.458 491.291 486.029C500.102 476.662 507.005 463.82 509.58 452C510.479 447.875 511.616 443.719 512.107 442.764C513.393 440.263 513.286 67.705 512 68.5C511.45 68.84 511 68.144 511 66.953C511 62.325 507.696 52.09 503.336 43.213C499.935 36.29 496.87 31.901 491.291 25.971C479.915 13.879 469.903 7.80399 451.5 1.82899C448.285 0.78499 410.518 0.49899 259 0.37399C155.325 0.28799 68.25 0.59699 65.5 1.05999ZM66.634 23.154C69.374 22.63 109.401 22.175 158.25 22.112L245 22V490H157.71C61.598 490 65.029 490.203 52 483.739C43.186 479.367 32.575 468.635 28.237 459.706C21.636 446.118 22.031 459.033 22.015 256.299C22.004 124.845 22.319 70.581 23.113 66.799C24.61 59.67 29.955 48.559 34.681 42.754C42.117 33.618 55.796 25.228 66.634 23.154ZM0.490004 256C0.490004 359.125 0.607004 401.313 0.750004 349.75C0.893004 298.188 0.893004 213.813 0.750004 162.25C0.607004 110.688 0.490004 152.875 0.490004 256Z"
        fill="black" />
</svg>