<svg width="512" height="512" viewBox="0 0 512 512" fill="none" xmlns="http://www.w3.org/2000/svg">
    <path
        d="M65.258 1.10798C40.2 5.28398 16.005 24.605 6.14698 48.309C-0.424018 64.111 -0.0850183 51.978 0.233982 259.5L0.521982 447.5L2.82598 455.066C9.21298 476.044 24.275 493.961 43.5 503.45C61.288 512.23 40.79 511.412 251.5 511.753C378.526 511.959 440.691 511.719 445.33 511.006C476.56 506.208 504.04 480.49 509.983 450.5C510.637 447.2 511.584 443.719 512.086 442.764C513.212 440.625 513.339 67.672 512.214 68.368C511.782 68.635 510.867 65.894 510.181 62.277C504.461 32.123 477.166 6.12698 445.901 1.05398C437.947 -0.23702 73.014 -0.18502 65.258 1.10798V1.10798ZM67.5 24.017C69.7 23.578 110.537 23.17 158.25 23.11L245 23V489H158.21C62.795 489 66.203 489.2 53 482.811C39.563 476.309 27.209 460.232 24.097 445.201C22.549 437.721 22.549 74.279 24.097 66.799C28.353 46.241 46.691 28.165 67.5 24.017ZM268 256V22.938L356.75 23.219L445.5 23.5L452.015 26.041C470.217 33.138 484.229 49.053 487.903 66.799C489.451 74.279 489.451 437.721 487.903 445.201C484.229 462.947 470.217 478.862 452.015 485.959L445.5 488.5L356.75 488.781L268 489.062V256ZM0.489982 256C0.489982 359.125 0.606982 401.313 0.749982 349.75C0.892982 298.188 0.892982 213.813 0.749982 162.25C0.606982 110.688 0.489982 152.875 0.489982 256Z"
        fill="black" />
</svg>