<svg width="451" height="512" viewBox="0 0 451 512" fill="none" xmlns="http://www.w3.org/2000/svg">
    <path
        d="M211 1.43202C184.695 6.99202 163.805 25.569 154.885 51.333L152.058 59.5L93.779 60.01C41.132 60.471 35.069 60.691 31.043 62.289C16.918 67.894 6.13799 79.688 2.55199 93.46C0.278993 102.188 0.329996 136.787 2.623 141.619C5.61 147.912 9.09699 149.456 21.189 149.837L31.878 150.174L32.457 155.337C32.776 158.177 38.876 231.272 46.015 317.771C60.018 487.466 59.377 481.876 65.944 491.417C69.695 496.867 77.802 504.349 82.608 506.797C93.289 512.237 86.746 512 226.092 512C349.371 512 355.078 511.92 360.875 510.116C369.216 507.52 374.634 504.138 380.662 497.763C386.024 492.095 389.992 485.289 391.895 478.5C392.511 476.3 398.853 403.85 405.987 317.5C413.12 231.15 419.219 158.177 419.54 155.337L420.122 150.174L430.811 149.837C439.94 149.549 441.956 149.174 444.627 147.27C450.701 142.937 451.211 140.361 450.788 116.173C450.448 96.713 450.185 93.938 448.212 89C443.785 77.922 433.219 67.243 422.344 62.857L416.5 60.5L358.195 60L299.891 59.5L297.378 52C289.293 27.874 269.524 9.00102 245.5 2.47302C237.296 0.243017 219.204 -0.302983 211 1.43202ZM217.108 31.082V31.082C231.66 28.224 247.001 32.87 257.423 43.292C261.808 47.677 268 57.146 268 59.467C268 59.76 249.1 60 226 60C202.9 60 184 59.76 184 59.467C184 59.173 185.171 56.624 186.601 53.8C191.981 43.183 205.052 33.449 217.108 31.082ZM39.301 92.08L43.5 90.002L225.934 90.001C408.1 90 408.375 90.003 412.624 92.06C418.81 95.055 421 100.089 421 111.316V120H31V111.316C31 100.157 33.178 95.111 39.301 92.08ZM62.733 153.25L62.402 150H389.598L389.267 153.25C389.085 155.037 383.086 227.358 375.936 313.962C361.624 487.322 363.098 475.398 355.444 479.733L351.5 481.967H100.5L96.556 479.733C88.902 475.398 90.376 487.322 76.064 313.962C68.914 227.358 62.915 155.037 62.733 153.25ZM129.218 211.606C127.413 212.527 124.938 214.68 123.718 216.39L121.5 219.5L121.235 314.818C120.942 420.394 120.591 414.432 127.373 419.27C131.737 422.382 140.263 422.382 144.627 419.27C151.353 414.472 151 420.189 151 316C151 212.008 151.333 217.51 144.749 212.821C140.774 209.991 133.5 209.422 129.218 211.606ZM219.218 211.606V211.606C223.5 209.422 230.774 209.991 234.749 212.821C241.333 217.51 241 212.008 241 316C241 420.189 241.353 414.472 234.627 419.27C230.263 422.382 221.737 422.382 217.373 419.27C210.591 414.432 210.942 420.394 211.235 314.818L211.5 219.5L213.718 216.39C214.938 214.68 217.413 212.527 219.218 211.606ZM309.218 211.606C313.5 209.422 320.774 209.991 324.749 212.821C331.333 217.51 331 212.008 331 316C331 420.189 331.353 414.472 324.627 419.27C320.263 422.382 311.737 422.382 307.373 419.27C300.591 414.432 300.942 420.394 301.235 314.818L301.5 219.5L303.718 216.39C304.938 214.68 307.413 212.527 309.218 211.606Z"
        fill="black" />
</svg>