<svg xmlns="http://www.w3.org/2000/svg" viewBox="0 0 512 512"><path fill-rule="evenodd" d="M365.334 1.415c-21.84 4.163-41.461 14.485-56.961 29.968-13.737 13.721-22.977 30.04-28.644 50.586-1.725 6.255-2.078 10.413-2.081 24.531-.003 15.147.278 18.048 2.583 26.619 5.141 19.115 14.999 35.969 28.928 49.459 13.628 13.199 27.81 21.482 46.341 27.066 8.331 2.511 10.375 2.718 27.5 2.784 16.139.063 19.532-.211 26.587-2.143 38.781-10.62 66.974-38.795 77.659-77.608 1.975-7.176 2.242-10.441 2.18-26.677-.064-17.128-.271-19.167-2.782-27.5-5.779-19.179-15.18-34.843-28.901-48.158-14.091-13.673-29.126-22.214-47.537-27.005-12.073-3.142-33.628-4.065-44.872-1.922m5.787 31.644c-28.538 5.104-51.953 26.696-59.765 55.11-2.392 8.703-2.383 27.954.018 36.831 4.25 15.716 14.825 31.691 26.936 40.694 29.741 22.105 69.535 20.092 96.219-4.87 27.848-26.051 31.32-68.361 8.165-99.514-8.905-11.98-25.1-22.764-40.194-26.764-7.454-1.975-24.212-2.769-31.379-1.487M218 64.693c-15.669 1.672-33.259 6.926-49.5 14.786C153.738 86.624 141.644 95.356 129 108c-21.374 21.374-34.587 45.674-41.181 75.734-1.956 8.919-2.201 13.927-2.824 57.766-.552 38.859-1.006 49.714-2.384 57-3.75 19.822-13.292 41.966-25.299 58.708-3.197 4.457-11.312 13.541-18.033 20.188C23.842 392.66 21.5 397.021 21.5 410.5c0 13.655 5.073 23.582 15.741 30.805 9.818 6.646 10.307 6.695 67.277 6.695h51.154l1.728 6.215c.95 3.418 3.82 10.281 6.377 15.25 3.692 7.174 6.511 10.91 13.686 18.136 10.516 10.591 18.903 15.886 32.537 20.54 8.884 3.032 10.408 3.246 23.5 3.299 15.862.064 22.194-1.223 34.411-6.994 21.445-10.129 37.102-28.263 43.126-49.946l1.666-6 53.422-.5 53.421-.5 6.649-3.274c16.143-7.95 24.65-25.573 20.383-42.229-2.194-8.564-6.181-14.502-15.094-22.478-17.044-15.255-31.234-36.21-38.948-57.519-6.016-16.618-7.693-26.794-8.16-49.5-.538-26.174-.856-28.729-4.056-32.531-7.312-8.69-19.865-8.169-26.156 1.085l-2.342 3.446.471 26.5c.396 22.269.819 28.097 2.647 36.5 5.068 23.298 15.894 48.258 28.832 66.471 3.701 5.208 12.465 15.41 19.478 22.669 13.134 13.597 13.865 14.931 9.919 18.11-1.228.989-38.576 1.25-179.205 1.25-170.838 0-177.718-.07-179.309-1.829-.91-1.006-1.655-2.507-1.655-3.337 0-.829 5.513-7.095 12.25-13.924 6.738-6.829 15.272-16.69 18.966-21.913 11.323-16.014 22.662-40.02 27.157-57.497 4.476-17.403 4.808-21.65 5.625-72 .851-52.395.963-53.594 6.574-70.31 11.038-32.882 39.731-61.578 72.604-72.613 12.638-4.243 21.574-5.746 36.805-6.193 13.207-.387 14.8-.635 18.094-2.815C255.499 90.641 258 85.65 258 79.747c0-5.798-3.169-10.566-8.97-13.497-3.926-1.983-5.822-2.231-15.992-2.09-6.346.088-13.113.328-15.038.533m-25.882 389.54c8.825 17.484 30.065 28.187 49.532 24.961 8.592-1.424 19.492-6.776 25.249-12.398 4.711-4.601 10.494-12.867 11.575-16.546l.661-2.25h-90.164l3.147 6.233"/></svg>