<svg xmlns="http://www.w3.org/2000/svg" viewBox="0 0 512 512"><path fill-rule="evenodd" d="M251 .722c-3.695 1.388-7.381 4.906-9.095 8.679-1.657 3.65-1.863 6.896-1.883 29.617L240 64.537l-10.25 1.848c-20.314 3.663-42.405 12.922-59.441 24.914-11.336 7.98-28.066 24.729-36.158 36.201-11.117 15.761-19.735 35.54-24.316 55.806-1.878 8.307-2.153 13.923-2.855 58.194-.855 53.885-1.202 57.428-7.464 76.151-7.531 22.52-17.386 38.033-37.065 58.347C45.126 393.881 43.492 396.905 43.54 411c.028 8.332.377 10.213 2.841 15.297 3.573 7.375 10.9 14.716 18.322 18.358L70.5 447.5l53.597.29 53.598.291 1.716 6.175c.944 3.396 3.809 10.24 6.366 15.209 3.692 7.174 6.511 10.91 13.686 18.136 10.583 10.658 19.459 16.259 32.757 20.669 8.516 2.824 10.432 3.083 23.28 3.152 15.866.084 22.169-1.194 34.411-6.976 21.562-10.184 36.961-28.13 43.473-50.663l1.652-5.716 53.232-.284 53.232-.283 6.282-2.901c16.063-7.418 25.07-25.887 20.792-42.635-2.234-8.745-4.922-12.523-18.476-25.969-21.898-21.721-34.12-43.517-41.215-73.495-1.953-8.25-2.192-13.042-2.875-57.5-.749-48.728-1.104-53.589-5.032-69.056-7.25-28.54-24.911-56.824-47.333-75.801-20.804-17.608-43.101-28.3-70.06-33.596L272.5 64.37l-.5-27.435c-.464-25.435-.646-27.631-2.5-30.117-4.013-5.382-12.744-8.259-18.5-6.096m-6 95.908c-17.883 2.561-29.913 6.142-42.323 12.599-26.365 13.717-47.928 38.623-57.105 65.961-5.611 16.716-5.723 17.915-6.574 70.31-.927 57.087-1.686 63.293-10.709 87.5-9.704 26.036-24.801 48.886-44.751 67.736-8.829 8.341-9.971 10.657-6.709 13.609C78.516 415.872 92.394 416 256.138 416c185.657 0 179.676.135 181.13-4.091.76-2.209.498-2.539-12.867-16.223-6.545-6.703-14.928-16.462-18.629-21.686-12.968-18.311-23.769-43.225-28.832-66.5-1.993-9.159-2.238-14.08-2.917-58.5-.677-44.235-.933-49.407-2.914-58.81-10.492-49.813-50.641-86.958-100.609-93.081-8.536-1.046-20.03-1.262-25.5-.479m-31.104 357.12c7.461 14.67 21.535 24.125 38.462 25.838 16.794 1.7 34.448-7.123 44.197-22.088 1.792-2.75 3.555-6.012 3.919-7.25l.661-2.25h-90.164l2.925 5.75"/></svg>