<svg xmlns="http://www.w3.org/2000/svg" viewBox="0 0 512 512"><path fill-rule="evenodd" d="M111.239 86.335c-5.232 1.897-9.534 5.932-16.909 15.862-29.346 39.508-45.809 82.386-50.406 131.284-1.464 15.564-.697 44.55 1.574 59.519 5.396 35.559 18.096 69.843 36.86 99.5 7.564 11.954 18.305 26.076 22.403 29.454 13.587 11.2 34.239 1.339 34.239-16.349 0-7.352-.481-8.356-10.283-21.458-57.362-76.671-57.362-179.623 0-256.294C138.519 114.751 139 113.747 139 106.395c0-14.479-14.42-24.899-27.761-20.06m276.52.088c-8.998 3.211-13.904 9.43-14.556 18.45-.527 7.287.894 10.651 8.979 21.249 23.327 30.58 38.107 67.141 42.792 105.852.564 4.66 1.026 15.472 1.026 24.026s-.462 19.366-1.026 24.026c-4.685 38.712-19.035 74.285-42.531 105.437-8.42 11.164-9.77 14.344-9.233 21.76.95 13.142 13.892 22.194 26.861 18.787 6.161-1.618 14.335-10.352 25.898-27.671 20.351-30.481 33.767-64.443 40.229-101.839 1.959-11.336 2.246-16.519 2.246-40.5s-.287-29.164-2.246-40.5c-6.462-37.396-19.878-71.358-40.229-101.839-17.139-25.671-25.634-31.727-38.21-27.238m-49.874 82.899c-6.081 2.27-9.639 5.476-12.449 11.219-3.727 7.619-3.126 12.49 3.021 24.48C337.407 222.478 341 236.94 341 255.5c0 18.326-3.432 32.332-12.359 50.43-6.403 12.982-6.084 20.777 1.162 28.412 4.815 5.073 9.697 6.912 17.22 6.487 11.37-.643 16.33-5.728 24.586-25.208 17.743-41.862 16.031-87.291-4.848-128.665-5.563-11.025-6.769-12.719-10.817-15.206-5.469-3.359-12.89-4.357-18.059-2.428m-177.96 2.205c-2.517.787-6.23 3.039-8.252 5.003-7.131 6.924-17.352 32.174-21.241 52.47-2.721 14.199-2.557 39.931.348 54.524 3.715 18.664 13.015 42.325 19.81 50.401 9.96 11.837 29.764 8.444 35.857-6.143 2.746-6.574 2.032-11.45-3.277-22.358-9.015-18.525-11.147-26.533-11.887-44.66-.853-20.874 2.272-35.878 11.197-53.764 5.048-10.115 5.969-14.332 4.448-20.371-2.927-11.623-15.555-18.686-27.003-15.102m86.534 42.868c-12.241 2.974-23.691 12.012-28.717 22.668-8.039 17.044-4.882 35.932 8.191 49.004 6.451 6.451 13.932 10.306 23.38 12.047 12.914 2.379 26.918-2.211 36.754-12.047 16.815-16.815 16.815-43.319 0-60.134-10.631-10.631-25.507-14.964-39.608-11.538"/></svg>