<svg xmlns="http://www.w3.org/2000/svg" viewBox="0 0 512 512"><path fill-rule="evenodd" d="M269 92.572c-1.375.239-5.875.934-10 1.544-43.076 6.374-83.875 36.688-104.335 77.521l-3.577 7.138-8.794-3.065c-8.294-2.891-9.675-3.069-24.294-3.138-13.561-.063-16.438.22-23 2.263-31.556 9.826-55.183 38.145-57.664 69.117l-.605 7.548-7.291 7.217C.015 287.841-8.006 328.273 8.341 365.07c9.343 21.031 29.627 40.011 51.825 48.493 15.71 6.004 20.523 6.409 76.15 6.424 34.461.009 51.464-.334 52.831-1.066 3.065-1.64 4.838-6.664 3.603-10.208-1.964-5.633-2.752-5.711-57.968-5.73-53.983-.019-57.258-.268-69.747-5.313-10.172-4.109-17.11-8.782-25.516-17.189C23.243 364.206 16.3 346.243 17.302 323c.997-23.146 10.127-41.197 28.544-56.434l7.892-6.528.062-8.491c.126-17.031 6.406-31.917 18.618-44.129 12.135-12.135 27.124-18.495 43.86-18.613 13.728-.096 24.922 3.224 37.994 11.267 2.743 1.688 5.294 2.7 5.67 2.248.375-.451 2.165-4.87 3.977-9.82 15.081-41.199 50.12-71.677 93.223-81.089 11.703-2.555 33.609-3.008 45.924-.949 27.552 4.607 49.521 15.871 69.063 35.411 14.839 14.837 24.198 29.735 31.02 49.378 2.201 6.336 2.56 6.787 5.848 7.34 22.457 3.772 42.779 14.231 57.68 29.683 12.078 12.526 19.646 25.63 24.963 43.226 2.51 8.304 2.721 10.353 2.736 26.5.012 14.838-.31 18.667-2.121 25.175-5.204 18.705-13.604 33.282-26.709 46.347-15.356 15.311-34.355 25.032-55.546 28.423-3.668.587-23.098 1.043-44.601 1.047-25.811.006-39.15.374-41.355 1.142-5.939 2.071-7.244 9.991-2.288 13.889 2.408 1.894 4.175 1.977 42.129 1.973 43.903-.004 50.929-.64 67.279-6.086 50.111-16.692 82.696-63.813 80.501-116.41-.862-20.631-5.778-37.361-16.164-55-15.318-26.015-39.068-44.327-68.519-52.829l-8.098-2.338-6.832-13.917c-20.258-41.262-55.596-69.031-99.853-78.463-9.289-1.98-36.786-3.495-43.199-2.381M209.292 281.25c-25.41 25.438-46.624 47.394-47.142 48.793-2.122 5.722 3.714 11.936 9.811 10.448 1.542-.376 16.967-15.015 39.289-37.287L248 266.536v148.555l2.455 2.454c1.547 1.548 3.597 2.455 5.545 2.455s3.998-.907 5.545-2.455l2.455-2.454V266.536l36.75 36.668c22.322 22.272 37.747 36.911 39.289 37.287 6.097 1.488 11.933-4.726 9.811-10.448C349.033 327.839 257.359 235 256 235c-.279 0-21.298 20.813-46.708 46.25"/></svg>