<svg xmlns="http://www.w3.org/2000/svg" viewBox="0 0 512 512"><path fill-rule="evenodd" d="M249.5 22.218c-3.48.88-12.812 9.806-71.76 68.64-54.386 54.28-68.079 68.463-69.376 71.859-2.38 6.232-1.469 14.234 2.227 19.568 3.301 4.763 11.895 9.718 16.838 9.709 9.026-.016 8.334.57 58.585-49.578C212.147 116.337 233.859 95 234.264 95c.405 0 .736 61.396.736 136.435 0 82.006.372 137.414.933 138.889 1.519 3.994 7.255 9.856 11.558 11.811 5.115 2.324 11.903 2.324 17.018 0 4.303-1.955 10.039-7.817 11.558-11.811.561-1.475.933-56.883.933-138.889 0-75.039.331-136.435.736-136.435.405 0 22.117 21.34 48.25 47.423 42.77 42.688 47.956 47.538 51.943 48.586 12.817 3.369 25.789-5.565 26.862-18.5.893-10.769 3.407-7.858-70.531-81.636-63.854-63.717-68.03-67.679-72.453-68.743-5.417-1.304-6.84-1.294-12.307.088m-214 256.228c-5.367 1.977-12.052 9.175-13.494 14.531-.816 3.03-1.038 19.532-.771 57.388l.374 53.135 2.627 9.706c10.081 37.249 37.087 64.252 74.645 74.635l9.619 2.659h295l9.706-2.681c19.081-5.271 33.96-13.826 47.373-27.24 13.46-13.459 22.066-28.457 27.185-47.373l2.627-9.706.374-53.135c.272-38.609.053-54.328-.801-57.498-.782-2.906-2.727-5.916-5.821-9.01-7.868-7.868-17.59-8.793-26.796-2.55-9.139 6.199-8.772 3.665-9.379 64.693-.514 51.67-.608 53.722-2.724 60-6.929 20.556-24.138 36.118-44.773 40.489-10.427 2.208-278.453 2.215-288.971.007-22.508-4.726-41.27-23.488-45.996-45.996-1.176-5.603-1.473-16.8-1.487-56.101-.018-50.786-.163-52.797-4.235-58.645-4.653-6.681-16.391-10.213-24.282-7.308"/></svg>