<svg xmlns="http://www.w3.org/2000/svg" viewBox="0 0 512 512"><path fill-rule="evenodd" d="M237.52 81.048c-48.352 7.58-88.205 41.256-103.057 87.081l-2.796 8.629-6.084.625c-14.65 1.504-38.958 10.667-52.28 19.707-15.274 10.365-30.489 26.381-39.463 41.539-23.755 40.129-23.645 91.738.281 131.204 18.649 30.763 48.911 52.083 84.953 59.851 7.241 1.561 13.374 1.816 43.601 1.816 33.966 0 35.269-.071 37.938-2.062 5.248-3.916 6.887-7.113 6.887-13.438 0-6.323-1.636-9.517-6.882-13.438-2.619-1.957-4.494-2.093-36.938-2.68-25.377-.459-35.86-1.013-40.704-2.151-28.992-6.81-54.085-27.207-66.483-54.039-6.116-13.239-7.911-22.216-7.937-39.692-.026-17.492 1.719-26.232 7.907-39.626 12.443-26.932 37.566-47.385 66.133-53.84 3.797-.858 11.767-1.935 17.71-2.394 15.788-1.218 18.365-3.595 22.175-20.455 8.182-36.213 35.198-63.89 71.142-72.883 7.025-1.758 11.694-2.216 22.377-2.194 17.389.034 27.354 2.355 42.5 9.897 26.936 13.412 45.341 37.385 51.226 66.722 2.863 14.275 7.458 18.084 23.081 19.128 13.076.873 24.744 3.831 35.828 9.082 11.157 5.285 16.464 8.854 24.889 16.735 13.015 12.174 23.271 29.761 27.638 47.388 3.123 12.61 3.123 32.27 0 44.88-5.479 22.117-19.159 42.318-37.828 55.86-7.382 5.355-22.52 12.273-32.378 14.797-7.553 1.935-12.107 2.232-42.635 2.785-32.445.587-34.32.723-36.939 2.68-5.246 3.921-6.882 7.115-6.882 13.438 0 6.325 1.639 9.522 6.887 13.438 2.667 1.99 3.977 2.062 37.438 2.062 30.147 0 35.785-.244 43.175-1.867 51.899-11.397 90.51-50.693 100.664-102.451 2.298-11.713 2.298-34.651 0-46.364-9.091-46.34-41.525-83.509-85.705-98.215-5.752-1.915-14.108-4.048-18.568-4.741l-8.108-1.259-2.735-8.397c-13.813-42.417-49.769-75.308-93.239-85.29-10.157-2.333-36.992-3.404-46.789-1.868m11.98 128.389c-1.65.747-22.206 20.642-45.68 44.211-37.808 37.96-42.76 43.291-43.379 46.698-2.052 11.286 7.936 21.272 19.213 19.209 3.36-.615 7.414-4.259 32.082-28.842l28.236-28.139.264 103.64c.262 102.91.279 103.659 2.326 106.401 3.918 5.248 7.114 6.885 13.438 6.885 6.324 0 9.52-1.637 13.438-6.885 2.047-2.742 2.064-3.491 2.326-106.401l.264-103.64 28.236 28.139c24.668 24.583 28.722 28.227 32.082 28.842 11.277 2.063 21.265-7.923 19.213-19.209-.619-3.407-5.572-8.738-43.379-46.7-24.151-24.25-44.077-43.46-45.898-44.25-4.018-1.743-8.877-1.728-12.782.041"/></svg>