<svg xmlns="http://www.w3.org/2000/svg" viewBox="0 0 512 512"><path fill-rule="evenodd" d="M37.108 49.072c-13.33 2.646-26.588 13.05-32.897 25.816L.5 82.396v347.208l3.711 7.508c6.502 13.157 19.567 23.191 33.68 25.867 7.339 1.392 426.72 1.413 434.223.022 18.285-3.39 34.376-19.493 37.865-37.892 1.403-7.394 1.403-266.824 0-274.218-3.489-18.399-19.58-34.502-37.865-37.892-3.362-.623-43.669-.999-107.201-.999-85.363 0-101.943-.222-102.613-1.376-.44-.757-13.83-13.874-29.756-29.149-22.692-21.766-30.155-28.337-34.5-30.375l-5.544-2.6-75.5-.15c-41.525-.082-77.476.243-79.892.722m2.854 33.178c-3.26 1.644-5.068 3.452-6.712 6.712L31 93.424v325.152l2.25 4.462c1.644 3.26 3.452 5.068 6.712 6.712l4.462 2.25h421.152l4.462-2.25c3.26-1.644 5.068-3.452 6.712-6.712l2.25-4.462V157.424l-2.25-4.439c-1.332-2.629-3.677-5.264-5.75-6.462-3.438-1.987-5.389-2.032-109.5-2.523l-106-.5-5.5-2.785c-4.076-2.064-13.266-10.281-35.5-31.739l-30-28.954-70.038-.011L44.424 80l-4.462 2.25"/></svg>