<svg xmlns="http://www.w3.org/2000/svg" width="512" height="512" viewBox="0 0 512 512" version="1.1">
	<path d="M 68.112 81.581 C 51.209 86.126, 37.951 99.573, 33.492 116.693 C 31.213 125.441, 31.250 386.701, 33.531 395.458 C 38.024 412.706, 51.352 425.991, 68.693 430.508 C 77.341 432.761, 434.659 432.761, 443.307 430.508 C 460.648 425.991, 473.976 412.706, 478.469 395.458 C 479.800 390.347, 480 374.762, 480 276 C 480 151.074, 480.274 156.923, 473.850 144.871 C 470.116 137.865, 461.263 129.180, 454.213 125.608 C 442.762 119.805, 447.101 120, 329.201 120 L 220.823 120 204.792 104.575 C 187.859 88.284, 182.101 84.303, 171.458 81.531 C 163.055 79.342, 76.281 79.384, 68.112 81.581 M 73.180 113.682 C 71.353 114.582, 68.653 116.899, 67.180 118.831 L 64.500 122.344 64.500 255.922 L 64.500 389.500 66.834 392.773 C 68.118 394.573, 70.922 396.940, 73.065 398.033 C 76.918 399.999, 79.033 400.018, 257.309 399.761 L 437.656 399.500 441.187 396.806 C 448.481 391.243, 448 399.768, 448 276.059 C 448 167.318, 447.957 164.837, 446.023 161.044 C 444.935 158.913, 442.573 156.118, 440.773 154.834 L 437.500 152.500 322.903 152 C 223.097 151.565, 208.061 151.307, 206.403 150.001 C 205.357 149.176, 196.720 141.076, 187.210 132.001 C 177.701 122.925, 168.483 114.712, 166.726 113.750 C 163.820 112.158, 159.602 112.002, 120.016 112.023 C 81.775 112.043, 76.098 112.244, 73.180 113.682" stroke="none" fill="black" fill-rule="evenodd"/>
</svg>