<svg xmlns="http://www.w3.org/2000/svg" viewBox="0 0 512 512"><path fill-rule="evenodd" d="M84 64.533c-19.366 4.27-35.478 19.849-40.511 39.17C42.286 108.322 42 117.398 42 150.96l-.001 41.54 63.251-.241c40.804-.156 65.691-.639 70.129-1.362 5.751-.937 12.903-4.115 43.566-19.356 25.015-12.434 39.051-18.84 44.12-20.138 7.065-1.808 12.404-1.903 107.289-1.903h99.854l-.41-10c-.345-8.408-.839-10.831-3.104-15.217-3.562-6.897-8.77-11.957-15.608-15.163l-5.586-2.62-97-.5-97-.5-5.627-2.638c-4.108-1.926-9.548-6.43-20.147-16.678-14.407-13.929-17.992-16.494-28.678-20.521-5.327-2.008-7.562-2.101-56.048-2.327-40.821-.19-51.746.039-57 1.197m187.477 106.455c-10.21 1.501-17.483 4.509-48.875 20.217-17.656 8.834-35.027 17.237-38.602 18.672l-6.5 2.609-67.5.52-67.5.52-6.679 2.587C13.8 224.643.069 244.027.015 266.663c-.021 8.459 30.207 158.099 33.175 164.229 2.954 6.102 8.917 11.798 15.662 14.96L54.5 448.5h401l5.5-2.609c3.025-1.436 7.194-4.276 9.265-6.313 7.851-7.722 7.235-4.989 25.184-111.849C504.552 273.533 512 226.695 512 223.644c0-24.885-18.063-46.948-42.713-52.171-5.647-1.197-22.408-1.42-99.787-1.331-51.15.059-95.261.44-98.023.846"/></svg>