<svg xmlns="http://www.w3.org/2000/svg" width="512" height="512" viewBox="0 0 512 512" version="1.1">
	<path d="M 164.077 2.589 L 161 5.178 161 78.941 L 161 152.704 163.250 156.010 C 164.488 157.828, 166.770 160.257, 168.323 161.408 C 171.136 163.492, 171.470 163.500, 256 163.500 C 340.530 163.500, 340.864 163.492, 343.677 161.408 C 345.230 160.257, 347.513 157.828, 348.750 156.010 L 351 152.704 351 89.488 L 351 26.273 348.397 23.670 L 345.794 21.067 306.824 20.783 L 267.855 20.500 264.177 16.406 C 262.155 14.154, 258.017 9.542, 254.982 6.156 L 249.465 0 208.309 0 L 167.153 0 164.077 2.589 M 241 221 L 241 248 166.234 248 C 81.578 248, 86.774 247.504, 82.275 256.013 C 80.062 260.198, 80 261.089, 80 288.943 L 80 317.571 87.983 318.640 C 93.481 319.376, 98.071 320.765, 102.733 323.104 C 106.455 324.972, 109.838 326.650, 110.250 326.833 C 110.662 327.017, 111 316.104, 111 302.583 L 111 278 256.500 278 L 402 278 402 297.884 L 402 317.767 408.750 318.486 C 416.668 319.330, 423.776 321.829, 428.492 325.426 C 430.348 326.842, 432.122 328, 432.433 328 C 432.745 328, 433 312.771, 433 294.157 C 433 260.879, 432.962 260.243, 430.725 256.013 C 426.224 247.501, 431.486 248, 346.266 248 L 271 248 271 221 L 271 194 256 194 L 241 194 241 221 M 5.357 348.975 C -0.211 351.265, -0 348.170, 0 427.575 L 0 500.704 2.250 504.010 C 3.488 505.828, 5.770 508.257, 7.323 509.408 C 10.128 511.486, 10.690 511.502, 94.080 511.767 C 176.114 512.027, 178.102 511.989, 181.906 510.048 C 184.047 508.956, 186.856 506.361, 188.149 504.281 L 190.500 500.500 190.500 438.402 C 190.500 371.586, 190.568 372.491, 185.343 370.110 C 183.695 369.359, 170.740 369, 145.321 369 L 107.737 369 103.618 364.750 C 101.353 362.413, 97.199 357.800, 94.387 354.500 L 89.274 348.500 48.387 348.297 C 25.899 348.185, 6.536 348.490, 5.357 348.975 M 324.766 350.918 L 321.500 353.836 321.500 427.168 L 321.500 500.500 323.701 504.038 C 324.911 505.984, 327.686 508.579, 329.867 509.805 L 333.832 512.034 417.843 511.767 C 500.924 511.503, 501.885 511.477, 504.615 509.438 C 506.134 508.304, 508.304 506.134, 509.438 504.615 C 511.463 501.904, 511.505 500.714, 511.772 438.372 L 512.044 374.890 509.099 371.945 L 506.154 369 468.327 368.965 C 440.549 368.939, 429.933 368.606, 428.365 367.715 C 427.190 367.047, 423.191 362.900, 419.477 358.500 C 415.763 354.100, 411.774 349.953, 410.612 349.285 C 409.054 348.390, 397.945 348.062, 368.266 348.035 L 328.032 348 324.766 350.918" stroke="none" fill="black" fill-rule="evenodd"/>
</svg>