<svg xmlns="http://www.w3.org/2000/svg" viewBox="0 0 512 512"><path fill-rule="evenodd" d="M68.112 81.581c-16.903 4.545-30.161 17.992-34.62 35.112-2.279 8.748-2.242 270.008.039 278.765 4.493 17.248 17.821 30.533 35.162 35.05 8.648 2.253 365.966 2.253 374.614 0 17.341-4.517 30.669-17.802 35.162-35.05C479.8 390.347 480 374.762 480 276c0-124.926.274-119.077-6.15-131.129-3.734-7.006-12.587-15.691-19.637-19.263-11.451-5.803-7.112-5.608-125.012-5.608H220.823l-16.031-15.425c-16.933-16.291-22.691-20.272-33.334-23.044-8.403-2.189-95.177-2.147-103.346.05m5.068 32.101c-1.827.9-4.527 3.217-6 5.149l-2.68 3.513V389.5l2.334 3.273c1.284 1.8 4.088 4.167 6.231 5.26 3.853 1.966 5.968 1.985 184.244 1.728l180.347-.261 3.531-2.694c7.294-5.563 6.813 2.962 6.813-120.747 0-108.741-.043-111.222-1.977-115.015-1.088-2.131-3.45-4.926-5.25-6.21L437.5 152.5l-114.597-.5c-99.806-.435-114.842-.693-116.5-1.999-1.046-.825-9.683-8.925-19.193-18-9.509-9.076-18.727-17.289-20.484-18.251-2.906-1.592-7.124-1.748-46.71-1.727-38.241.02-43.918.221-46.836 1.659"/></svg>