<svg xmlns="http://www.w3.org/2000/svg" viewBox="0 0 512 512"><path fill-rule="evenodd" d="M3.4 3.4 0 6.8v232.046l2.94 2.94c1.617 1.617 4.373 3.227 6.125 3.577 1.752.35 53.191.612 114.31.581 83.403-.043 111.975-.355 114.531-1.25 1.874-.657 4.349-2.464 5.5-4.017 2.092-2.82 2.094-2.951 2.39-114.5.163-61.422.024-113.581-.308-115.909-.406-2.84-1.598-5.224-3.623-7.25L238.846 0H6.8L3.4 3.4m266.814-.46c-1.617 1.617-3.227 4.373-3.577 6.125-.35 1.752-.612 53.191-.581 114.31.043 83.403.355 111.975 1.25 114.531.657 1.874 2.464 4.349 4.017 5.5 2.82 2.092 2.951 2.094 114.5 2.39 61.422.163 113.581.024 115.909-.308 2.84-.406 5.224-1.598 7.25-3.623l3.018-3.019V6.8l-3.4-3.4-3.4-3.4H273.154l-2.94 2.94M22 123v101h202V22H22v101m266 0v101h202V22H288v101M8.258 266.705c-1.232.237-3.595 1.786-5.25 3.44L0 273.154V505.2l3.4 3.4 3.4 3.4h232.046l3.019-3.018c2.025-2.026 3.217-4.41 3.623-7.25.332-2.328.471-54.487.308-115.909-.296-111.549-.298-111.68-2.39-114.5-1.151-1.553-3.626-3.36-5.5-4.017-2.566-.899-31.024-1.173-115.406-1.113-61.6.043-113.009.274-114.242.512m265.836.601c-1.874.657-4.349 2.464-5.5 4.017-2.092 2.82-2.094 2.951-2.39 114.5-.163 61.422-.024 113.581.308 115.909.406 2.84 1.598 5.224 3.623 7.25l3.019 3.018H505.2l3.4-3.4 3.4-3.4V273.154l-2.94-2.94c-1.617-1.617-4.373-3.227-6.125-3.577-1.752-.35-53.191-.612-114.31-.581-83.403.043-111.975.355-114.531 1.25M22 389v101h202V288H22v101m266 0v101h202V288H288v101"/></svg>