<svg xmlns="http://www.w3.org/2000/svg" viewBox="0 0 512 512"><path fill-rule="evenodd" d="M17.196 230.628c-6.116 2.237-13.599 10.058-15.712 16.421C-1.795 256.92.724 267.724 8 275c5.642 5.642 10.35 7.5 19 7.5s13.358-1.858 19-7.5c5.642-5.642 7.5-10.35 7.5-19 0-5.447-.538-8.586-1.967-11.467-2.529-5.101-8.031-10.582-13.066-13.018-5.227-2.528-15.6-2.96-21.271-.887m229 0c-6.116 2.237-13.599 10.058-15.712 16.421-3.279 9.871-.76 20.675 6.516 27.951 5.642 5.642 10.35 7.5 19 7.5s13.358-1.858 19-7.5c5.642-5.642 7.5-10.35 7.5-19 0-5.447-.538-8.586-1.967-11.467-2.529-5.101-8.031-10.582-13.066-13.018-5.227-2.528-15.6-2.96-21.271-.887m229 0c-6.116 2.237-13.599 10.058-15.712 16.421-3.279 9.871-.76 20.675 6.516 27.951 5.642 5.642 10.35 7.5 19 7.5s13.358-1.858 19-7.5c5.642-5.642 7.5-10.35 7.5-19 0-5.447-.538-8.586-1.967-11.467-2.529-5.101-8.031-10.582-13.066-13.018-5.227-2.528-15.6-2.96-21.271-.887"/></svg>