<svg xmlns="http://www.w3.org/2000/svg" viewBox="0 0 512 512"><path fill-rule="evenodd" d="M100.729 1.512C75.451 5.761 53.89 16.958 35.424 35.424 16.663 54.185 5.677 75.551 1.477 101.442-.566 114.039-.655 203.95 1.368 211.546c2.493 9.362 7.967 16.774 16.348 22.135 10.07 6.442 9.595 6.415 105.622 6.101l86.162-.282 5.653-2.285c10.774-4.357 17.601-11.243 22.145-22.337l2.202-5.378.282-86.162c.314-96.027.341-95.552-6.101-105.622-5.361-8.381-12.773-13.855-22.135-16.348-7.077-1.885-99.464-1.765-110.817.144m199.265-.089c-8.91 2.462-16.456 8.134-21.675 16.293-6.442 10.07-6.415 9.595-6.101 105.622l.282 86.162 2.202 5.378c4.544 11.094 11.371 17.98 22.145 22.337l5.653 2.285 86.162.282c96.027.314 95.552.341 105.622-6.101 8.381-5.361 13.855-12.773 16.348-22.135 2.023-7.596 1.934-97.507-.109-110.104-4.2-25.891-15.186-47.257-33.947-66.018-18.761-18.761-40.127-29.747-66.018-33.947-12.057-1.955-103.518-2-110.564-.054M100.826 23.97c-39.708 8.374-68.761 37.553-76.854 77.187-1.801 8.817-1.971 13.774-1.956 57 .017 47.138.027 47.36 2.251 51.287 1.229 2.17 3.809 4.87 5.734 6 3.458 2.032 4.519 2.056 89.999 2.056 84.727 0 86.568-.041 89.819-2 1.826-1.1 4.301-3.575 5.5-5.5l2.181-3.5V120c0-85.48-.024-86.541-2.056-89.999-1.13-1.925-3.83-4.505-6-5.734-3.934-2.229-4.063-2.234-51.944-2.18-42.546.048-48.986.262-56.674 1.883m201.73.297c-2.17 1.229-4.87 3.809-6 5.734-2.032 3.458-2.056 4.519-2.056 89.999v86.5l2.181 3.5c1.199 1.925 3.674 4.4 5.5 5.5 3.251 1.959 5.092 2 89.819 2 85.48 0 86.541-.024 89.999-2.056 1.925-1.13 4.505-3.83 5.734-6 2.224-3.927 2.234-4.149 2.251-51.287.015-43.226-.155-48.183-1.956-57-8.123-39.783-37.402-69.062-77.185-77.185-8.817-1.801-13.774-1.971-57-1.956-47.138.017-47.36.027-51.287 2.251M29.324 273.486c-7.484 1.646-15.754 6.741-20.53 12.648C.07 296.925.025 297.267.016 353.5c-.006 37.471.314 49.987 1.461 57.058 4.2 25.891 15.186 47.257 33.947 66.018 18.761 18.761 40.127 29.747 66.018 33.947 13.321 2.16 128.3 2.179 132.473.021 6.453-3.337 6.17 1.904 5.863-108.254l-.278-99.79-2.285-5.653c-4.357-10.774-11.243-17.601-22.337-22.145L209.5 272.5l-87-.186c-70.149-.151-88.196.076-93.176 1.172m273.852-.416c-15.554 3.061-27.141 14.924-30.168 30.89-.634 3.338-1.008 41.161-1.008 101.775 0 106.266-.276 101.52 6.085 104.809 4.173 2.158 119.152 2.139 132.473-.021 25.891-4.2 47.257-15.186 66.018-33.947 18.761-18.761 29.747-40.127 33.947-66.018 2.043-12.597 2.132-102.508.109-110.104-2.492-9.361-7.967-16.774-16.344-22.133-9.875-6.317-9.539-6.296-102.788-6.194-46.2.051-85.946.475-88.324.943M32.741 295.418c-4.898 1.763-6.479 3.148-8.814 7.725-1.822 3.571-1.927 6.347-1.927 50.91 0 42.978.174 47.984 1.972 56.79 8.123 39.783 37.402 69.062 77.185 77.185C110.06 489.846 115 490 164.427 490h53.613l-.27-92.25-.27-92.25-2.181-3.5c-1.199-1.925-3.674-4.4-5.5-5.5-3.242-1.954-5.293-2.005-88.319-2.218-69.349-.177-85.692.032-88.759 1.136m272.574-.327c-4.295 1.258-9.017 6.175-10.274 10.7-.671 2.418-1.032 35.123-1.035 93.959L294 490h53.593c49.407 0 54.347-.154 63.25-1.972 39.783-8.123 69.062-37.402 77.185-77.185 1.801-8.817 1.971-13.774 1.956-57-.017-47.138-.027-47.36-2.251-51.287-1.229-2.17-3.809-4.87-5.734-6-3.45-2.027-4.689-2.058-88.499-2.227-50.187-.101-86.304.211-88.185.762"/></svg>