<svg xmlns="http://www.w3.org/2000/svg" viewBox="0 0 512 512"><path fill-rule="evenodd" d="M86.64 47.599c-21.527 3.889-39.864 13.563-55.671 29.37-16.178 16.178-25.605 34.33-29.475 56.758C.136 141.594-.027 155.025.252 236.141c.315 91.808.356 93.492 2.467 101.359 8.267 30.818 27.383 54.642 54.781 68.275 4.4 2.19 9.8 4.536 12 5.214 3.203.988 9.379 6.573 31 28.033 22.323 22.157 27.714 27.009 31.122 28.009 7.818 2.293 9.448 1.146 36.378-25.615l24.5-24.345 114.5-.34c124.796-.37 117.525-.04 134.887-6.118 35.036-12.268 62.752-44.803 68.399-80.292.641-4.027 1.513-7.321 1.939-7.321.426 0 .775-41.475.775-92.167 0-50.691-.322-91.844-.716-91.45-.394.393-1.298-2.731-2.01-6.944-3.525-20.873-13.426-39.652-29.243-55.47-16.101-16.101-34.237-25.553-56.466-29.43-7.715-1.345-29.067-1.528-169.446-1.449-134.098.075-161.917.324-168.479 1.509M95 76.684c-7.674 1.317-18.363 4.92-25.443 8.576-6.123 3.161-10.227 6.33-17.097 13.2-10.214 10.214-15.717 19.477-19.66 33.097l-2.3 7.943V232c0 103.733-.426 97.258 7.467 113.5 9.027 18.575 26.861 33.333 46.533 38.506 4.592 1.208 6.877 3.176 28.028 24.137l23.028 22.821 18.972-19.085c10.435-10.498 20.727-20.389 22.872-21.983l3.9-2.896 111.6-.017c65.898-.011 115.417-.42 120.921-1 32.247-3.396 56.862-24.344 65.852-56.041 1.709-6.028 1.827-12.36 1.827-98.442v-92l-2.3-7.943c-3.943-13.62-9.446-22.883-19.66-33.097-10.004-10.004-19.062-15.466-32.567-19.638l-7.473-2.309-161-.129c-88.55-.071-162.125.064-163.5.3M.48 232c0 50.875.121 71.688.27 46.25.148-25.438.148-67.063 0-92.5C.601 160.312.48 181.125.48 232m152.761-40.005c-10.013 6.104-9.599 20.657.743 26.153C157.308 219.914 162.022 220 256 220c93.978 0 98.692-.086 102.016-1.852 10.342-5.496 10.756-20.049.743-26.153-3.194-1.948-5.234-1.988-102.759-1.988s-99.565.04-102.759 1.988m0 53c-10.013 6.104-9.599 20.657.743 26.153C157.308 272.914 162.022 273 256 273c93.978 0 98.692-.086 102.016-1.852 10.342-5.496 10.756-20.049.743-26.153-3.194-1.948-5.234-1.988-102.759-1.988s-99.565.04-102.759 1.988"/></svg>