<svg xmlns="http://www.w3.org/2000/svg" viewBox="0 0 512 512"><path fill-rule="evenodd" d="M95.973 78.277c-15.355 5.235-27.02 18.793-29.99 34.857-.649 3.51-.911 58.759-.743 156.726l.26 151.304 3.266 2.918c3.729 3.332 9.334 3.937 12.957 1.399 1.193-.835 15.073-16.577 30.845-34.982l28.676-33.464 135.128-.268L411.5 356.5l5.725-2.312c8.559-3.458 16.844-10.041 21.601-17.165 8.185-12.258 7.631-4.066 7.943-117.422.182-66.064-.078-102.819-.751-106.463-3.057-16.537-15.198-30.291-31.109-35.243-5.864-1.826-11.697-1.894-159.248-1.869l-153.161.026-6.527 2.225m9.451 19.663c-8.949 2.141-16.753 10.16-17.917 18.412-.322 2.281-.456 63.977-.296 137.101l.289 132.952 20.126-23.452c11.07-12.899 21.13-24.353 22.355-25.453 2.2-1.974 3.997-2.006 140.874-2.5 128.792-.464 138.869-.623 141.795-2.224 4.557-2.494 9.933-9.204 11.27-14.068.85-3.09 1.081-30.919.869-104.708l-.289-100.5-2.687-4.57c-3.208-5.457-8.657-9.45-14.813-10.854-5.229-1.194-296.606-1.324-301.576-.136m25.788 80.189c-3.958 1.141-7.203 5.967-7.208 10.721-.003 2.479.88 4.234 3.396 6.75l3.4 3.4h250.4l3.4-3.4c2.516-2.516 3.399-4.271 3.396-6.75-.005-5.05-3.207-9.537-7.694-10.783-4.942-1.372-244.323-1.313-249.09.062m-.897 69.335c-6.517 2.834-8.241 11.348-3.397 16.77l2.917 3.266 58.659.274 58.659.273 3.423-3.423c5.808-5.808 4.277-14.116-3.175-17.23-4.901-2.048-112.365-1.984-117.086.07"/></svg>