<svg xmlns="http://www.w3.org/2000/svg" viewBox="0 0 512 512"><path fill-rule="evenodd" d="M126.5 61.088c-35.746 3.673-70.718 22.059-92.89 48.835-15.711 18.973-24.733 37.078-30.89 61.988C.617 180.417.593 181.81.267 315.75.086 390.138.317 451 .78 451c.462 0 32.314-14.738 70.781-32.75L141.5 385.5l124-.553c123.283-.551 124.056-.567 133.699-2.761 47.972-10.914 85.199-42.072 102.859-86.089 4.061-10.124 8.707-28.146 9.175-35.597.139-2.2.484 39.65.767 93l.515 97 .242-131.809c.134-72.495-.112-131.59-.546-131.322-.433.268-1.324-3.417-1.978-8.191-1.716-12.509-5.599-25.074-11.687-37.818-21.973-45.994-63.622-75.237-114.402-80.323-12.404-1.242-245.507-1.196-257.644.051m-1.915 32.006c-14.921 2.208-32.61 9.15-45.708 17.937-8.261 5.542-23.269 20.685-28.71 28.969-10.607 16.148-16.507 33.362-18.165 53-.941 11.155-1.464 209-.552 209 .247 0 24.188-11.025 53.203-24.5l52.753-24.5h122.166c132.368 0 130.068.086 146.354-5.468 33.599-11.458 60.262-38.93 69.911-72.032 4.191-14.378 4.584-18.899 4.611-53 .022-28.151-.241-34.249-1.789-41.5-3.358-15.732-8.55-28.381-16.83-41-5.433-8.278-20.44-23.423-28.706-28.969-9.248-6.204-23.623-12.734-34.846-15.828l-9.777-2.695-129-.145c-70.95-.079-131.662.249-134.915.731M.485 319.5c0 72.6.119 102.152.265 65.672.145-36.48.145-95.88 0-132C.604 217.052.485 246.9.485 319.5M145.92 199.112c-17.453 2.566-28.587 20.763-23.471 38.362 2.202 7.573 10.547 16.323 17.979 18.85 20.012 6.805 39.864-7.008 39.987-27.824.111-18.672-15.709-32.15-34.495-29.388m105-.049c-6.618 1.044-12.018 4.14-17.124 9.819-11.148 12.399-9.96 30.762 2.712 41.916 14.666 12.91 37.463 8.179 46.186-9.584 3.879-7.899 3.913-18.331.084-25.754-6.209-12.041-18.703-18.47-31.858-16.397m105.361.044c-14.043 1.794-24.727 14.495-24.727 29.393 0 16.121 11.54 28.376 27.612 29.323 9.813.579 15.944-1.763 22.864-8.733 11.528-11.612 12.073-28.086 1.323-40.043-7.451-8.287-15.856-11.373-27.072-9.94"/></svg>