<svg xmlns="http://www.w3.org/2000/svg" viewBox="0 0 512 512"><path fill-rule="evenodd" d="M240 161.079c-9.407 1.67-24.666 7.446-33.137 12.541-23.194 13.952-40.404 38.851-44.968 65.063l-1.1 6.317h-59.947c-64.621 0-63.577-.081-67.287 5.217-2.004 2.86-2.004 8.706 0 11.566 3.71 5.298 2.667 5.217 67.276 5.217h59.937l1.266 6.75c6.336 33.784 30.494 61.85 62.698 72.841 13.211 4.51 22.33 5.785 36.262 5.072 17.282-.884 31.247-5.247 45.772-14.3 22.22-13.849 38.296-37.528 43.188-63.613l1.266-6.75h59.937c64.609 0 63.566.081 67.276-5.217.859-1.225 1.561-3.828 1.561-5.783 0-1.955-.702-4.558-1.561-5.783-3.71-5.298-2.667-5.217-67.276-5.217h-59.937l-1.266-6.75c-6.931-36.955-34.111-65.773-71.46-75.766-7.247-1.939-30.679-2.794-38.5-1.405m8.981 21.009c-51.776 4.379-82.635 60.257-59.318 107.413 20.742 41.948 75.94 53.868 113.073 24.417 22.08-17.512 32.39-48.667 25.278-76.389-6.763-26.362-27.63-47.165-53.638-53.471-9.632-2.336-15.598-2.799-25.395-1.97"/></svg>