<svg xmlns="http://www.w3.org/2000/svg" viewBox="0 0 512 512"><path fill-rule="evenodd" d="M249.5 33.44c-1.65.749-51.008 49.444-109.685 108.211C23.806 257.837 30.7 250.256 32.472 259.701c.923 4.922 6.905 10.904 11.827 11.827 9.432 1.77 2.457 8.08 111.451-100.836L256 70.514l100.25 100.178c108.994 108.916 102.019 102.606 111.451 100.836 4.922-.923 10.904-6.905 11.827-11.827 1.772-9.445 8.666-1.864-107.343-118.051C309.709 79.076 264.167 34.219 262.282 33.4c-4.018-1.748-8.877-1.733-12.782.04M89.45 289.351c-4.042 1.835-8.228 6.935-8.966 10.928-.328 1.772-.441 28.196-.251 58.721.338 54.387.391 55.65 2.621 62.973 8.212 26.96 28.933 47.466 55.847 55.267l7.799 2.26H256c123.522 0 113.85.588 131.5-7.998 20.427-9.937 35.227-27.704 41.7-50.059 2.282-7.879 2.3-8.404 2.3-65.619 0-56.693-.035-57.723-2.062-60.438-3.917-5.248-7.114-6.886-13.438-6.886-6.323 0-9.519 1.637-13.438 6.884-2.011 2.691-2.075 4.16-2.564 58.938l-.502 56.178-2.395 6c-6.152 15.408-19.703 27.208-34.9 30.39-7.435 1.557-204.967 1.557-212.402 0-6.239-1.306-16.956-6.727-21.536-10.894-6.547-5.955-11.003-12.836-14.569-22.496-.736-1.992-1.29-21.873-1.651-59.178-.529-54.744-.596-56.249-2.605-58.938-1.134-1.518-3.238-3.639-4.675-4.712-3.31-2.471-11.265-3.157-15.313-1.321"/></svg>