<svg xmlns="http://www.w3.org/2000/svg" viewBox="0 0 512 512"><path fill-rule="evenodd" d="M240 1.485c-9.664 1.928-21.6 6.861-30.025 12.409-6.654 4.382-161.903 144.056-183.336 164.945-9.025 8.795-14.507 16.395-19.142 26.539C.122 221.518.579 213.677.239 330-.097 445.07-.255 441.625 6.08 458.051c6.95 18.023 23.761 36.373 41.42 45.213 2.75 1.377 8.825 3.793 13.5 5.369l8.5 2.867h372l7.932-2.297c23.041-6.672 41.818-22.548 52.871-44.703 4.194-8.406 7.47-18.721 8.365-26.336.48-4.076.865-5.057 1.424-3.626.422 1.079.799-44.801.838-101.955.038-57.154-.24-103.606-.62-103.227-.379.38-1.458-3.11-2.399-7.755-2.189-10.815-8.957-25.105-15.994-33.774-7.266-8.95-182.24-167.684-191.708-173.915C284.338 2.151 260.512-2.608 240 1.485m4.166 53.506c-2.934 1.056-6.708 2.789-8.387 3.852-1.68 1.063-42.625 37.841-90.99 81.729-59.604 54.087-88.55 80.998-89.841 83.529-3.803 7.456-4.024 14.246-3.731 114.899l.283 97.5 2.625 5.5c3.894 8.157 9.015 13.452 16.646 17.208l6.687 3.292H432.5l5.664-2.781c7.257-3.564 13.457-9.756 16.742-16.719l2.594-5.5v-204l-3.5-6.948c-1.925-3.821-5.525-9.098-8-11.726-2.475-2.629-42.505-39.217-88.955-81.308-92.84-84.126-88.347-80.557-101.333-80.482-3.515.02-8.527.869-11.546 1.955M.482 333.5c0 57.2.12 80.453.268 51.674.147-28.78.147-75.58 0-104C.602 252.753.482 276.3.482 333.5"/></svg>