<svg xmlns="http://www.w3.org/2000/svg" viewBox="0 0 512 512"><path fill-rule="evenodd" d="M253 6.021c-1.925.335-4.6 1.204-5.944 1.933C240.623 11.439 27.799 165.71 23 170.367c-6.411 6.22-12.136 15.451-15.276 24.633L5.5 201.5l-.273 142.807c-.198 103.681.036 143.956.855 146.999 1.515 5.627 8.983 13.096 14.609 14.611 2.989.805 28.292 1.049 88.498.855l84.311-.272 4.772-2.805c2.625-1.543 6-4.659 7.5-6.925l2.728-4.12.512-59.075c.469-54.113.666-59.495 2.351-64.075 2.517-6.84 5.208-11.219 10.041-16.34 24.643-26.11 66.537-16.22 77.693 18.34.966 2.994 1.431 18.76 1.847 62.666l.556 58.665 3.044 4.335c1.675 2.383 5.05 5.459 7.5 6.834l4.456 2.5H491.657l4.895-3.026c3.034-1.876 6.046-4.888 7.922-7.922l3.026-4.895.26-141.343c.225-122.078.057-142.33-1.231-148.579-2.064-10.013-8.282-22.18-14.742-28.843C487.177 167.136 273.141 11.747 266 7.972c-3.514-1.858-8.89-2.665-13-1.951M153 126.345c-92.747 66.848-101.694 73.542-103.75 77.618L47 208.424V464h121l.008-40.25c.005-22.137.468-44.259 1.029-49.159 5.458-47.64 49.14-82.895 96.117-77.574 36.773 4.166 65.907 29.781 76.095 66.904 1.935 7.051 2.11 10.839 2.507 54.329l.427 46.75H465V209.315l-2.324-4.408c-2.079-3.943-13.037-12.176-104.03-78.157-55.938-40.562-102.255-73.708-102.926-73.656-.671.052-46.895 33.015-102.72 73.251"/></svg>