<svg xmlns="http://www.w3.org/2000/svg" viewBox="0 0 512 512"><path fill-rule="evenodd" d="M113.18 163.625c-7.921 4.038-11.585 14.787-7.351 21.561 1.139 1.823 34.381 35.566 73.871 74.985 65.408 65.29 72.197 71.775 76.26 72.845 9.39 2.472 5.599 5.748 84.891-73.346 41.925-41.819 72.94-73.523 73.75-75.388 1.914-4.402 1.756-7.661-.592-12.264-4.141-8.118-14.603-12.348-21.593-8.733-1.604.83-32.115 30.855-67.802 66.723l-64.886 65.215-66.277-66.272-66.278-66.272-5.336-.373c-3.661-.257-6.38.158-8.657 1.319"/></svg>