<svg xmlns="http://www.w3.org/2000/svg" viewBox="0 0 512 512"><path fill-rule="evenodd" d="M161.252 151.104C154.017 154.686 149 162.26 149 169.602c0 9.555-.047 9.497 39.403 49.161l37.062 37.262-36.136 36.238c-19.874 19.93-36.841 37.652-37.704 39.382-4.329 8.683-2.814 17.451 4.232 24.498 7.051 7.051 15.842 8.566 24.498 4.221 1.73-.868 19.458-17.834 39.395-37.703L256 286.537l36.25 36.124c19.938 19.869 37.777 36.893 39.644 37.832 7.304 3.674 19.211 1.438 24.739-4.646 5.638-6.204 7.373-16.97 3.86-23.953-.939-1.867-17.961-19.704-37.826-39.638l-36.118-36.244 37.076-37.256c34.012-34.177 37.182-37.65 38.359-42.02 4.532-16.822-9.898-31.252-26.72-26.72-4.37 1.177-7.843 4.347-42.014 38.353L256 225.439l-37.25-37.049c-31.516-31.345-37.884-37.229-41.366-38.219-6.094-1.734-11.36-1.429-16.132.933"/></svg>