<svg xmlns="http://www.w3.org/2000/svg" viewBox="0 0 512 512"><path fill-rule="evenodd" d="M237 .584c-1.925.224-7.775.895-13 1.492-29.816 3.405-64.677 14.691-91.269 29.549C60.375 72.053 13.318 141.224 1.859 224c-1.724 12.454-1.724 51.546 0 64 8.024 57.958 32.928 108.592 73.239 148.902 40.31 40.311 90.944 65.215 148.902 73.239 5.536.766 18.888 1.315 32 1.315 23.64 0 33.302-.921 53.216-5.073 89.108-18.578 162.661-85.158 190.59-172.52 6.108-19.105 11.128-44.731 11.176-57.054.01-2.58.468-4.969 1.018-5.309.599-.37 1-7.03 1-16.618 0-10.412-.349-15.784-1-15.382-.612.378-1-1.197-1-4.063 0-6.387-2.608-23.64-5.583-36.937-7.383-32.994-23.934-68.262-45.743-97.467-9.163-12.27-36.437-39.544-48.707-48.707C375.381 25.752 336.011 9.267 292 2.512 282.027.981 244.815-.323 237 .584m-4 17.035c-32.45 3.883-59.322 11.821-85.907 25.374C78.791 77.816 32.367 141.959 19.347 219.5c-2.642 15.738-2.642 57.262 0 73 17.405 103.658 94.23 181.427 197.153 199.579 15.352 2.708 47.523 3.711 63.707 1.986 45.755-4.874 91.24-23.627 126.45-52.134 10.056-8.142 27.132-25.218 35.274-35.274 28.507-35.21 47.26-80.695 52.134-126.45 1.725-16.184.722-48.355-1.986-63.707C474.114 114.633 397.551 38.063 295.5 19.902c-9.517-1.694-16.863-2.195-35.5-2.419-12.925-.156-25.075-.095-27 .136m-93.826 121.695c-1.356 1.444-2.174 3.6-2.174 5.729 0 3.176 3.749 7.165 53.742 57.19l53.742 53.776-53.742 53.749C139.813 360.693 137 363.694 137 367.079c0 4.636 3.336 7.921 8.043 7.921 3.176 0 7.165-3.749 57.185-53.737L256 267.525l53.772 53.738C358.893 370.353 363.826 375 366.817 375c2.143 0 4.122-.848 5.728-2.455 1.607-1.606 2.455-3.585 2.455-5.728 0-2.991-4.647-7.924-53.737-57.045L267.525 256l53.738-53.772C370.353 153.107 375 148.174 375 145.183c0-4.393-3.79-8.183-8.183-8.183-2.991 0-7.924 4.647-57.05 53.742l-53.776 53.742-53.749-53.742C151.307 139.813 148.306 137 144.921 137c-2.441 0-4.261.733-5.747 2.314M.407 256c0 9.075.152 12.788.337 8.25.185-4.538.185-11.963 0-16.5-.185-4.537-.337-.825-.337 8.25"/></svg>