<svg xmlns="http://www.w3.org/2000/svg" width="512" height="512" viewBox="0 0 512 512" version="1.1">
	<path d="M 113.180 163.625 C 105.259 167.663, 101.595 178.412, 105.829 185.186 C 106.968 187.009, 140.210 220.752, 179.700 260.171 C 245.108 325.461, 251.897 331.946, 255.960 333.016 C 265.350 335.488, 261.559 338.764, 340.851 259.670 C 382.776 217.851, 413.791 186.147, 414.601 184.282 C 416.515 179.880, 416.357 176.621, 414.009 172.018 C 409.868 163.900, 399.406 159.670, 392.416 163.285 C 390.812 164.115, 360.301 194.140, 324.614 230.008 L 259.728 295.223 193.451 228.951 L 127.173 162.679 121.837 162.306 C 118.176 162.049, 115.457 162.464, 113.180 163.625" stroke="none" fill="black" fill-rule="evenodd"/>
</svg>