<svg xmlns="http://www.w3.org/2000/svg" width="512" height="512" viewBox="0 0 512 512" version="1.1">
	<path d="M 248.500 137.437 C 246.850 138.185, 209.419 174.954, 165.320 219.148 C 79.182 305.471, 82.505 301.748, 84.451 309.743 C 86.861 319.647, 98.246 325.974, 106.316 321.896 C 107.517 321.289, 141.460 287.881, 181.743 247.655 L 254.987 174.518 329.243 248.688 C 394.308 313.677, 403.955 322.941, 407.172 323.526 C 412.406 324.477, 416.611 323.280, 420.723 319.670 C 426.644 314.472, 428.617 306.943, 425.564 301.200 C 423.322 296.982, 263.865 138.227, 260.685 137.046 C 256.892 135.637, 252.137 135.790, 248.500 137.437" stroke="none" fill="black" fill-rule="evenodd"/>
</svg>