<svg xmlns="http://www.w3.org/2000/svg" viewBox="0 0 512 512"><path fill-rule="evenodd" d="M231.5 1.051C147.841 9.632 75.425 56.65 33.002 129.932 18.404 155.148 7.201 187.927 2.389 219.5c-2.582 16.939-2.582 56.061 0 73 8.524 55.934 33.183 104.938 72.678 144.433 67.786 67.787 167.535 92.049 258.663 62.916 70.61-22.574 127.501-73.819 157.168-141.571 10.139-23.155 17.998-53.611 19.72-76.417.371-4.908 1.058-9.161 1.528-9.451.47-.29.854-8.178.854-17.528 0-9.35-.386-16.761-.859-16.469-.472.292-1.159-3.458-1.527-8.334-1.717-22.744-9.588-53.228-19.716-76.357-22.252-50.818-60.063-92.748-108.701-120.545C355.546 17.945 325.164 7.617 292 2.515 279.462.586 244.322-.264 231.5 1.051m7.5 39.541c-34.193 4.04-54.653 9.729-79.228 22.032-21.116 10.571-36.655 21.511-53.231 37.476-43.067 41.482-66.525 96.454-66.525 155.9 0 59.446 23.458 114.418 66.525 155.9 32.35 31.158 71.776 50.533 117.459 57.724 15.831 2.491 49.045 2.493 64.5.003 48.242-7.774 89.158-28.894 122.557-63.263 31.813-32.737 51.324-71.991 58.646-117.991 2.403-15.095 2.403-49.651 0-64.746-7.322-46-26.833-85.254-58.646-117.991C377.985 71.604 337.833 50.625 291 42.907c-11.951-1.97-43.163-3.359-52-2.315m-60.688 126.353c-8.294 3.766-12.994 14.391-10.353 23.405 1.018 3.472 6.104 9.055 31.121 34.164l29.905 30.014-28.517 28.486c-29.747 29.715-33.493 34.411-33.446 41.932.05 8.068 7.064 16.923 15.124 19.093 5.125 1.38 10.094.556 15.354-2.548 2.2-1.299 16.59-14.983 31.979-30.411l27.978-28.051 30.022 29.886c30.891 30.752 32.526 32.059 40.122 32.079 6.33.017 14.379-5.075 17.408-11.012 2.2-4.313 2.638-12.132.932-16.667-.582-1.548-14.406-16.199-30.72-32.557l-29.661-29.743 29.592-29.757c32.152-32.332 32.469-32.76 31.636-42.806-.794-9.565-7.675-16.446-17.24-17.24-10.014-.83-10.482-.485-42.821 31.648l-29.773 29.582-29.227-29.185c-19.469-19.441-30.468-29.698-32.945-30.721-4.99-2.062-11.378-1.903-16.47.409M.411 256c0 9.625.15 13.563.334 8.75.183-4.812.183-12.688 0-17.5-.184-4.812-.334-.875-.334 8.75"/></svg>