<svg xmlns="http://www.w3.org/2000/svg" viewBox="0 0 512 512"><path fill-rule="evenodd" d="M76.157 65.693c-4.41 2.173-9.115 6.963-10.8 10.995-1.807 4.326-1.72 12.499.182 17.094 1.078 2.605 25.252 27.445 80.742 82.968L225.483 256l-79.202 79.25c-55.49 55.523-79.664 80.363-80.742 82.968-3.83 9.253-.675 20.613 7.283 26.218 4.878 3.436 13.548 4.557 19.822 2.564 3.122-.992 19.043-16.388 83.609-80.851l79.753-79.626 79.247 79.199c55.52 55.487 80.36 79.661 82.965 80.739 7.862 3.254 18.218 1.058 23.979-5.085 5.617-5.99 7.388-15.611 4.264-23.158-1.078-2.605-25.252-27.445-80.739-82.965l-79.199-79.247 79.626-79.753c64.463-64.566 79.859-80.487 80.851-83.609 1.993-6.274.872-14.944-2.564-19.822-5.605-7.958-16.965-11.113-26.218-7.283-2.605 1.078-27.445 25.252-82.968 80.742L256 225.483l-79.25-79.202c-55.523-55.49-80.363-79.664-82.968-80.742-4.838-2.003-13.4-1.928-17.625.154"/></svg>