<svg xmlns="http://www.w3.org/2000/svg" viewBox="0 0 512 512"><path fill-rule="evenodd" d="M237.235 33.433c-11.443 2.176-21 5.36-30.735 10.239-29.829 14.95-50.506 40.485-59.241 73.158-2.258 8.446-2.596 11.758-2.672 26.17-.1 18.98 1.187 26.262 7.528 42.601 10.34 26.642 33.485 50.26 60.187 61.417 16.372 6.841 24.632 8.405 44.198 8.369 15.101-.028 18.08-.322 26.67-2.631 20.273-5.451 37.138-15.038 51.408-29.225 23.19-23.054 34.651-52.434 33.136-84.942-2.298-49.286-36.167-90.654-84.544-103.266-12.081-3.149-34.471-4.07-45.935-1.89m7.265 31.5c-18.095 2.969-33.099 10.776-45.603 23.728-15.469 16.024-22.206 32.751-22.289 55.339-.053 14.374 1.987 23.371 8.031 35.413 7.541 15.026 19.761 27.492 34.321 35.012 31.116 16.071 66.569 11.165 91.678-12.686 32.097-30.489 33.703-79.959 3.632-111.836-10.92-11.576-22.602-18.738-37.323-22.884-8.303-2.338-24.547-3.382-32.447-2.086m-87 223.73C95.713 296.899 47.935 340.482 34.9 400.5c-2.847 13.111-3.592 32.333-1.558 40.225 4.9 19.018 18.634 32.908 37.361 37.786 8.691 2.264 361.972 2.246 370.666-.019 18.763-4.887 32.367-18.665 37.289-37.767 1.253-4.862 1.472-8.962 1-18.725-2.826-58.482-42.112-109.457-98.221-127.444-19.267-6.177-13.812-5.903-121.937-6.107-54.45-.102-100.35-.006-102 .214m5 31.993c-26.705 3.171-49.579 14.297-67.265 32.719-18.1 18.854-27.646 39.482-30.453 65.808-.876 8.217-.861 11.611.066 14.705 1.592 5.313 5.632 9.971 10.611 12.232 3.872 1.759 11.44 1.836 180.541 1.836s176.669-.077 180.541-1.836c4.979-2.261 9.019-6.919 10.611-12.232.927-3.094.942-6.488.066-14.705-1.49-13.978-4.355-24.568-9.715-35.917-16.205-34.312-47.881-57.367-85.503-62.234-6.885-.891-182.236-1.239-189.5-.376"/></svg>