<svg xmlns="http://www.w3.org/2000/svg" viewBox="0 0 512 512"><path fill-rule="evenodd" d="M235.5 1.042c-31.087 4.827-57.326 18.457-79.034 41.054-17.945 18.681-29.564 40.802-35.141 66.904-2.827 13.229-2.573 40.132.51 54 6.045 27.19 18.559 49.436 38.853 69.071 18.894 18.278 40.571 29.721 67.352 35.554 13.148 2.864 40.041 2.634 53.96-.46 27.422-6.096 50.014-18.921 69.811-39.628 17.936-18.762 29.014-39.95 34.817-66.59 2.593-11.905 2.593-39.989 0-51.894-5.92-27.178-17.157-48.39-35.832-67.639-19.141-19.728-40.491-31.9-66.796-38.08-11.806-2.773-37.559-3.991-48.5-2.292m8.5 39.536c-1.375.245-5.2.932-8.5 1.528-20.542 3.705-41.787 16.58-55.352 33.545-7.824 9.784-15.41 25.061-18.3 36.849-2.617 10.675-3.1 31.306-.96 41 7.659 34.705 31.923 61.554 64.997 71.924 49.712 15.585 102.879-12.361 118.539-62.309 16.45-52.47-15.368-107.738-69.424-120.591-6.498-1.545-26.282-2.787-31-1.946m-24 270.531c-34.272 3.88-68.894 18.97-96.5 42.059-35.256 29.487-58.357 72.839-63.433 119.043-1.766 16.074-1.43 23.787 1.26 28.882 7.08 13.411 25.334 14.543 34.09 2.113 2.673-3.796 2.987-5.165 3.767-16.424 2.7-38.983 15.879-68.866 41.805-94.793 20.338-20.337 43.518-32.903 72.323-39.205 9.373-2.051 12.788-2.23 42.688-2.23 36.033 0 42.485.792 61.688 7.568 41.172 14.528 74.083 47.969 87.811 89.227 4.181 12.564 6.215 23.528 7.317 39.433.78 11.259 1.094 12.628 3.767 16.424 8.756 12.43 27.01 11.298 34.09-2.113 2.69-5.095 3.026-12.808 1.26-28.882-9.291-84.567-76.542-151.717-161.433-161.19-10.655-1.189-59.764-1.128-70.5.088"/></svg>