<svg xmlns="http://www.w3.org/2000/svg" viewBox="0 0 512 512"><path fill-rule="evenodd" d="M89.5 33.356c-3.704 1.715-7.025 5.243-8.433 8.959C80.46 43.916 80 52.624 80 62.504v17.375l-18.93.31c-20.711.34-21.562.571-26.508 7.196-2.891 3.872-2.891 13.358 0 17.23 4.944 6.622 5.803 6.856 26.448 7.195l18.87.31.31 18.87c.339 20.645.573 21.504 7.195 26.448 3.872 2.891 13.358 2.891 17.23 0 6.622-4.944 6.856-5.803 7.195-26.448l.31-18.87 18.87-.31c20.645-.339 21.504-.573 26.448-7.195 2.891-3.872 2.891-13.358 0-17.23-4.944-6.622-5.803-6.856-26.448-7.195l-18.87-.31-.31-18.87c-.338-20.572-.591-21.517-7.047-26.338-3.314-2.474-11.278-3.161-15.263-1.316m166 32.24c-38.774 8.644-65.329 43.257-63.186 82.358.69 12.589 2.502 19.796 7.699 30.624 9.985 20.802 29.336 36.838 51.987 43.082 8.956 2.469 30.844 2.452 40-.03 22.514-6.103 41.989-22.231 51.989-43.052 6.077-12.655 7.45-19.025 7.45-34.578 0-15.553-1.373-21.923-7.45-34.578-9.905-20.625-29.43-36.902-51.489-42.924-8.694-2.373-28.261-2.85-37-.902m4.419 32.237c-18.017 4.703-31.953 20.151-35.107 38.917-5.241 31.177 23.316 59.725 54.438 54.422 10.649-1.815 18.759-5.995 26.343-13.579 18.524-18.524 18.999-46.878 1.109-66.201-11.969-12.929-29.611-18.042-46.783-13.559M185.45 257.442c-33.997 6.269-61.527 26.907-76.112 57.058-3.853 7.964-21.505 62.474-24.428 75.431-1.718 7.616-1.191 24.703 1.029 33.356 5.45 21.241 21.099 40.207 40.724 49.354 15.767 7.35 5.156 6.814 141.059 7.121 132.378.3 128.557.436 142.235-5.089 22.867-9.236 39.428-28.189 45.589-52.173 2.39-9.305 2.42-26.638.061-35.362-5.82-21.529-20.28-65.813-23.873-73.116-13.258-26.949-37.641-46.618-68.5-55.259-7.608-2.13-9.061-2.169-89.234-2.393-63.398-.178-83.066.061-88.55 1.072m5.788 31.648c-15.114 2.576-28.072 9.528-39.848 21.379-10.982 11.052-14.192 17.881-25.627 54.531-9.117 29.223-9.204 29.599-9.233 40-.028 9.771.192 10.969 3.171 17.259 3.781 7.981 11.36 16.368 18.113 20.043C148.661 448.206 143.861 448 270.5 448c126.672 0 121.835.208 132.71-5.711 7.004-3.812 14.365-11.638 18.073-19.215 3.067-6.268 3.215-7.11 3.173-18.074l-.043-11.5-8.721-27.75c-4.797-15.262-9.609-30.001-10.693-32.753-5.726-14.525-19.92-29.805-34.188-36.801-16.316-8-10.982-7.572-97.311-7.8-42.35-.111-79.368.201-82.262.694"/></svg>