<svg xmlns="http://www.w3.org/2000/svg" viewBox="0 0 512 512"><path fill-rule="evenodd" d="M121.45 65.401c-4.025 1.761-8.228 6.869-8.951 10.878-.319 1.772-.449 40.651-.289 86.398.287 82.221.314 83.209 2.352 85.938 1.134 1.519 3.304 3.689 4.823 4.823 2.757 2.059 2.984 2.062 136.615 2.062s133.858-.003 136.615-2.062c1.519-1.134 3.689-3.304 4.823-4.823 2.045-2.739 2.062-3.464 2.062-88.615s-.017-85.876-2.062-88.615c-1.134-1.519-3.304-3.689-4.823-4.823-2.753-2.056-3.163-2.063-135.438-2.279-108.776-.177-133.226.024-135.727 1.118M144 160v64h224V96H144v64m98.238 129.042c-17.182 3.085-35.905 13.692-46.46 26.319-8.35 9.989-15.583 23.754-17.305 32.929l-.689 3.677-83.819.266c-82.888.264-83.85.29-86.58 2.329C2.137 358.48.5 361.676.5 368c0 6.324 1.637 9.52 6.885 13.438 2.73 2.039 3.692 2.065 86.58 2.329l83.819.266.689 3.677c2.957 15.759 17.632 36.528 33.036 46.752 14.329 9.511 26.128 12.944 44.491 12.944s30.162-3.433 44.491-12.944c15.411-10.229 30.079-30.993 33.039-46.769l.693-3.693h82.323c55.884 0 83.228-.343 85.139-1.067 3.894-1.475 7.153-4.721 9.406-9.371 2.013-4.153 2.644-11.134.909-10.062-.55.34-1-.049-1-.864 0-2.337-5.084-7.773-8.671-9.272-2.668-1.115-18.337-1.364-85.686-1.364h-82.42l-.693-3.693c-1.169-6.227-5.574-16.117-10.628-23.859-10.764-16.489-27.558-28.75-46.438-33.901-7.157-1.953-26.897-2.821-34.226-1.505M248 320.983c-17.55 3.32-31.129 14.962-37.222 31.911-2.803 7.798-2.803 22.414 0 30.212 5.15 14.326 15.75 24.96 29.973 30.067 8.015 2.877 22.483 2.877 30.498 0 14.223-5.107 24.823-15.741 29.973-30.067 2.827-7.866 2.804-22.409-.049-30.355-5.085-14.161-15.955-25.031-29.79-29.791-6.456-2.222-17.262-3.135-23.383-1.977M.272 368c0 2.475.195 3.488.434 2.25.238-1.238.238-3.262 0-4.5-.239-1.238-.434-.225-.434 2.25"/></svg>