<svg xmlns="http://www.w3.org/2000/svg" viewBox="0 0 512 512"><path fill-rule="evenodd" d="M100.112 1.517C82.315 6.513 70.048 19.706 64.331 40 62.583 46.206 62.5 55.993 62.5 256.5c0 200.354.084 210.299 1.827 216.5 5.784 20.57 18.894 34.188 36.472 37.885 11.607 2.442 24.538.486 41.008-6.2 9.676-3.929 18.59-10.005 145.5-99.178 144.534-101.556 145.78-102.499 153.975-116.531 6.259-10.717 8.225-18.528 8.174-32.476-.038-10.471-.387-12.942-2.739-19.394-4.689-12.861-11.45-22.32-22.069-30.876C414.645 198.171 152.156 13.897 144.3 9.418c-3.96-2.257-10.26-5.127-14-6.377-8.794-2.939-22.654-3.639-30.188-1.524m5.39 32.998c-4.796 2.597-6.318 4.405-8.731 10.371L94.5 50.5V255c0 193.982.092 204.799 1.797 210.316 1.035 3.349 3.208 7.356 5.122 9.445 3.039 3.315 3.876 3.662 9.703 4.027 5.733.358 7.003.061 12.558-2.945 11.232-6.075 274.311-191.898 280.815-198.35 3.331-3.304 7.075-8.174 8.319-10.821 2.586-5.501 3.06-13.451 1.154-19.346-1.641-5.078-6.954-12.264-12.21-16.517-9.456-7.651-274.162-193.1-278.135-194.858-6.313-2.792-14.428-3.435-18.121-1.436"/></svg>