<svg xmlns="http://www.w3.org/2000/svg" viewBox="0 0 512 512"><path fill-rule="evenodd" d="M230.5 1.052C171.833 7.057 116.934 33.2 75.067 75.067c-39.586 39.585-63.335 86.95-72.778 145.146-2.351 14.491-2.351 57.083 0 71.574 9.443 58.196 33.192 105.561 72.778 145.146 39.585 39.586 86.95 63.335 145.146 72.778 14.491 2.351 57.083 2.351 71.574 0 58.196-9.443 105.561-33.192 145.146-72.778 39.452-39.451 64.139-88.644 72.576-144.621.814-5.396 1.482-11.923 1.485-14.503.003-2.58.456-4.969 1.006-5.309.603-.373 1-7.363 1-17.618 0-9.35-.384-16.763-.853-16.473-.468.29-1.135-3.396-1.48-8.191-.345-4.795-1.537-13.647-2.649-19.672-9.618-52.111-33.795-98.19-71.085-135.479-39.447-39.448-87.71-63.689-144.621-72.641C280.516.571 243.285-.257 230.5 1.052m8.302 51.053c-29.524 2.272-61.567 12.701-88.258 28.725-28.139 16.894-52.82 41.575-69.714 69.714-48.536 80.846-35.959 183.306 30.681 249.945 66.639 66.64 169.099 79.217 249.945 30.681 28.139-16.894 52.82-41.575 69.714-69.714 48.536-80.846 35.959-183.306-30.681-249.945C365.508 76.529 320.343 55.783 271 52.031c-14.845-1.128-16.625-1.124-32.198.074m-.302 76.989c-30.217 5.257-53.15 16.737-72.909 36.497-35.205 35.204-46.747 86.731-29.978 133.823 12.442 34.938 42.035 64.531 76.973 76.973 47.092 16.769 98.619 5.227 133.823-29.978 35.205-35.204 46.747-86.731 29.978-133.823-13.827-38.828-47.978-70.016-88.227-80.573-14.037-3.682-37.388-5.055-49.66-2.919M.411 256c0 9.625.15 13.563.334 8.75.183-4.812.183-12.688 0-17.5-.184-4.812-.334-.875-.334 8.75"/></svg>