<svg xmlns="http://www.w3.org/2000/svg" viewBox="0 0 512 512"><path fill-rule="evenodd" d="M73.131 189.541c-30.31 6.577-53.096 35.098-53.096 66.459 0 19.903 9.756 40.659 24.685 52.513 35.276 28.013 85.54 16.496 104.93-24.042 10.976-22.948 7.387-51.062-9.15-71.662-8.742-10.889-24.221-20.373-38.029-23.298-8.584-1.818-20.88-1.806-29.34.03m168 0c-30.31 6.577-53.096 35.098-53.096 66.459 0 19.903 9.756 40.659 24.685 52.513 35.276 28.013 85.54 16.496 104.93-24.042 10.976-22.948 7.387-51.062-9.15-71.662-8.742-10.889-24.221-20.373-38.029-23.298-8.584-1.818-20.88-1.806-29.34.03m168 0c-30.31 6.577-53.096 35.098-53.096 66.459 0 19.903 9.756 40.659 24.685 52.513 35.276 28.013 85.54 16.496 104.93-24.042 10.976-22.948 7.387-51.062-9.15-71.662-8.742-10.889-24.221-20.373-38.029-23.298-8.584-1.818-20.88-1.806-29.34.03M77.105 213.583c-21.655 5.823-36.044 27.632-32.372 49.065 4.081 23.826 26.176 40.198 49.398 36.603 19.326-2.991 34.129-17.794 37.12-37.12 4.698-30.351-24.491-56.523-54.146-48.548m168 0c-21.655 5.823-36.044 27.632-32.372 49.065 4.081 23.826 26.176 40.198 49.398 36.603 19.326-2.991 34.129-17.794 37.12-37.12 4.698-30.351-24.491-56.523-54.146-48.548m168 0c-21.655 5.823-36.044 27.632-32.372 49.065 4.081 23.826 26.176 40.198 49.398 36.603 19.326-2.991 34.129-17.794 37.12-37.12 4.698-30.351-24.491-56.523-54.146-48.548"/></svg>