<svg xmlns="http://www.w3.org/2000/svg" viewBox="0 0 512 512"><path fill-rule="evenodd" d="M232.5 1.054c-48.524 5.004-92.433 22.121-131.412 51.231-5.273 3.938-16.8 14.372-25.616 23.187C52.495 98.45 40.254 115.447 26.481 143.5c-12.245 24.939-19.41 47.647-23.668 75-3.12 20.049-3.12 54.951 0 75 4.258 27.353 11.423 50.061 23.668 75 13.773 28.053 26.014 45.05 48.991 68.028 22.978 22.977 39.975 35.218 68.028 48.991 17.93 8.803 29.609 13.197 47.807 17.984 34.129 8.979 73.961 10.766 108.693 4.876 71.931-12.197 136.639-56.531 175.169-120.014 18-29.657 30.112-63.883 34.28-96.865.904-7.15 2.111-15.925 2.683-19.5 2.476-15.486-1.261-51.64-8.122-78.565-4.942-19.395-9.378-31.375-18.491-49.935-13.773-28.053-26.014-45.05-48.991-68.028-22.978-22.977-39.975-35.218-68.028-48.991-24.882-12.217-48.153-19.559-74.691-23.565C278.405.591 246.415-.381 232.5 1.054m40.013 159.934c-34.09 33.006-62.213 60.008-62.497 60.003-.284-.004-17.115-12.604-37.402-28C152.326 177.596 135.333 165 134.85 165c-.482 0-7.24 3.188-15.018 7.084l-14.142 7.084.655 18.077c.36 9.941.655 43.774.655 75.182v57.107l13.509 6.733c7.431 3.703 13.972 6.733 14.537 6.733.566 0 17.629-12.6 37.919-28 20.289-15.4 37.171-28 37.515-28 .343 0 28.35 26.887 62.237 59.75 34.991 33.932 62.299 59.664 63.198 59.551.872-.109 16.885-6.409 35.585-14 33.205-13.478 33.999-13.865 33.938-16.551-.035-1.512-.147-57.579-.25-124.592L405 129.316l-33.75-13.617c-18.562-7.49-34.426-13.867-35.253-14.171-1.015-.373-21.655 18.959-63.484 59.46M291.5 227.54c-18.7 13.986-34 25.833-34 26.325 0 1.059 68.117 52.135 69.53 52.135.614 0 .97-19.085.97-52 0-40.962-.265-51.988-1.25-51.945-.687.03-16.55 11.498-35.25 25.485M142 253.917c0 17.095.338 31.083.752 31.083s8.504-6.944 17.978-15.43l17.225-15.431-16.99-15.319c-9.345-8.426-17.435-15.47-17.978-15.653-.635-.215-.987 10.736-.987 30.75M.402 256c0 8.525.154 12.012.341 7.75.188-4.262.188-11.238 0-15.5-.187-4.262-.341-.775-.341 7.75"/></svg>