<svg xmlns="http://www.w3.org/2000/svg" viewBox="0 0 512 512"><path fill-rule="evenodd" d="M171 69.82c-7.769 2.584-28.599 14.768-34.259 20.038-5.667 5.278-10.319 14.222-11.946 22.966-1.58 8.501-.096 16.77 4.743 26.426l3.761 7.504-8.007 10.664c-8.533 11.364-16.714 26.025-21.809 39.082l-3.121 8-9.589.567c-8.105.48-10.604 1.068-16.149 3.797-11.198 5.513-19.044 14.967-22.072 26.596-2.129 8.175-2.129 32.905 0 41.08 3.028 11.629 10.874 21.083 22.072 26.596 5.545 2.729 8.044 3.317 16.149 3.797l9.589.567 3.121 8c5.095 13.057 13.276 27.718 21.809 39.082l8.007 10.664-3.761 7.504c-4.839 9.656-6.323 17.925-4.743 26.426 1.626 8.739 6.279 17.687 11.946 22.971 6.067 5.656 27.946 18.159 35.68 20.388 7.498 2.161 17.865 1.562 25.864-1.494 7.133-2.726 16.731-11.328 20.92-18.75 1.642-2.91 3.505-5.287 4.14-5.283.635.005 6.105.671 12.155 1.481 13.962 1.868 27.038 1.868 41 0 6.05-.81 11.52-1.476 12.155-1.481.635-.004 2.498 2.373 4.14 5.283 4.184 7.413 13.785 16.022 20.92 18.757 8.499 3.258 19.217 3.693 26.904 1.09 6.61-2.237 27.306-13.803 32.792-18.325 8.048-6.634 13.762-19.302 13.807-30.61.034-8.405-1.456-14.031-5.775-21.82l-3.393-6.118 5.143-6.382c10.6-13.157 19.217-27.933 25.297-43.383l3.148-8 9.589-.567c8.105-.48 10.604-1.068 16.149-3.797 11.198-5.513 19.044-14.967 22.072-26.596 2.129-8.175 2.129-32.905 0-41.08-3.072-11.797-10.721-21.007-22.095-26.607-5.52-2.717-8.029-3.306-16.126-3.786l-9.589-.567-3.121-8c-5.091-13.046-13.274-27.715-21.783-39.047l-7.981-10.63 4.143-8.719c5.12-10.774 6.143-18.499 3.709-28.001-2.186-8.533-5.973-15.241-11.527-20.419-5.702-5.316-27.727-17.956-35.01-20.091-14.541-4.264-31.186.62-41.729 12.244-1.328 1.465-3.791 5.025-5.473 7.913-1.681 2.888-3.576 5.246-4.211 5.242-.635-.005-6.105-.671-12.155-1.481-13.962-1.868-27.038-1.868-41 0-6.05.81-11.52 1.476-12.155 1.481-.635.004-2.498-2.373-4.14-5.283-4.179-7.405-13.784-16.02-20.92-18.764-7.99-3.072-19.949-3.565-27.285-1.125m5 19.902c-3.71 1.394-22.774 12.782-25.232 15.073-3.954 3.684-6.115 10.077-5.553 16.429.359 4.054 1.799 7.635 6.219 15.465 7.001 12.402 6.92 13.582-1.598 23.116-12.332 13.805-22.827 32.166-29.249 51.173-4.617 13.662-5.028 13.971-18.655 14-12.832.027-19.291 1.732-23.659 6.245C72.875 236.8 72 240.293 72 256.256c0 12.879.226 14.763 2.25 18.724 1.237 2.422 3.969 5.772 6.069 7.443 3.733 2.97 4.136 3.053 17.82 3.65 16.948.74 17.395 1.035 21.98 14.485 6.638 19.473 15.422 34.739 29.054 50.49 9.332 10.784 9.453 12.41 1.898 25.651-5.752 10.082-6.863 14.648-5.13 21.083 1.628 6.043 5.755 10.217 15.885 16.063 16.119 9.303 20.014 10.448 27.275 8.017 6.001-2.009 9.67-5.671 15.346-15.316 3.053-5.187 6.551-10.132 7.774-10.989 2.918-2.043 5.012-1.971 17.122.594 14.559 3.084 38.893 3.054 53.643-.067 15.977-3.38 17.041-2.892 25.433 11.648 7.121 12.341 12.595 15.935 22.943 15.065 4.017-.338 7.538-1.808 16.138-6.739 13.046-7.48 15.92-9.972 18.108-15.702 2.797-7.324 1.598-13.284-5.042-25.045-7.001-12.402-6.92-13.582 1.598-23.116 12.357-13.833 23.281-32.926 28.979-50.652 4.48-13.937 5.264-14.543 18.822-14.543 16.99 0 24.407-3.442 28.484-13.218 2.197-5.266 2.197-30.298 0-35.564C434.413 228.54 426.915 225 410.453 225c-13.298 0-14.167-.647-18.469-13.75-5.821-17.725-15.671-35.148-27.474-48.598-10.308-11.744-10.985-13.488-7.647-19.691 8.893-16.524 10.137-19.33 10.137-22.866 0-4.518-1.594-9.573-4.199-13.314-1.835-2.635-16.766-12.045-25.166-15.859-8.069-3.664-18.401-1.555-23.798 4.859-1.419 1.687-4.274 6.138-6.344 9.893-6.677 12.105-9.497 13.649-20.055 10.973-17.062-4.323-41.941-4.583-60.438-.632-14.239 3.043-15.143 2.594-23.318-11.576-5.275-9.143-7.641-11.688-12.914-13.891-3.605-1.507-11.746-1.962-14.768-.826m62.113 75.823c-9.947 2.158-15.912 4.324-25.129 9.126-21.754 11.333-38.09 31.341-45.625 55.878-2.526 8.224-2.749 10.29-2.749 25.451 0 15.097.23 17.248 2.704 25.297 4.834 15.723 12.53 28.684 23.618 39.771 11.087 11.088 24.048 18.784 39.771 23.618 8.049 2.474 10.2 2.704 25.297 2.704 15.161 0 17.227-.223 25.451-2.749 38.532-11.833 64.489-44.684 66.285-83.891.857-18.702-2.279-32.806-10.815-48.637-13.169-24.425-37.836-42.188-65.355-47.062-8.142-1.442-25.726-1.183-33.453.494M248.5 185.07c-9.591.958-14.645 2.421-24 6.945-19.142 9.258-33.228 26.883-38.093 47.666-2.06 8.802-2.043 23.906.038 32.819 6.031 25.829 27.329 47.07 53.218 53.074 8.841 2.05 23.969 2.039 32.837-.025 25.871-6.02 47.021-27.228 53.088-53.23 2.025-8.682 2.019-23.891-.014-32.656-8.085-34.861-41.027-58.194-77.074-54.593"/></svg>