<svg xmlns="http://www.w3.org/2000/svg" viewBox="0 0 512 512"><path fill-rule="evenodd" d="M149.256 92.997c-2.533 1.054-6.247 6.58-6.252 9.303-.007 3.11 2.913 7.606 5.963 9.183 2.373 1.227 7.335 1.517 25.968 1.517h23.033l3.266 2.918 3.266 2.918v274.328l-3.266 2.918-3.266 2.918-23.234.004c-20.967.003-23.534.187-26.314 1.881-3.602 2.197-5.908 7.036-5.026 10.548.341 1.36 1.703 3.731 3.027 5.27l2.407 2.797h26.836c26.376 0 26.92-.042 31.759-2.423 5.938-2.923 11.681-8.471 14.786-14.286l2.291-4.291v-285l-2.291-4.291c-3.105-5.815-8.848-11.363-14.786-14.286-4.777-2.351-5.682-2.429-30.423-2.641-14.091-.121-26.504.199-27.744.715M308 93.525c-6.587 2.1-13.818 8.116-17.401 14.475l-3.099 5.5v285l2.291 4.291c3.105 5.815 8.848 11.363 14.786 14.286 4.839 2.381 5.383 2.423 31.759 2.423h26.836l2.407-2.797c1.324-1.539 2.686-3.91 3.027-5.27.882-3.512-1.424-8.351-5.026-10.548-2.78-1.694-5.347-1.878-26.314-1.881L314.032 399l-3.266-2.918-3.266-2.918V118.836l3.266-2.918 3.266-2.918 23.234-.004c20.967-.003 23.534-.187 26.314-1.881 3.602-2.197 5.908-7.036 5.026-10.548-.341-1.36-1.702-3.731-3.025-5.27l-2.405-2.797-25.338-.205c-19.704-.159-26.339.115-29.838 1.23"/></svg>