<svg xmlns="http://www.w3.org/2000/svg" viewBox="0 0 512 512"><path fill-rule="evenodd" d="M65.258 1.108C40.2 5.284 16.005 24.605 6.147 48.309-.424 64.111-.085 51.978.234 259.5l.288 188 2.304 7.566c6.387 20.978 21.449 38.895 40.674 48.384 17.788 8.78-2.71 7.962 208 8.303 127.026.206 189.191-.034 193.83-.747 31.23-4.798 58.71-30.516 64.653-60.506.654-3.3 1.601-6.781 2.103-7.736 1.126-2.139 1.253-375.092.128-374.396-.432.267-1.347-2.474-2.033-6.091-5.72-30.154-33.015-56.15-64.28-61.223-7.954-1.291-372.887-1.239-380.643.054M67.5 24.017c-20.809 4.148-39.147 22.224-43.403 42.782-1.548 7.48-1.548 370.922 0 378.402 3.112 15.031 15.466 31.108 28.903 37.61C66.203 489.2 62.795 489 158.21 489H245V23l-86.75.11c-47.713.06-88.55.468-90.75.907M268 256v233.062l88.75-.281 88.75-.281 6.515-2.541c18.202-7.097 32.214-23.012 35.888-40.758 1.548-7.48 1.548-370.922 0-378.402-3.674-17.746-17.686-33.661-35.888-40.758L445.5 23.5l-88.75-.281-88.75-.281V256M.49 256c0 103.125.117 145.313.26 93.75.143-51.562.143-135.937 0-187.5C.607 110.688.49 152.875.49 256"/></svg>