<svg xmlns="http://www.w3.org/2000/svg" viewBox="0 0 512 512"><path fill-rule="evenodd" d="M65.5 1.06c-5.994 1.01-16.48 4.437-22 7.189C29.592 15.184 15.461 29.375 8.646 43.25-.289 61.442.5 40.839.5 256c0 215.192-.792 194.552 8.164 212.787 9.857 20.069 29.333 35.336 52.836 41.419 7.357 1.904 381.643 1.904 389 0 16.468-4.262 29.099-11.748 40.791-24.177 8.811-9.367 15.714-22.209 18.289-34.029.899-4.125 2.036-8.281 2.527-9.236 1.286-2.501 1.179-375.059-.107-374.264-.55.34-1-.356-1-1.547 0-4.628-3.304-14.863-7.664-23.74-3.401-6.923-6.466-11.312-12.045-17.242C479.915 13.879 469.903 7.804 451.5 1.829 448.285.785 410.518.499 259 .374 155.325.288 68.25.597 65.5 1.06m1.134 22.094c-10.838 2.074-24.517 10.464-31.953 19.6-4.726 5.805-10.071 16.916-11.568 24.045-.794 3.782-1.109 58.046-1.098 189.5.016 202.734-.379 189.819 6.222 203.407 4.338 8.929 14.949 19.661 23.763 24.033C65.029 490.203 61.598 490 157.71 490H245V22l-86.75.112c-48.849.063-88.876.518-91.616 1.042M.49 256c0 103.125.117 145.313.26 93.75.143-51.562.143-135.937 0-187.5C.607 110.688.49 152.875.49 256"/></svg>