<svg xmlns="http://www.w3.org/2000/svg" viewBox="0 0 512 512"><path fill-rule="evenodd" d="M51 .68c-5.479.923-15.794 4.652-21 7.591C22.939 12.259 12.25 22.951 8.278 30c-1.704 3.025-4.137 8.425-5.406 12C.605 48.388.559 49.333.229 96.75L-.106 145H39.905l.298-45.25c.319-48.589.164-47.141 5.669-53.089 6.075-6.564-.58-6.133 99.378-6.436l90.75-.276v432.102l-90.75-.276c-99.958-.303-93.303.128-99.378-6.436-5.508-5.951-5.35-4.458-5.669-53.589L39.906 366H-.105l.334 48.75c.329 47.945.373 48.857 2.642 55.25 3.526 9.932 7.862 16.856 15.068 24.061 7.435 7.435 14.401 11.72 24.561 15.106l7 2.333h413l7-2.333c10.395-3.464 17.19-7.7 25.014-15.592 7.7-7.767 13.35-17.825 15.491-27.575.665-3.025 1.61-6.281 2.102-7.236.491-.955.893-22.33.894-47.5l.001-45.764-20.454.289-20.454.289-.297 45.711c-.325 50.089-.135 48.487-6.458 54.339-6.121 5.665-.617 5.35-98.589 5.647l-90.75.276V39.949l90.75.276c97.972.297 92.468-.018 98.589 5.647 6.318 5.848 6.133 4.296 6.458 53.899l.298 45.27 20.202-.27 20.203-.271.26-46.315c.174-30.994-.074-46.109-.75-45.691-.573.354-1.01-.413-1.01-1.77 0-3.692-3.837-14.616-7.278-20.724-3.975-7.055-14.667-17.747-21.722-21.722-3.025-1.704-8.425-4.152-12-5.439L463.5.5l-205-.121C145.75.313 52.375.448 51 .68M.461 99c0 25.575.13 36.038.288 23.25.158-12.787.158-33.712 0-46.5C.591 62.963.461 73.425.461 99m50.071 105.968-50.96 50.967 47.902 48.283c26.346 26.555 49.365 49.823 51.154 51.706l3.253 3.424 14.258-14.067 14.259-14.067-26.8-27.357-26.8-27.357 58.601-.258 58.601-.258V236H76.514l26.983-26.997 26.983-26.997-13.977-14.003C108.816 160.301 102.294 154 102.01 154c-.285 0-23.45 22.935-51.478 50.968m344.965-36.965-13.977 14.003 26.983 26.997L435.486 236H318v39.984l58.601.258 58.601.258-26.8 27.357-26.8 27.357 14.259 14.067 14.258 14.067 3.253-3.424c1.789-1.883 24.808-25.151 51.154-51.706l47.902-48.283-50.96-50.967C433.44 176.935 410.275 154 409.99 154c-.284 0-6.806 6.301-14.493 14.003M.462 412.5c-.001 25.85.129 36.568.287 23.819.158-12.75.158-33.9 0-47C.591 376.218.462 386.65.462 412.5"/></svg>