<svg xmlns="http://www.w3.org/2000/svg" viewBox="0 0 512 512"><path fill-rule="evenodd" d="M241 1.432c-26.305 5.56-47.195 24.137-56.115 49.901l-2.827 8.167-58.279.51c-52.647.461-58.71.681-62.736 2.279-14.125 5.605-24.905 17.399-28.491 31.171-2.273 8.728-2.222 43.327.071 48.159 2.987 6.293 6.474 7.837 18.566 8.218l10.689.337.579 5.163c.319 2.84 6.419 75.935 13.558 162.434 14.003 169.695 13.362 164.105 19.929 173.646 3.751 5.45 11.858 12.932 16.664 15.38 10.681 5.44 4.138 5.203 143.484 5.203 123.279 0 128.986-.08 134.783-1.884 8.341-2.596 13.759-5.978 19.787-12.353 5.362-5.668 9.33-12.474 11.233-19.263.616-2.2 6.958-74.65 14.092-161 7.133-86.35 13.232-159.323 13.553-162.163l.582-5.163 10.689-.337c9.129-.288 11.145-.663 13.816-2.567 6.074-4.333 6.584-6.909 6.161-31.097-.34-19.46-.603-22.235-2.576-27.173-4.427-11.078-14.993-21.757-25.868-26.143L446.5 60.5l-58.305-.5-58.304-.5-2.513-7.5C319.293 27.874 299.524 9.001 275.5 2.473 267.296.243 249.204-.303 241 1.432m6.108 29.65c-12.056 2.367-25.127 12.101-30.507 22.718-1.43 2.824-2.601 5.373-2.601 5.667 0 .293 18.9.533 42 .533s42-.24 42-.533c0-2.321-6.192-11.79-10.577-16.175-10.422-10.422-25.763-15.068-40.315-12.21M69.301 92.08C63.178 95.111 61 100.157 61 111.316V120h390v-8.684c0-11.227-2.19-16.261-8.376-19.256-4.249-2.057-4.524-2.06-186.69-2.059L73.5 90.002l-4.199 2.078m23.432 61.17c.182 1.787 6.181 74.108 13.331 160.712 14.312 173.36 12.838 161.436 20.492 165.771l3.944 2.234h251l3.944-2.234c7.654-4.335 6.18 7.589 20.492-165.771 7.15-86.604 13.149-158.925 13.331-160.712l.331-3.25H92.402l.331 3.25m66.485 58.356c-1.805.921-4.28 3.074-5.5 4.784l-2.218 3.11-.265 95.318c-.293 105.576-.644 99.614 6.138 104.452 4.364 3.112 12.89 3.112 17.254 0 6.726-4.798 6.373.919 6.373-103.27 0-103.992.333-98.49-6.251-103.179-3.975-2.83-11.249-3.399-15.531-1.215m90 0c-1.805.921-4.28 3.074-5.5 4.784l-2.218 3.11-.265 95.318c-.293 105.576-.644 99.614 6.138 104.452 4.364 3.112 12.89 3.112 17.254 0 6.726-4.798 6.373.919 6.373-103.27 0-103.992.333-98.49-6.251-103.179-3.975-2.83-11.249-3.399-15.531-1.215m90 0c-1.805.921-4.28 3.074-5.5 4.784l-2.218 3.11-.265 95.318c-.293 105.576-.644 99.614 6.138 104.452 4.364 3.112 12.89 3.112 17.254 0 6.726-4.798 6.373.919 6.373-103.27 0-103.992.333-98.49-6.251-103.179-3.975-2.83-11.249-3.399-15.531-1.215"/></svg>