<svg xmlns="http://www.w3.org/2000/svg" viewBox="0 0 512 512"><path fill-rule="evenodd" d="M203.365 1.48c-8.698 2.79-14.728 7.346-19.764 14.934C178.546 24.03 177 31.007 177 46.21V59h-69.132c-68.448 0-69.166.021-72.524 2.097C31.17 63.676 29 67.674 29 72.784c0 5.257 4.899 10.976 10.5 12.255 5.332 1.217 427.668 1.217 433 0 5.601-1.279 10.5-6.998 10.5-12.255 0-5.11-2.17-9.108-6.344-11.687-3.358-2.076-4.078-2.097-72.434-2.097h-69.043l-.339-15.25c-.328-14.721-.45-15.482-3.514-21.951-3.894-8.219-10.045-14.542-17.888-18.388L307.5.5l-50-.173c-39.177-.136-50.895.114-54.135 1.153m7.013 25.957C204.725 29.898 204 32.032 204 46.223V59h104V46.135c0-14.695-1.029-17.216-7.795-19.095-5.978-1.66-85.912-1.307-89.827.397m-127 118C78.981 147.351 77 150.651 77 156.063c0 4.568 33.529 298.903 34.614 303.866 5.488 25.087 25.618 45.494 49.886 50.572 10.326 2.16 184.628 2.179 194.815.02 23.642-5.009 43.347-24.47 49.131-48.521C406.916 455.888 435 164.806 435 155.685c0-5.114-2.119-8.419-6.599-10.291-4.915-2.054-340.301-2.012-345.023.043M105 172.795c0 .987 7.399 65.264 16.443 142.837 11.448 98.194 16.968 142.383 18.171 145.455 5.498 14.036 16.146 22.101 31.686 23.999 5.083.621 40.513.882 93.2.686 76.391-.284 85.497-.485 89.904-1.992 10.501-3.591 19.862-12.591 23.692-22.78 1.727-4.595 4.273-28.524 15.484-145.5 7.379-77 13.418-141.012 13.418-142.25L407 171H256c-144.579 0-151 .076-151 1.795"/></svg>