<svg xmlns="http://www.w3.org/2000/svg" viewBox="0 0 512 512"><path fill-rule="evenodd" d="M155.882 38.371c-6.062 2.183-10.769 5.601-13.728 9.969-1.55 2.288-11.038 24.744-21.085 49.902-18.258 45.717-18.27 45.743-22.218 47.962-2.172 1.221-4.94 3.812-6.15 5.758-2.013 3.235-2.201 4.821-2.201 18.538 0 18.152.818 20.307 9.874 26 1.254.788 5.505 26.529 20.093 121.675 12.419 80.998 19.16 122.341 20.5 125.741 5.813 14.748 18.034 25.505 33.575 29.553 8.804 2.293 154.112 2.293 162.916 0 15.663-4.08 27.716-14.689 33.575-29.552 1.34-3.401 8.078-44.739 20.496-125.742 14.609-95.291 18.835-120.885 20.094-121.675 9.054-5.68 9.877-7.848 9.877-26 0-13.717-.188-15.303-2.201-18.538-1.21-1.946-3.978-4.537-6.15-5.758-3.949-2.219-3.957-2.238-22.202-47.962-10.22-25.613-19.614-47.673-21.349-50.13-1.837-2.602-5.337-5.655-8.598-7.5l-5.5-3.112-98-.216c-78.43-.173-98.722.044-101.618 1.087m1.618 11.51c-2.2 1.01-4.748 2.688-5.662 3.728-1.267 1.441-18.359 43.117-36.558 89.141-.394.996 28.13 1.25 140.613 1.25 77.609 0 141.107-.119 141.107-.265 0-.146-7.994-20.239-17.765-44.652-21.489-53.691-19.091-50.374-36.822-50.937L331 47.784v25.037c0 26.922-.094 27.43-5.32 28.71-1.199.294-33.604.407-72.011.252-67.799-.275-69.872-.339-71.25-2.224-1.135-1.553-1.419-6.905-1.419-26.75V48l-9.75.022c-7.307.016-10.752.482-13.75 1.859M192 69v21h128V48H192v21m-88.8 87.2c-.66.66-1.2 2.91-1.2 5v3.8h308v-3.8c0-2.09-.54-4.34-1.2-5-1.745-1.745-303.855-1.745-305.6 0m-1.2 23.6c0 2.09.54 4.34 1.2 5 1.745 1.745 303.855 1.745 305.6 0 .66-.66 1.2-2.91 1.2-5V176H102v3.8m11.56 20.95c.28 1.512 8.596 55.4 18.479 119.749 19.508 127.011 18.477 121.903 26.481 131.253 2.299 2.686 6.334 5.549 11.231 7.97l7.643 3.778 74.881.286c46.122.177 76.924-.091 80.202-.697 7.757-1.434 14.372-4.876 19.835-10.321 9.013-8.984 7.822-3.266 27.665-132.857 9.887-64.576 18.15-118.423 18.362-119.661l.384-2.25H113.05l.51 2.75m65.333 18.609c-1.581.784-2.491 2.197-2.681 4.164-.426 4.421 20.617 213.607 21.749 216.199 1.442 3.3 5.724 4.037 8.328 1.434l2.107-2.107-10.82-108.261c-5.951-59.543-11.015-108.768-11.253-109.389-.843-2.197-4.878-3.305-7.43-2.04m73.562 1.096L250 222.909v106.98c0 64.567.374 107.964.943 109.46 1.795 4.721 7.993 4.639 9.965-.132.812-1.966 1.049-32.391.857-110.055l-.265-107.339-2.361-1.911c-3.047-2.468-3.729-2.413-6.684.543m75.853-1.192c-1.205.545-2.388 1.502-2.628 2.128-.24.625-5.305 49.854-11.256 109.397l-10.82 108.261 2.107 2.107c2.448 2.447 6.626 1.952 8.19-.972 1.625-3.036 22.652-217.084 21.504-218.904-1.437-2.278-4.557-3.164-7.097-2.017"/></svg>