<svg xmlns="http://www.w3.org/2000/svg" width="512" height="512" viewBox="0 0 512 512" version="1.1">
       <path
              d="M68.5,108.97C70.7,108.566 156.65,108.295 259.5,108.367L446.5,108.5L452.23,111.314C459.571,114.919 463.546,119.778 466.163,128.349C470.056,141.095 466.987,155.061 458.477,163.325C454.81,166.887 453.392,167.474 442.5,169.937C439.75,170.559 436.403,171.868 435.062,172.846C429.1,177.193 429.893,170.487 420.078,299.5C415.057,365.5 410.267,423.1 409.433,427.5C405.415,448.694 391.435,465.856 373.232,471.939C366.998,474.022 366.347,474.032 254.732,473.767L142.5,473.5L134.597,469.726C120.034,462.773 108.583,448.019 104.54,431C103.611,427.087 99.216,375.574 93.498,301.574C86.088,205.683 83.666,178.139 82.485,176.337C80.454,173.237 74.673,170.411 67.743,169.13C60.277,167.749 56.96,165.94 52.634,160.886C46.618,153.857 44.118,143.38 45.991,133.05C47.482,124.827 49.819,120.299 54.98,115.637C59.52,111.535 62.478,110.077 68.5,108.97" />

       <path
              d="M 198.145 209.016 C 193.58 210.949 189.931 214.213 187.727 218.334 L 185.5 222.5 L 185.5 313.078 L 185.5 403.657 L 188.5 408.501 C 192.725 415.322 198.55 418.34 206.225 417.684 C 213.508 417.061 218.229 414.167 221.759 408.163 L 224.5 403.5 L 224.5 313 L 224.5 222.5 L 222.23 218.251 C 219.03 212.26 213.255 208.69 206.16 208.317 C 203.047 208.153 199.44 208.467 198.145 209.016" />

       <path
              d="M300.5 209.662C296.108 211.977 293.054 215.016 290.903 219.21C289.074 222.777 289.001 226.394 289.022 312.71C289.043 397.868 289.139 402.706 290.89 406.5C297.915 421.722 319.085 421.722 326.11 406.5C327.861 402.705 327.956 397.902 327.956 313C327.956 228.098 327.861 223.295 326.11 219.5C325.095 217.3 323.186 214.509 321.868 213.298C316.332 208.208 306.447 206.526 300.5 209.662" />
</svg>