<svg xmlns="http://www.w3.org/2000/svg" width="512" height="512" viewBox="0 0 512 512" version="1.1">
	<path d="M 218.792 39.378 C 209.835 41.835, 202.587 48.352, 198.202 57.892 C 196.178 62.294, 195.632 65.368, 195.222 74.642 L 194.721 86 256.466 86 L 318.211 86 317.807 74.250 C 317.484 64.827, 316.957 61.492, 315.147 57.408 C 312.334 51.064, 305.069 43.814, 298.500 40.797 C 293.619 38.555, 292.668 38.495, 258.500 38.293 C 232.451 38.140, 222.296 38.417, 218.792 39.378 M 68.500 108.970 C 62.478 110.077, 59.520 111.535, 54.980 115.637 C 49.819 120.299, 47.482 124.827, 45.991 133.050 C 44.118 143.380, 46.618 153.857, 52.634 160.886 C 56.960 165.940, 60.277 167.749, 67.743 169.130 C 74.673 170.411, 80.454 173.237, 82.485 176.337 C 83.666 178.139, 86.088 205.683, 93.498 301.574 C 99.216 375.574, 103.611 427.087, 104.540 431 C 108.583 448.019, 120.034 462.773, 134.597 469.726 L 142.500 473.500 254.732 473.767 C 366.347 474.032, 366.998 474.022, 373.232 471.939 C 391.435 465.856, 405.415 448.694, 409.433 427.500 C 410.267 423.100, 415.057 365.500, 420.078 299.500 C 429.893 170.487, 429.100 177.193, 435.062 172.846 C 436.403 171.868, 439.750 170.559, 442.500 169.937 C 453.392 167.474, 454.810 166.887, 458.477 163.325 C 466.987 155.061, 470.056 141.095, 466.163 128.349 C 463.546 119.778, 459.571 114.919, 452.230 111.314 L 446.500 108.500 259.500 108.367 C 156.650 108.295, 70.700 108.566, 68.500 108.970 M 198.145 209.016 C 193.580 210.949, 189.931 214.213, 187.727 218.334 L 185.500 222.500 185.500 313.078 L 185.500 403.657 188.500 408.501 C 192.725 415.322, 198.550 418.340, 206.225 417.684 C 213.508 417.061, 218.229 414.167, 221.759 408.163 L 224.500 403.500 224.500 313 L 224.500 222.500 222.230 218.251 C 219.030 212.260, 213.255 208.690, 206.160 208.317 C 203.047 208.153, 199.440 208.467, 198.145 209.016 M 300.500 209.662 C 296.108 211.977, 293.054 215.016, 290.903 219.210 C 289.074 222.777, 289.001 226.394, 289.022 312.710 C 289.043 397.868, 289.139 402.706, 290.890 406.500 C 297.915 421.722, 319.085 421.722, 326.110 406.500 C 327.861 402.705, 327.956 397.902, 327.956 313 C 327.956 228.098, 327.861 223.295, 326.110 219.500 C 325.095 217.300, 323.186 214.509, 321.868 213.298 C 316.332 208.208, 306.447 206.526, 300.500 209.662" stroke="none" fill="black" fill-rule="evenodd"/>
</svg>