<?xml version="1.0" encoding="utf-8"?>
<!-- Generator: Adobe Illustrator 25.4.0, SVG Export Plug-In . SVG Version: 6.00 Build 0)  -->
<svg version="1.1" id="Layer_1" xmlns="http://www.w3.org/2000/svg" xmlns:xlink="http://www.w3.org/1999/xlink" x="0px" y="0px"
	 viewBox="0 0 513 513" style="enable-background:new 0 0 513 513;" xml:space="preserve">
<g>
	<path d="M256.7,57.1l-24.1,1.3c-18.1,3.3-37.9,11.5-53.1,22.3c-10.1,7.1-25.1,22.1-32.3,32.3c-9.9,14.1-17.6,31.7-21.7,49.8
		c-1.7,7.4-1.9,12.4-2.5,52c-0.8,48.1-1.1,51.3-6.7,68c-6.7,20.1-15.5,34-33.1,52.1c-15.5,16-16.9,18.7-16.9,31.3
		c0,7.4,0.3,9.1,2.5,13.7c3.2,6.6,9.7,13.1,16.4,16.4l5.2,2.5l47.9,0.3l47.9,0.3l1.5,5.5c0.8,3,3.4,9.1,5.7,13.6
		c3.3,6.4,5.8,9.7,12.2,16.2c9.5,9.5,17.4,14.5,29.3,18.5c7.6,2.5,9.3,2.8,20.8,2.8c14.2,0.1,19.8-1.1,30.7-6.2
		c19.3-9.1,33-25.1,38.8-45.2l1.5-5.1l47.5-0.3l47.5-0.3l5.6-2.6c14.3-6.6,22.4-23.1,18.6-38.1c-2-7.8-4.4-11.2-16.5-23.2
		c-19.6-19.4-30.5-38.9-36.8-65.6c-1.7-7.4-2-11.6-2.6-51.4c-0.7-43.5-1-47.9-4.5-61.7c-6.5-25.5-22.2-50.8-42.3-67.7
		c-18.6-15.7-38.5-25.3-62.6-30L256.7,57.1z M268.9,85.9c44.6,5.5,80.5,38.6,89.9,83.1c1.8,8.4,2,13,2.6,52.5
		c0.6,39.7,0.8,44.1,2.6,52.2c4.5,20.8,14.2,43,25.8,59.4c3.3,4.7,10.8,13.4,16.6,19.4c11.9,12.2,12.2,12.5,11.5,14.5
		c-1.3,3.8,4,3.7-161.8,3.7c-146.2,0-158.6-0.1-160.1-1.5c-2.9-2.6-1.9-4.7,6-12.2c17.8-16.8,31.3-37.2,40-60.5
		c8.1-21.6,8.7-27.2,9.6-78.1c0.8-46.8,0.9-47.9,5.9-62.8c8.2-24.4,27.5-46.7,51-58.9c11.1-5.8,21.8-9,37.8-11.3
		C251,84.7,261.3,84.9,268.9,85.9z M215.8,399.2h80.5l-0.6,2c-0.3,1.1-1.9,4-3.5,6.5c-8.7,13.4-24.5,21.2-39.5,19.7
		c-15.1-1.5-27.7-10-34.4-23.1L215.8,399.2z"/>
</g>
</svg>
