<svg width="512" height="512" viewBox="0 0 512 512" fill="none" xmlns="http://www.w3.org/2000/svg">
    <path
        d="M366.379 1.1643C344.504 5.3339 324.852 15.6723 309.328 31.1798C295.569 44.9225 286.314 61.2674 280.638 81.846C278.911 88.1109 278.557 92.2755 278.554 106.416C278.551 121.587 278.832 124.492 281.141 133.077C286.29 152.222 296.164 169.103 310.115 182.614C323.765 195.834 337.969 204.131 356.529 209.723C364.874 212.238 366.921 212.446 384.073 212.512C400.238 212.575 403.636 212.3 410.702 210.365C449.545 199.729 477.782 171.509 488.484 132.634C490.462 125.447 490.73 122.177 490.668 105.915C490.604 88.7599 490.396 86.7177 487.881 78.3715C482.093 59.1621 472.677 43.4733 458.935 30.1371C444.821 16.4425 429.762 7.88794 411.322 3.08934C399.23 -0.0576379 377.641 -0.982101 366.379 1.1643V1.1643ZM372.175 32.8585C343.592 37.9705 320.14 59.5968 312.315 88.0558C309.92 96.7726 309.929 116.054 312.333 124.945C316.59 140.686 327.182 156.686 339.312 165.704C369.1 187.844 408.957 185.828 435.684 160.826C463.576 134.734 467.053 92.3566 443.862 61.1542C434.943 49.1552 418.722 38.3542 403.604 34.3478C396.138 32.3697 379.354 31.5744 372.175 32.8585V32.8585ZM218.811 64.5426C203.118 66.2173 185.5 71.4796 169.233 79.352C154.448 86.5084 142.334 95.2542 129.67 107.918C108.263 129.326 95.0286 153.665 88.4241 183.772C86.465 192.705 86.2196 197.721 85.5956 241.63C85.0428 280.55 84.5881 291.423 83.2079 298.72C79.4519 318.574 69.8948 340.753 57.8688 357.521C54.6667 361.985 46.5388 371.084 39.8072 377.741C24.3457 393.029 22 397.397 22 410.898C22 424.574 27.081 434.517 37.766 441.752C47.5995 448.408 48.0893 448.457 105.15 448.457H156.385L158.115 454.682C159.067 458.105 161.941 464.979 164.503 469.956C168.2 477.142 171.024 480.884 178.21 488.121C188.743 498.729 197.143 504.032 210.799 508.694C219.697 511.73 221.223 511.945 234.336 511.998C250.223 512.062 256.565 510.773 268.802 504.993C290.281 494.848 305.962 476.685 311.996 454.967L313.665 448.958L367.171 448.457L420.677 447.956L427.336 444.677C443.505 436.715 452.026 419.064 447.752 402.381C445.554 393.804 441.561 387.856 432.634 379.868C415.563 364.588 401.35 343.6 393.624 322.257C387.599 305.613 385.919 295.421 385.451 272.679C384.912 246.464 384.594 243.904 381.389 240.096C374.065 231.393 361.492 231.914 355.191 241.183L352.846 244.635L353.317 271.177C353.714 293.481 354.138 299.318 355.969 307.734C361.045 331.069 371.888 356.069 384.846 374.311C388.553 379.527 397.331 389.745 404.355 397.016C417.51 410.634 418.242 411.97 414.29 415.155C413.06 416.145 375.653 416.406 234.801 416.406C63.692 416.406 56.8011 416.336 55.2076 414.575C54.2961 413.567 53.5499 412.064 53.5499 411.232C53.5499 410.402 59.0717 404.126 65.8193 397.286C72.568 390.446 81.1156 380.57 84.8154 375.339C96.1564 359.299 107.513 335.255 112.015 317.75C116.499 300.32 116.831 296.066 117.649 245.636C118.502 193.158 118.614 191.957 124.234 175.215C135.289 142.281 164.028 113.539 196.953 102.487C209.611 98.2369 218.561 96.7315 233.816 96.2838C247.044 95.8962 248.64 95.6478 251.939 93.4644C256.37 90.5317 258.875 85.5328 258.875 79.6205C258.875 73.8133 255.701 69.0377 249.891 66.1021C245.958 64.1159 244.059 63.8675 233.873 64.0088C227.517 64.0969 220.74 64.3373 218.811 64.5426ZM192.888 454.7C201.727 472.212 223.001 482.932 242.499 479.701C251.105 478.274 262.022 472.914 267.788 467.283C272.506 462.675 278.299 454.396 279.381 450.711L280.043 448.457H189.736L192.888 454.7Z"
        fill="black" />
</svg>