<svg width="512" height="512" viewBox="0 0 512 512" fill="none" xmlns="http://www.w3.org/2000/svg">
    <path
        d="M256.501 0L225.527 1.67152C202.234 5.87188 176.902 16.4892 157.367 30.2404C144.367 39.391 125.184 58.5973 115.904 71.7524C103.157 89.8248 93.274 112.506 88.0211 135.745C85.8677 145.271 85.5528 151.711 84.7475 202.475C83.7671 264.266 83.3696 268.329 76.1886 289.799C67.5528 315.622 56.2521 333.41 33.6863 356.705C13.8198 377.211 11.9461 380.678 12.0011 396.841C12.0332 406.396 12.4334 408.553 15.2589 414.382C19.3561 422.84 27.7579 431.258 36.2687 435.434L42.9161 438.696L104.375 439.028L165.836 439.362L167.804 446.443C168.886 450.337 172.171 458.185 175.104 463.884C179.337 472.11 182.57 476.394 190.798 484.68C202.932 496.901 213.111 503.324 228.36 508.381C238.125 511.619 240.322 511.917 255.055 511.996C273.248 512.092 280.476 510.626 294.514 503.996C319.239 492.317 336.897 471.739 344.365 445.901L346.258 439.346L407.3 439.02L468.341 438.696L475.544 435.37C493.964 426.863 504.292 405.685 499.386 386.48C496.824 376.452 493.742 372.12 478.199 356.701C453.09 331.794 439.074 306.8 430.939 272.425C428.699 262.964 428.426 257.469 427.642 206.489C426.783 150.613 426.376 145.038 421.871 127.303C413.558 94.576 393.306 62.1423 367.595 40.3817C343.739 20.1907 318.171 7.9302 287.258 1.85731L256.501 0ZM272.255 36.9027C329.553 43.9245 375.592 86.5179 387.624 143.639C389.895 154.421 390.188 160.352 390.965 211.076C391.744 262.013 392.024 267.655 394.309 278.158C400.115 304.847 412.501 333.416 427.372 354.414C431.616 360.404 441.228 371.595 448.733 379.281C464.058 394.972 464.359 395.351 463.488 397.883C461.82 402.73 468.679 402.575 255.786 402.575C68.0219 402.575 52.108 402.429 50.1736 400.677C46.433 397.292 47.7425 394.636 57.8667 385.072C80.7432 363.457 98.0549 337.254 109.183 307.399C119.529 279.641 120.4 272.524 121.463 207.063C122.439 146.981 122.567 145.607 129.001 126.438C139.525 95.0902 164.251 66.5304 194.483 50.8004C208.713 43.3964 222.509 39.2901 243.015 36.3535C249.287 35.4556 262.468 35.7032 272.255 36.9027ZM203.993 439.27H307.384L306.627 441.849C306.209 443.27 304.187 447.009 302.132 450.163C290.953 467.323 270.71 477.441 251.452 475.491C232.042 473.527 215.903 462.684 207.348 445.863L203.993 439.27Z"
        fill="black" />
</svg>