<?xml version="1.0" encoding="utf-8"?>
<!-- Generator: Adobe Illustrator 25.4.0, SVG Export Plug-In . SVG Version: 6.00 Build 0)  -->
<svg version="1.1" id="Layer_1" xmlns="http://www.w3.org/2000/svg" xmlns:xlink="http://www.w3.org/1999/xlink" x="0px" y="0px"
	 viewBox="0 0 513 513" style="enable-background:new 0 0 513 513;" xml:space="preserve">
<g>
	<path d="M342.2,58c-17,3.2-32.3,11.3-44.4,23.4c-10.7,10.7-17.9,23.4-22.3,39.5c-1.3,4.9-1.6,8.1-1.6,19.1c0,11.8,0.2,14.1,2,20.8
		c4,14.9,11.7,28.1,22.6,38.6c10.6,10.3,21.7,16.8,36.1,21.1c6.5,2,8.1,2.1,21.5,2.2c12.6,0,15.2-0.2,20.7-1.7
		c30.3-8.3,52.2-30.3,60.6-60.5c1.5-5.6,1.7-8.1,1.7-20.8c0-13.4-0.2-15-2.2-21.5c-4.5-15-11.8-27.2-22.5-37.6
		c-11-10.7-22.7-17.3-37.1-21.1C367.8,57.1,351,56.4,342.2,58L342.2,58z M346.7,82.7c-22.3,4-40.5,20.8-46.6,43
		c-1.9,6.8-1.9,21.8,0,28.7c3.3,12.3,11.6,24.7,21,31.7c23.2,17.2,54.2,15.7,75.1-3.8c21.7-20.3,24.4-53.3,6.4-77.6
		c-6.9-9.3-19.6-17.8-31.4-20.9C365.4,82.3,352.3,81.7,346.7,82.7L346.7,82.7z M227.3,107.4c-12.2,1.3-25.9,5.4-38.6,11.5
		c-11.5,5.6-21,12.4-30.8,22.2c-16.7,16.7-27,35.6-32.1,59.1c-1.5,7-1.7,10.9-2.2,45.1c-0.4,30.3-0.8,38.8-1.9,44.5
		c-2.9,15.5-10.4,32.7-19.7,45.8c-2.5,3.5-8.8,10.6-14.1,15.7c-12,11.9-13.9,15.3-13.9,25.8c0,10.7,4,18.4,12.3,24
		c7.7,5.2,8,5.2,52.5,5.2h39.9l1.3,4.8c0.7,2.7,3,8,5,11.9c2.9,5.6,5.1,8.5,10.7,14.1c8.2,8.3,14.7,12.4,25.4,16
		c6.9,2.4,8.1,2.5,18.3,2.6c12.4,0,17.3-1,26.8-5.5c16.7-7.9,28.9-22,33.6-39l1.3-4.7l41.7-0.4l41.7-0.4l5.2-2.6
		c12.6-6.2,19.2-19.9,15.9-32.9c-1.7-6.7-4.8-11.3-11.8-17.5c-13.3-11.9-24.4-28.2-30.4-44.9c-4.7-13-6-20.9-6.4-38.6
		c-0.4-20.4-0.7-22.4-3.2-25.4c-5.7-6.8-15.5-6.4-20.4,0.8l-1.8,2.7l0.4,20.7c0.3,17.4,0.6,21.9,2.1,28.5
		c4,18.2,12.4,37.6,22.5,51.9c2.9,4.1,9.7,12,15.2,17.7c10.2,10.6,10.8,11.6,7.7,14.1c-1,0.8-30.1,1-139.8,1
		c-133.3,0-138.6-0.1-139.9-1.4c-0.7-0.8-1.3-2-1.3-2.6c0-0.6,4.3-5.5,9.6-10.9c5.3-5.3,11.9-13,14.8-17.1
		c8.8-12.5,17.7-31.2,21.2-44.9c3.5-13.6,3.8-16.9,4.4-56.2c0.7-40.9,0.8-41.8,5.1-54.8c8.6-25.7,31-48,56.6-56.6
		c9.9-3.3,16.8-4.5,28.7-4.8c10.3-0.3,11.5-0.5,14.1-2.2c3.5-2.3,5.4-6.2,5.4-10.8c0-4.5-2.5-8.2-7-10.5c-3.1-1.5-4.5-1.7-12.5-1.6
		C234.1,107,228.8,107.2,227.3,107.4z M207.1,411.3c6.9,13.6,23.5,22,38.6,19.5c6.7-1.1,15.2-5.3,19.7-9.7c3.7-3.6,8.2-10,9-12.9
		l0.5-1.8h-70.3L207.1,411.3z"/>
</g>
</svg>
