<svg width="512" height="512" viewBox="0 0 512 512" fill="none" xmlns="http://www.w3.org/2000/svg">
    <path
        d="M81.9447 51.5265C75.6457 53.8104 70.4663 58.6683 61.5872 70.6235C26.2562 118.189 6.4357 169.812 0.90116 228.682C-0.861416 247.42 0.0620116 282.318 2.79617 300.34C9.29266 343.151 24.5828 384.427 47.1736 420.132C56.2802 434.524 69.2118 451.527 74.1456 455.593C90.5036 469.078 115.367 457.206 115.367 435.91C115.367 427.059 114.788 425.85 102.987 410.076C33.9266 317.768 33.9266 193.82 102.987 101.512C114.788 85.7379 115.367 84.5291 115.367 75.6777C115.367 58.2458 98.0066 45.7007 81.9447 51.5265ZM414.86 51.6325C404.027 55.4984 398.12 62.9857 397.335 73.8453C396.701 82.6184 398.411 86.6685 408.145 99.4279C436.23 136.245 454.024 180.262 459.664 226.868C460.344 232.478 460.9 245.495 460.9 255.794C460.9 266.092 460.344 279.11 459.664 284.72C454.024 331.327 436.747 374.155 408.459 411.66C398.322 425.101 396.697 428.93 397.343 437.858C398.487 453.68 414.069 464.579 429.683 460.477C437.1 458.529 446.941 448.013 460.862 427.162C485.364 390.465 501.516 349.576 509.296 304.554C511.654 290.906 512 284.666 512 255.794C512 226.922 511.654 220.682 509.296 207.034C501.516 162.011 485.364 121.123 460.862 84.4256C440.228 53.5191 430 46.228 414.86 51.6325V51.6325ZM354.814 151.438C347.493 154.171 343.209 158.031 339.826 164.945C335.339 174.118 336.063 179.983 343.463 194.418C354.239 215.435 358.564 232.847 358.564 255.192C358.564 277.255 354.432 294.118 343.685 315.907C335.976 331.537 336.36 340.921 345.084 350.113C350.881 356.221 356.758 358.435 365.816 357.923C379.505 357.149 385.476 351.027 395.416 327.574C416.778 277.175 414.716 222.481 389.579 172.669C382.882 159.395 381.43 157.356 376.556 154.362C369.972 150.317 361.037 149.116 354.814 151.438V151.438ZM140.56 154.093C137.53 155.041 133.059 157.752 130.625 160.116C122.04 168.453 109.734 198.852 105.052 223.287C101.776 240.382 101.974 271.362 105.471 288.931C109.944 311.402 121.14 339.888 129.321 349.611C141.312 363.862 165.155 359.777 172.491 342.216C175.797 334.301 174.937 328.43 168.546 315.298C157.692 292.995 155.125 283.353 154.234 261.53C153.207 236.398 156.97 218.334 167.715 196.801C173.793 184.623 174.901 179.546 173.07 172.275C169.546 158.282 154.343 149.778 140.56 154.093V154.093ZM244.742 205.704C230.005 209.284 216.22 220.166 210.169 232.995C200.49 253.515 204.291 276.255 220.03 291.993C227.797 299.76 236.803 304.401 248.178 306.497C263.726 309.361 280.586 303.835 292.428 291.993C312.672 271.749 312.672 239.839 292.428 219.595C279.629 206.796 261.719 201.579 244.742 205.704Z"
        fill="black" />
</svg>