<?xml version="1.0" encoding="utf-8"?>
<!-- Generator: Adobe Illustrator 25.4.0, SVG Export Plug-In . SVG Version: 6.00 Build 0)  -->
<svg version="1.1" id="Layer_1" xmlns="http://www.w3.org/2000/svg" xmlns:xlink="http://www.w3.org/1999/xlink" x="0px" y="0px"
	 viewBox="0 0 513 513" style="enable-background:new 0 0 513 513;" xml:space="preserve">
<g>
	<path d="M120.9,97.5c-4.9,1.8-8.9,5.6-15.9,14.9c-27.5,37-43,77.3-47.3,123.1c-1.4,14.6-0.7,41.8,1.5,55.8
		c5.1,33.3,17,65.5,34.6,93.3c7.1,11.2,17.2,24.5,21,27.6c12.7,10.5,32.1,1.3,32.1-15.3c0-6.9-0.5-7.8-9.6-20.1
		c-53.8-71.9-53.8-168.4,0-240.3c9.2-12.3,9.6-13.2,9.6-20.1C147,102.7,133.4,93,120.9,97.5z M380.2,97.6c-8.4,3-13,8.8-13.6,17.3
		c-0.5,6.8,0.8,10,8.4,19.9c21.9,28.7,35.7,63,40.1,99.3c0.5,4.4,1,14.5,1,22.5c0,8-0.4,18.2-1,22.5c-4.4,36.3-17.8,69.7-39.9,98.9
		c-7.9,10.5-9.2,13.5-8.7,20.4c0.9,12.3,13,20.8,25.2,17.6c5.8-1.5,13.4-9.7,24.3-25.9c19.1-28.6,31.7-60.4,37.7-95.5
		c1.8-10.6,2.1-15.5,2.1-38s-0.3-27.3-2.1-38c-6.1-35.1-18.6-66.9-37.7-95.5C400,99.1,392,93.4,380.2,97.6L380.2,97.6z M333.5,175.3
		c-5.7,2.1-9,5.1-11.7,10.5c-3.5,7.1-2.9,11.7,2.8,23c8.4,16.4,11.8,29.9,11.8,47.3c0,17.2-3.2,30.3-11.6,47.3
		c-6,12.2-5.7,19.5,1.1,26.6c4.5,4.8,9.1,6.5,16.1,6.1c10.7-0.6,15.3-5.4,23.1-23.6c16.6-39.3,15-81.9-4.5-120.6
		c-5.2-10.3-6.3-11.9-10.1-14.3C345.3,174.4,338.3,173.5,333.5,175.3L333.5,175.3z M166.6,177.4c-2.4,0.7-5.8,2.8-7.7,4.7
		c-6.7,6.5-16.3,30.2-19.9,49.2c-2.6,13.3-2.4,37.4,0.3,51.1c3.5,17.5,12.2,39.7,18.6,47.3c9.3,11.1,27.9,7.9,33.6-5.8
		c2.6-6.2,1.9-10.7-3.1-21c-8.5-17.4-10.5-24.9-11.1-41.9c-0.8-19.6,2.1-33.6,10.5-50.4c4.7-9.5,5.6-13.4,4.2-19.1
		C189.2,180.6,177.3,174,166.6,177.4L166.6,177.4z M247.7,217.6c-11.5,2.8-22.2,11.3-26.9,21.3c-7.5,16-4.6,33.7,7.7,46
		c6,6,13.1,9.7,21.9,11.3c12.1,2.2,25.2-2.1,34.5-11.3c15.8-15.8,15.8-40.6,0-56.4C274.9,218.4,261,214.4,247.7,217.6z"/>
</g>
</svg>
