<?xml version="1.0" encoding="utf-8"?>
<!-- Generator: Adobe Illustrator 25.4.0, SVG Export Plug-In . SVG Version: 6.00 Build 0)  -->
<svg version="1.1" id="Layer_1" xmlns="http://www.w3.org/2000/svg" xmlns:xlink="http://www.w3.org/1999/xlink" x="0px" y="0px"
	 viewBox="0 0 513 513" style="enable-background:new 0 0 513 513;" xml:space="preserve">
<style type="text/css">
	.st0{fill-rule:evenodd;clip-rule:evenodd;}
</style>
<g>
	<path class="st0" d="M241.7,90.7c-40.3,6.3-73.5,34.4-85.9,72.6l-2.3,7.2l-5.1,0.5c-12.2,1.3-32.5,8.9-43.6,16.4
		c-12.7,8.6-25.4,22-32.9,34.6c-19.8,33.5-19.7,76.5,0.2,109.4c15.5,25.6,40.8,43.4,70.8,49.9c6,1.3,11.2,1.5,36.4,1.5
		c28.3,0,29.4-0.1,31.6-1.7c4.4-3.3,5.7-5.9,5.7-11.2c0-5.3-1.4-7.9-5.7-11.2c-2.2-1.6-3.7-1.7-30.8-2.2
		c-21.2-0.4-29.9-0.8-33.9-1.8c-24.2-5.7-45.1-22.7-55.4-45.1c-5.1-11-6.6-18.5-6.6-33.1c0-14.6,1.4-21.9,6.6-33
		c10.4-22.5,31.3-39.5,55.1-44.9c3.2-0.7,9.8-1.6,14.8-2c13.2-1,15.3-3,18.5-17.1c6.8-30.2,29.3-53.3,59.3-60.8
		c5.9-1.5,9.8-1.8,18.7-1.8c14.5,0,22.8,2,35.4,8.3c22.5,11.2,37.8,31.2,42.7,55.6c2.4,11.9,6.2,15.1,19.2,15.9
		c10.9,0.7,20.6,3.2,29.9,7.6c9.3,4.4,13.7,7.4,20.8,14c10.9,10.1,19.4,24.8,23,39.5c2.6,10.5,2.6,26.9,0,37.4
		c-4.6,18.4-16,35.3-31.5,46.6c-6.2,4.5-18.8,10.2-27,12.3c-6.3,1.6-10.1,1.9-35.5,2.3c-27.1,0.5-28.6,0.6-30.8,2.2
		c-4.4,3.3-5.7,5.9-5.7,11.2c0,5.3,1.4,7.9,5.7,11.2c2.2,1.7,3.3,1.7,31.2,1.7c25.1,0,29.8-0.2,36-1.6c43.3-9.5,75.5-42.3,83.9-85.4
		c1.9-9.8,1.9-28.9,0-38.7c-7.6-38.6-34.6-69.6-71.5-81.9c-4.8-1.6-11.8-3.4-15.5-4l-6.8-1l-2.3-7C347,128,317,100.6,280.7,92.3
		C272.3,90.3,249.9,89.4,241.7,90.7L241.7,90.7z M251.7,197.7c-1.4,0.6-18.5,17.2-38.1,36.9c-31.5,31.6-35.7,36.1-36.2,38.9
		c-1.7,9.4,6.6,17.7,16,16c2.8-0.5,6.2-3.6,26.7-24l23.5-23.5l0.2,86.4c0.2,85.8,0.2,86.4,1.9,88.7c3.3,4.4,5.9,5.7,11.2,5.7
		c5.3,0,7.9-1.4,11.2-5.7c1.7-2.3,1.7-2.9,1.9-88.7l0.2-86.4l23.5,23.5c20.6,20.5,23.9,23.5,26.7,24c9.4,1.7,17.7-6.6,16-16
		c-0.5-2.8-4.6-7.3-36.2-38.9c-20.1-20.2-36.7-36.2-38.3-36.9C259,196.3,255,196.3,251.7,197.7"/>
</g>
</svg>
