<svg width="512" height="512" viewBox="0 0 512 512" fill="none" xmlns="http://www.w3.org/2000/svg">
    <path fill-rule="evenodd" clip-rule="evenodd"
        d="M269.121 92.3781C267.745 92.6172 263.243 93.3125 259.116 93.9228C216.021 100.3 175.203 130.627 154.734 171.479L151.155 178.62L142.357 175.554C134.06 172.661 132.678 172.483 118.052 172.414C104.485 172.351 101.607 172.634 95.042 174.678C63.4718 184.509 39.8341 212.841 37.352 243.827L36.7467 251.378L29.4524 258.598C0.0140807 287.735 -8.01055 328.186 8.34384 364.999C17.6911 386.04 37.9842 405.028 60.1923 413.514C75.9094 419.521 80.7246 419.926 136.377 419.941C170.853 419.95 187.864 419.607 189.232 418.875C192.298 417.234 194.072 412.208 192.836 408.662C190.871 403.027 190.083 402.948 134.842 402.929C80.8346 402.91 77.5581 402.661 65.0635 397.614C54.8869 393.503 47.9457 388.828 39.5359 380.417C23.2526 364.135 16.3064 346.164 17.3089 322.91C18.3063 299.754 27.4405 281.695 45.8658 266.451L53.7614 259.92L53.8234 251.425C53.9495 234.386 60.2323 219.494 72.4498 207.276C84.5903 195.136 99.5861 188.773 116.33 188.655C130.064 188.559 141.263 191.88 154.341 199.927C157.085 201.615 159.637 202.628 160.013 202.176C160.389 201.725 162.179 197.304 163.992 192.351C179.08 151.134 214.135 120.642 257.257 111.226C268.966 108.669 290.882 108.216 303.202 110.276C330.767 114.885 352.746 126.154 372.296 145.703C387.142 160.547 396.505 175.452 403.33 195.104C405.532 201.442 405.892 201.894 409.181 202.447C431.648 206.221 451.979 216.684 466.887 232.143C478.971 244.675 486.542 257.785 491.861 275.389C494.373 283.697 494.584 285.746 494.599 301.901C494.611 316.745 494.289 320.576 492.477 327.087C487.27 345.801 478.867 360.384 465.756 373.455C450.393 388.773 431.385 398.498 410.185 401.891C406.515 402.478 387.076 402.934 365.563 402.938C339.741 402.944 326.396 403.313 324.19 404.081C318.248 406.153 316.942 414.077 321.901 417.976C324.31 419.871 326.078 419.954 364.049 419.95C407.972 419.946 415.001 419.31 431.358 413.861C481.492 397.162 514.092 350.02 511.896 297.399C511.033 276.758 506.115 260.021 495.724 242.374C480.399 216.347 456.639 198.027 427.174 189.521L419.073 187.182L412.237 173.259C391.97 131.978 356.616 104.196 312.339 94.7601C303.046 92.7793 275.537 91.2636 269.121 92.3781V92.3781ZM209.386 281.141C183.964 306.591 162.741 328.557 162.222 329.956C160.099 335.681 165.938 341.898 172.038 340.409C173.581 340.033 189.013 325.387 211.345 303.105L248.111 266.421V415.043L250.567 417.498C252.115 419.047 254.166 419.954 256.115 419.954C258.064 419.954 260.115 419.047 261.662 417.498L264.118 415.043V266.421L300.885 303.105C323.217 325.387 338.649 340.033 340.192 340.409C346.292 341.898 352.13 335.681 350.007 329.956C349.19 327.751 257.474 234.87 256.115 234.87C255.836 234.87 234.807 255.693 209.386 281.141Z"
        fill="black" />
</svg>