<svg width="512" height="512" viewBox="0 0 512 512" fill="none" xmlns="http://www.w3.org/2000/svg">
    <path fill-rule="evenodd" clip-rule="evenodd"
        d="M237.027 42.7684C185.267 50.8826 142.605 86.9323 126.706 135.987L123.713 145.225L117.2 145.894C101.518 147.504 75.4962 157.312 61.2352 166.99C44.8846 178.085 28.5971 195.23 18.9906 211.457C-6.43878 254.414 -6.32103 309.661 19.2914 351.909C39.2549 384.84 71.6499 407.663 110.232 415.978C117.984 417.649 124.549 417.922 156.907 417.922C193.267 417.922 194.662 417.846 197.519 415.715C203.137 411.523 204.891 408.1 204.891 401.33C204.891 394.561 203.14 391.142 197.524 386.944C194.72 384.85 192.713 384.704 157.982 384.076C130.817 383.584 119.595 382.991 114.409 381.773C83.3739 374.483 56.5122 352.648 43.2403 323.925C36.6932 309.753 34.7717 300.143 34.7439 281.435C34.716 262.71 36.584 253.354 43.2082 239.016C56.5282 210.186 83.4221 188.291 114.003 181.381C118.067 180.463 126.599 179.31 132.961 178.819C149.862 177.515 152.62 174.97 156.699 156.922C165.458 118.156 194.378 88.5284 232.855 78.9015C240.376 77.0196 245.374 76.5293 256.81 76.5529C275.424 76.5893 286.092 79.0739 302.305 87.1475C331.14 101.505 350.842 127.168 357.142 158.572C360.207 173.854 365.126 177.931 381.85 179.049C395.848 179.983 408.338 183.15 420.203 188.771C432.147 194.428 437.828 198.249 446.847 206.685C460.779 219.717 471.758 238.544 476.433 257.414C479.776 270.912 479.776 291.958 476.433 305.457C470.567 329.133 455.923 350.758 435.938 365.254C428.036 370.987 411.831 378.392 401.278 381.094C393.193 383.166 388.318 383.484 355.638 384.076C320.906 384.704 318.899 384.85 316.095 386.944C310.48 391.142 308.728 394.561 308.728 401.33C308.728 408.1 310.483 411.523 316.101 415.715C318.956 417.845 320.358 417.922 356.177 417.922C388.449 417.922 394.485 417.661 402.396 415.924C457.953 403.723 499.285 361.657 510.155 306.251C512.615 293.713 512.615 269.158 510.155 256.619C500.423 207.013 465.703 167.224 418.409 151.482C412.252 149.432 403.307 147.148 398.532 146.406L389.853 145.059L386.925 136.07C372.138 90.663 333.648 55.4536 287.114 44.768C276.241 42.2706 247.515 41.1241 237.027 42.7684V42.7684ZM249.851 180.207C248.085 181.007 226.08 202.304 200.952 227.534C160.479 268.17 155.178 273.877 154.515 277.524C152.318 289.605 163.011 300.295 175.082 298.087C178.679 297.428 183.019 293.527 209.426 267.212L239.652 237.089L239.935 348.034C240.215 458.198 240.233 459 242.424 461.935C246.619 467.553 250.04 469.305 256.81 469.305C263.579 469.305 267.001 467.553 271.195 461.935C273.386 459 273.404 458.198 273.685 348.034L273.967 237.089L304.194 267.212C330.6 293.527 334.94 297.428 338.537 298.087C350.609 300.295 361.301 289.605 359.104 277.524C358.442 273.877 353.139 268.17 312.668 227.532C286.814 201.573 265.484 181.009 263.534 180.163C259.233 178.297 254.032 178.313 249.851 180.207"
        fill="black" />
</svg>