<svg width="512" height="512" viewBox="0 0 512 512" fill="none" xmlns="http://www.w3.org/2000/svg">
    <path
        d="M37.608 48.7361C24.278 51.3873 11.02 61.8116 4.711 74.6026L1 82.1253V430.013L4.711 437.536C11.213 450.718 24.278 460.772 38.391 463.453C45.73 464.848 465.111 464.869 472.614 463.475C490.899 460.079 506.99 443.944 510.479 425.509C511.882 418.101 511.882 158.163 510.479 150.754C506.99 132.319 490.899 116.185 472.614 112.788C469.252 112.164 428.945 111.787 365.413 111.787C280.05 111.787 263.47 111.565 262.8 110.409C262.36 109.65 248.97 96.5074 233.044 81.2025C210.352 59.3939 202.889 52.8101 198.544 50.7681L193 48.163L117.5 48.0127C75.975 47.9305 40.024 48.2562 37.608 48.7361ZM40.462 81.979L44.924 79.7246L114.962 79.7356L185 79.7466L215 108.757C237.234 130.257 246.424 138.49 250.5 140.558L256 143.349L362 143.85C466.111 144.342 468.062 144.387 471.5 146.378C473.573 147.578 475.918 150.218 477.25 152.853L479.5 157.3V418.963L477.25 423.434C475.606 426.7 473.798 428.512 470.538 430.159L466.076 432.414H44.924L40.462 430.159C37.202 428.512 35.394 426.7 33.75 423.434L31.5 418.963V93.1749L33.75 88.7041C35.394 85.4377 37.202 83.6262 40.462 81.979Z"
        fill="black" />
</svg>