<?xml version="1.0" encoding="utf-8"?>
<!-- Generator: Adobe Illustrator 25.4.0, SVG Export Plug-In . SVG Version: 6.00 Build 0)  -->
<svg version="1.1" id="Layer_1" xmlns="http://www.w3.org/2000/svg" xmlns:xlink="http://www.w3.org/1999/xlink" x="0px" y="0px"
	 viewBox="0 0 513 513" style="enable-background:new 0 0 513 513;" xml:space="preserve">
<g>
	<path d="M85.7,94.4c-10.4,2.1-20.8,10.2-25.7,20.2l-2.9,5.9v271.7l2.9,5.9c5.1,10.3,15.3,18.1,26.3,20.2c5.7,1.1,333.3,1.1,339.2,0
		c14.3-2.7,26.9-15.3,29.6-29.7c1.1-5.8,1.1-208.8,0-214.6c-2.7-14.4-15.3-27-29.6-29.7c-2.6-0.5-34.1-0.8-83.7-0.8
		c-66.7,0-79.6-0.2-80.1-1.1c-0.3-0.6-10.8-10.9-23.2-22.8c-17.7-17-23.6-22.2-26.9-23.8l-4.3-2l-59-0.1
		C115.7,93.8,87.6,94,85.7,94.4z M87.9,120.4l3.5-1.8l54.7,0l54.7,0l23.4,22.7c17.4,16.8,24.5,23.2,27.7,24.8l4.3,2.2l82.8,0.4
		c81.3,0.4,82.8,0.4,85.5,2c1.6,0.9,3.5,3,4.5,5.1l1.8,3.5v204.4l-1.8,3.5c-1.3,2.6-2.7,4-5.2,5.3l-3.5,1.8h-329l-3.5-1.8
		c-2.5-1.3-4-2.7-5.2-5.3l-1.8-3.5V129.1l1.8-3.5C84,123.1,85.4,121.7,87.9,120.4z"/>
</g>
</svg>
