<?xml version="1.0" encoding="utf-8"?>
<!-- Generator: Adobe Illustrator 25.4.0, SVG Export Plug-In . SVG Version: 6.00 Build 0)  -->
<svg version="1.1" id="Layer_1" xmlns="http://www.w3.org/2000/svg" xmlns:xlink="http://www.w3.org/1999/xlink" x="0px" y="0px"
	 viewBox="0 0 513 513" style="enable-background:new 0 0 513 513;" xml:space="preserve">
<g>
	<path d="M135.6,58.3c-19.7,3.3-36.5,12-50.8,26.4C70.2,99.3,61.6,116,58.3,136.1c-1.6,9.8-1.7,79.8-0.1,85.7
		c1.9,7.3,6.2,13.1,12.7,17.2c7.8,5,7.5,5,82.2,4.7l67.1-0.2l4.4-1.8c8.4-3.4,13.7-8.8,17.2-17.4l1.7-4.2l0.2-67.1
		c0.2-74.8,0.3-74.4-4.7-82.2c-4.2-6.5-9.9-10.8-17.2-12.7C216.4,56.7,144.5,56.8,135.6,58.3L135.6,58.3z M290.8,58.2
		c-6.9,1.9-12.8,6.3-16.9,12.7c-5,7.8-5,7.5-4.7,82.2l0.2,67.1l1.7,4.2c3.5,8.6,8.9,14,17.2,17.4l4.4,1.8l67.1,0.2
		c74.8,0.2,74.4,0.3,82.2-4.7c6.5-4.2,10.8-9.9,12.7-17.2c1.6-5.9,1.5-75.9-0.1-85.7c-3.3-20.2-11.8-36.8-26.4-51.4
		S397,61.6,376.8,58.3C367.4,56.8,296.2,56.7,290.8,58.2L290.8,58.2z M135.7,75.8L135.7,75.8c6-1.3,11-1.4,44.1-1.5
		c37.3,0,37.4,0,40.4,1.7c1.7,1,3.8,3,4.7,4.5c1.6,2.7,1.6,3.5,1.6,70.1v67.3l-1.7,2.7c-0.9,1.5-2.9,3.4-4.3,4.3
		c-2.5,1.5-4,1.6-69.9,1.6c-66.5,0-67.4,0-70.1-1.6c-1.5-0.9-3.5-3-4.5-4.7c-1.7-3.1-1.7-3.2-1.8-39.9c0-33.7,0.1-37.5,1.5-44.4
		C82.2,105,104.8,82.3,135.7,75.8z M292.7,76L292.7,76c3.1-1.7,3.2-1.7,39.9-1.8c33.7,0,37.5,0.1,44.4,1.5
		c31,6.3,53.8,29.1,60.1,60.1c1.4,6.9,1.5,10.7,1.5,44.4c0,36.7,0,36.9-1.8,39.9c-1,1.7-3,3.8-4.5,4.7c-2.7,1.6-3.5,1.6-70.1,1.6
		c-66,0-67.4,0-69.9-1.6c-1.4-0.9-3.3-2.8-4.3-4.3l-1.7-2.7v-67.3c0-66.5,0-67.4,1.6-70.1C289,79,291.1,77,292.7,76z M80,270.1
		c-5.8,1.3-12.3,5.2-16,9.8c-6.8,8.4-6.8,8.7-6.8,52.4c0,29.2,0.2,38.9,1.1,44.4c3.3,20.2,11.8,36.8,26.4,51.4
		c14.6,14.6,31.2,23.2,51.4,26.4c10.4,1.7,99.9,1.7,103.1,0c5-2.6,4.8,1.5,4.6-84.3l-0.2-77.7l-1.8-4.4c-3.4-8.4-8.8-13.7-17.4-17.2
		l-4.2-1.7l-67.7-0.1C98,269,83.9,269.2,80,270.1L80,270.1z M293.2,269.7c-12.1,2.4-21.1,11.6-23.5,24c-0.5,2.6-0.8,32-0.8,79.2
		c0,82.7-0.2,79,4.7,81.6c3.2,1.7,92.8,1.7,103.1,0c20.2-3.3,36.8-11.8,51.4-26.4c14.6-14.6,23.2-31.2,26.4-51.4
		c1.6-9.8,1.7-79.8,0.1-85.7c-1.9-7.3-6.2-13.1-12.7-17.2c-7.7-4.9-7.4-4.9-80-4.8C326,269,295.1,269.4,293.2,269.7L293.2,269.7z
		 M82.7,287.1L82.7,287.1c2.4-0.9,15.1-1,69.1-0.9c64.6,0.2,66.2,0.2,68.8,1.7c1.4,0.9,3.3,2.8,4.3,4.3l1.7,2.7l0.2,71.8l0.2,71.8
		h-41.7c-38.5,0-42.3-0.1-49.3-1.5c-31-6.3-53.8-29.1-60.1-60.1c-1.4-6.9-1.5-10.8-1.5-44.2c0-34.7,0.1-36.9,1.5-39.6
		C77.6,289.6,78.9,288.5,82.7,287.1z M294.9,286.9c1.5-0.4,29.6-0.7,68.7-0.6c65.2,0.1,66.2,0.2,68.9,1.7c1.5,0.9,3.5,3,4.5,4.7
		c1.7,3.1,1.7,3.2,1.8,39.9c0,33.7-0.1,37.5-1.5,44.4c-6.3,31-29.1,53.8-60.1,60.1c-6.9,1.4-10.8,1.5-49.2,1.5h-41.7l0-70.3
		c0-45.8,0.3-71.3,0.8-73.2C287.9,291.7,291.5,287.9,294.9,286.9"/>
</g>
</svg>
