<svg width="512" height="512" viewBox="0 0 512 512" xmlns="http://www.w3.org/2000/svg">
    <path fill-rule="evenodd" clip-rule="evenodd"
        d="M242.581 1.61524C221.939 6.60991 204.808 24.2027 200.417 44.9194C197.621 58.1085 199.034 69.1688 205.14 81.8879C212.393 96.9999 225.711 107.725 242.576 112.039C252.345 114.537 259.614 114.537 269.383 112.039C286.249 107.725 299.566 96.9999 306.819 81.8879C317.841 58.9284 313.824 34.876 295.981 17.0032C281.574 2.57217 261.973 -3.07645 242.581 1.61524V1.61524ZM243.398 200.49C227.265 204.001 212.263 215.973 204.987 231.146C181.626 279.854 232.13 330.358 280.838 306.997C297.625 298.947 309.487 282.77 312.182 264.254C317.914 224.874 282.445 191.994 243.398 200.49V200.49ZM242.182 400.017C216.833 406.658 198.912 429.653 199 455.425C199.088 481.044 217.868 504.507 243.033 510.439C262.442 515.013 281.574 509.437 295.981 495.006C313.824 477.133 317.841 453.08 306.819 430.121C299.566 415.009 286.249 404.284 269.383 399.97C259.81 397.522 251.652 397.536 242.182 400.017"
        fill="black" />
</svg>