<svg width="512" height="512" viewBox="0 0 512 512" xmlns="http://www.w3.org/2000/svg">
    <path
        d="M17.1463 230.319C11.0235 232.558 3.53221 240.388 1.41686 246.758C-1.86579 256.64 0.656014 267.456 7.9401 274.74C13.5884 280.388 18.3016 282.248 26.9612 282.248C35.6209 282.248 40.3341 280.388 45.9824 274.74C51.6306 269.092 53.4907 264.378 53.4907 255.719C53.4907 250.266 52.9521 247.123 51.5215 244.239C48.9897 239.132 43.4816 233.645 38.441 231.207C33.2082 228.676 22.8236 228.243 17.1463 230.319V230.319ZM246.401 230.319C240.278 232.558 232.787 240.388 230.672 246.758C227.389 256.64 229.911 267.456 237.195 274.74C242.843 280.388 247.556 282.248 256.216 282.248C264.875 282.248 269.589 280.388 275.237 274.74C280.885 269.092 282.745 264.378 282.745 255.719C282.745 250.266 282.207 247.123 280.776 244.239C278.244 239.132 272.736 233.645 267.696 231.207C262.463 228.676 252.078 228.243 246.401 230.319V230.319ZM475.656 230.319C469.533 232.558 462.041 240.388 459.926 246.758C456.643 256.64 459.165 267.456 466.449 274.74C472.098 280.388 476.811 282.248 485.471 282.248C494.13 282.248 498.843 280.388 504.492 274.74C510.14 269.092 512 264.378 512 255.719C512 250.266 511.461 247.123 510.031 244.239C507.499 239.132 501.991 233.645 496.95 231.207C491.717 228.676 481.333 228.243 475.656 230.319"
        fill="black" />
</svg>