<?xml version="1.0" encoding="utf-8"?>
<!-- Generator: Adobe Illustrator 25.4.0, SVG Export Plug-In . SVG Version: 6.00 Build 0)  -->
<svg version="1.1" id="Layer_1" xmlns="http://www.w3.org/2000/svg" xmlns:xlink="http://www.w3.org/1999/xlink" x="0px" y="0px"
	 viewBox="0 0 513 513" style="enable-background:new 0 0 513 513;" xml:space="preserve">
<style type="text/css">
	.st0{fill-rule:evenodd;clip-rule:evenodd;}
</style>
<g>
	<path class="st0" d="M246.1,58.4C230,62.3,216.7,76,213.2,92.1c-2.2,10.3-1.1,18.9,3.7,28.8c5.6,11.8,16,20.1,29.2,23.5
		c7.6,1.9,13.3,1.9,20.9,0c13.1-3.4,23.5-11.7,29.2-23.5c8.6-17.9,5.5-36.6-8.4-50.5C276.4,59.1,261.2,54.7,246.1,58.4L246.1,58.4z
		 M246.7,213.3c-12.6,2.7-24.2,12.1-29.9,23.9c-18.2,37.9,21.1,77.3,59.1,59.1c13.1-6.3,22.3-18.9,24.4-33.3
		C304.7,232.3,277.1,206.6,246.7,213.3L246.7,213.3z M245.8,368.7c-19.7,5.2-33.7,23.1-33.6,43.2c0.1,20,14.7,38.2,34.3,42.8
		c15.1,3.6,30-0.8,41.2-12c13.9-13.9,17-32.7,8.4-50.5c-5.6-11.8-16-20.1-29.2-23.5C259.5,366.7,253.1,366.7,245.8,368.7"/>
</g>
</svg>
