<svg width="512" height="512" viewBox="0 0 512 512" fill="none" xmlns="http://www.w3.org/2000/svg">
    <path
        d="M100.729 1.51205C75.451 5.76105 53.89 16.958 35.424 35.424C16.663 54.185 5.677 75.551 1.477 101.442C-0.565996 114.039 -0.654996 203.95 1.368 211.546C3.861 220.908 9.335 228.32 17.716 233.681C27.786 240.123 27.311 240.096 123.338 239.782L209.5 239.5L215.153 237.215C225.927 232.858 232.754 225.972 237.298 214.878L239.5 209.5L239.782 123.338C240.096 27.311 240.123 27.786 233.681 17.716C228.32 9.33505 220.908 3.86105 211.546 1.36805C204.469 -0.516951 112.082 -0.396951 100.729 1.51205V1.51205ZM299.994 1.42305C291.084 3.88505 283.538 9.55705 278.319 17.716C271.877 27.786 271.904 27.311 272.218 123.338L272.5 209.5L274.702 214.878C279.246 225.972 286.073 232.858 296.847 237.215L302.5 239.5L388.662 239.782C484.689 240.096 484.214 240.123 494.284 233.681C502.665 228.32 508.139 220.908 510.632 211.546C512.655 203.95 512.566 114.039 510.523 101.442C506.323 75.551 495.337 54.185 476.576 35.424C457.815 16.663 436.449 5.67705 410.558 1.47705C398.501 -0.477951 307.04 -0.522951 299.994 1.42305V1.42305ZM100.826 23.97V23.97C108.514 22.349 114.954 22.135 157.5 22.087C205.381 22.033 205.51 22.038 209.444 24.267C211.614 25.496 214.314 28.076 215.444 30.001C217.476 33.459 217.5 34.52 217.5 120V206.5L215.319 210C214.12 211.925 211.645 214.4 209.819 215.5C206.568 217.459 204.727 217.5 120 217.5C34.52 217.5 33.459 217.476 30.001 215.444C28.076 214.314 25.496 211.614 24.267 209.444C22.043 205.517 22.033 205.295 22.016 158.157C22.001 114.931 22.171 109.974 23.972 101.157C32.065 61.523 61.118 32.344 100.826 23.97ZM302.556 24.267V24.267C306.483 22.043 306.705 22.0331 353.843 22.0161C397.069 22.0011 402.026 22.171 410.843 23.972C450.626 32.095 479.905 61.374 488.028 101.157C489.829 109.974 489.999 114.931 489.984 158.157C489.967 205.295 489.957 205.517 487.733 209.444C486.504 211.614 483.924 214.314 481.999 215.444C478.541 217.476 477.48 217.5 392 217.5C307.273 217.5 305.432 217.459 302.181 215.5C300.355 214.4 297.88 211.925 296.681 210L294.5 206.5V120C294.5 34.52 294.524 33.459 296.556 30.001C297.686 28.076 300.386 25.496 302.556 24.267ZM29.324 273.486C21.84 275.132 13.57 280.227 8.794 286.134C0.0700035 296.925 0.0250045 297.267 0.0160045 353.5C0.0100045 390.971 0.330004 403.487 1.477 410.558C5.677 436.449 16.663 457.815 35.424 476.576C54.185 495.337 75.551 506.323 101.442 510.523C114.763 512.683 229.742 512.702 233.915 510.544C240.368 507.207 240.085 512.448 239.778 402.29L239.5 302.5L237.215 296.847C232.858 286.073 225.972 279.246 214.878 274.702L209.5 272.5L122.5 272.314C52.351 272.163 34.304 272.39 29.324 273.486V273.486ZM303.176 273.07C287.622 276.131 276.035 287.994 273.008 303.96C272.374 307.298 272 345.121 272 405.735C272 512.001 271.724 507.255 278.085 510.544C282.258 512.702 397.237 512.683 410.558 510.523C436.449 506.323 457.815 495.337 476.576 476.576C495.337 457.815 506.323 436.449 510.523 410.558C512.566 397.961 512.655 308.05 510.632 300.454C508.14 291.093 502.665 283.68 494.288 278.321C484.413 272.004 484.749 272.025 391.5 272.127C345.3 272.178 305.554 272.602 303.176 273.07V273.07ZM32.741 295.418V295.418C35.808 294.314 52.151 294.105 121.5 294.282C204.526 294.495 206.577 294.546 209.819 296.5C211.645 297.6 214.12 300.075 215.319 302L217.5 305.5L217.77 397.75L218.04 490H164.427C115 490 110.06 489.846 101.157 488.028C61.374 479.905 32.095 450.626 23.972 410.843C22.174 402.037 22 397.031 22 354.053C22 309.49 22.105 306.714 23.927 303.143C26.262 298.566 27.843 297.181 32.741 295.418ZM305.315 295.091C307.196 294.54 343.313 294.228 393.5 294.329C477.31 294.498 478.549 294.529 481.999 296.556C483.924 297.686 486.504 300.386 487.733 302.556C489.957 306.483 489.967 306.705 489.984 353.843C489.999 397.069 489.829 402.026 488.028 410.843C479.905 450.626 450.626 479.905 410.843 488.028C401.94 489.846 397 490 347.593 490H294L294.006 399.75C294.009 340.914 294.37 308.209 295.041 305.791C296.298 301.266 301.02 296.349 305.315 295.091"
        fill="black" />
</svg>