<svg width="512" height="512" viewBox="0 0 512 512" fill="none" xmlns="http://www.w3.org/2000/svg">
    <path
        d="M59.432 18.7344C30.8981 24.9807 8.68809 47.2344 1.93804 76.344C0.0134889 84.6433 -0.209442 103.813 0.133422 232.164L0.524259 378.521L4.19276 387.945C11.5368 406.811 23.6203 420.785 40.2556 429.652C54.3849 437.182 62.1057 438.487 92.5331 438.487H119.751L119.784 454.361C119.835 478.209 122.288 485.345 132.486 491.317C142.707 497.302 145.075 496.488 205.46 466.233L260.833 438.487H353.667C454.483 438.487 453.639 438.545 470.838 430.48C481.591 425.437 498.948 408.08 503.991 397.327C512.295 379.619 511.998 385.895 511.998 227.808C511.998 67.6215 512.35 74.3616 503.088 56.932C494.32 40.4336 480.284 28.3134 461.456 20.9835L452.032 17.315L260.141 17.0596C102.308 16.8494 66.6857 17.1471 59.432 18.7344V18.7344ZM59.1286 50.7477V50.7477L66.8395 47.7763L258.025 48.0669L449.21 48.3562L456.418 52.1587C460.381 54.2498 466.527 59.1895 470.074 63.1346C481.749 76.1197 481.057 65.1523 480.63 230.459L480.252 377.11L476.095 384.615C471.453 392.995 465.459 398.812 456.578 403.558L450.621 406.741L351.148 407.446L251.676 408.152L201.948 433.196C174.596 446.97 151.898 458.241 151.506 458.241C151.112 458.241 150.789 449.511 150.786 438.84C150.782 422.115 150.402 418.819 148.038 414.94C143.97 408.269 138.862 407.463 100.601 407.455C61.3297 407.445 57.616 406.698 46.31 396.534C42.3833 393.002 37.459 386.87 35.368 382.907L31.5654 375.7L31.1873 230.139L30.8092 84.5784L33.8738 76.3878C37.8978 65.632 48.5407 54.8268 59.1286 50.7477ZM127.212 170.356C119.21 175.236 118.608 187.439 126.049 193.948C127.988 195.644 132.284 197.423 135.597 197.9C138.91 198.378 195.707 198.577 261.813 198.343L382.005 197.918L386.312 193.791C391.688 188.641 393.092 182.125 390.083 176.305C385.267 166.993 394.277 167.583 256.652 167.588C135.122 167.592 131.621 167.667 127.212 170.356V170.356ZM127.212 260.658C119.21 265.537 118.608 277.741 126.049 284.249C127.988 285.945 132.284 287.729 135.597 288.213C138.91 288.695 175.389 288.896 216.663 288.656L291.705 288.22L296.012 284.093C301.387 278.943 302.791 272.427 299.781 266.607C295.056 257.468 299.269 257.884 211.501 257.89C134.8 257.894 131.57 258.001 127.212 260.658"
        fill="black" />
</svg>