<?xml version="1.0" encoding="utf-8"?>
<!-- Generator: Adobe Illustrator 25.4.0, SVG Export Plug-In . SVG Version: 6.00 Build 0)  -->
<svg version="1.1" id="Layer_1" xmlns="http://www.w3.org/2000/svg" xmlns:xlink="http://www.w3.org/1999/xlink" x="0px" y="0px"
	 viewBox="0 0 513 513" style="enable-background:new 0 0 513 513;" xml:space="preserve">
<g>
	<path d="M103.4,72c-22.2,4.9-39.5,22.2-44.8,44.9c-1.5,6.5-1.7,21.4-1.4,121.4l0.3,114l2.9,7.3c5.7,14.7,15.1,25.6,28.1,32.5
		c11,5.9,17,6.9,40.7,6.9h21.2l0,12.4c0,18.6,2,24.1,9.9,28.8c8,4.7,9.8,4,56.8-19.5l43.1-21.6h72.3c78.5,0,77.9,0,91.3-6.2
		c8.4-3.9,21.9-17.4,25.8-25.8c6.5-13.8,6.2-8.9,6.2-132c0-124.8,0.3-119.5-6.9-133.1c-6.8-12.8-17.8-22.3-32.4-28l-7.3-2.9
		l-149.5-0.2C136.8,70.5,109.1,70.8,103.4,72L103.4,72z M103.2,96.9L103.2,96.9l6-2.3l148.9,0.2L407,95.1l5.6,3
		c3.1,1.6,7.9,5.5,10.6,8.5c9.1,10.1,8.6,1.6,8.2,130.3l-0.3,114.2l-3.2,5.8c-3.6,6.5-8.3,11.1-15.2,14.8l-4.6,2.5l-77.5,0.5
		l-77.5,0.5l-38.7,19.5c-21.3,10.7-39,19.5-39.3,19.5c-0.3,0-0.6-6.8-0.6-15.1c0-13-0.3-15.6-2.1-18.6c-3.2-5.2-7.1-5.8-36.9-5.8
		c-30.6,0-33.5-0.6-42.3-8.5c-3.1-2.8-6.9-7.5-8.5-10.6l-3-5.6l-0.3-113.4l-0.3-113.4l2.4-6.4C86.6,108.5,94.9,100.1,103.2,96.9z
		 M156.2,190.1c-6.2,3.8-6.7,13.3-0.9,18.4c1.5,1.3,4.9,2.7,7.4,3.1c2.6,0.4,46.8,0.5,98.3,0.3l93.6-0.3l3.4-3.2
		c4.2-4,5.3-9.1,2.9-13.6c-3.8-7.3,3.3-6.8-103.9-6.8C162.4,187.9,159.6,188,156.2,190.1L156.2,190.1z M156.2,260.4
		c-6.2,3.8-6.7,13.3-0.9,18.4c1.5,1.3,4.9,2.7,7.4,3.1c2.6,0.4,31,0.5,63.1,0.3l58.4-0.3l3.4-3.2c4.2-4,5.3-9.1,2.9-13.6
		c-3.7-7.1-0.4-6.8-68.8-6.8C162.1,258.3,159.6,258.3,156.2,260.4"/>
</g>
</svg>
