<?xml version="1.0" encoding="utf-8"?>
<!-- Generator: Adobe Illustrator 25.4.0, SVG Export Plug-In . SVG Version: 6.00 Build 0)  -->
<svg version="1.1" id="Layer_1" xmlns="http://www.w3.org/2000/svg" xmlns:xlink="http://www.w3.org/1999/xlink" x="0px" y="0px"
	 viewBox="0 0 513 516.5" style="enable-background:new 0 0 513 516.5;" xml:space="preserve">
<g>
	<path d="M250.7,60.1c-1.5,0.7-45.4,44.1-97.5,96.4c-103.1,103.6-97,96.8-95.4,105.2c0.8,4.4,6.1,9.7,10.5,10.5
		c8.4,1.6,2.2,7.2,99.1-89.9l89.1-89.3l89.1,89.3c96.9,97.1,90.7,91.5,99.1,89.9c4.4-0.8,9.7-6.2,10.5-10.5
		c1.6-8.4,7.7-1.7-95.4-105.2c-55.5-55.8-96-95.8-97.7-96.5C258.5,58.5,254.2,58.5,250.7,60.1L250.7,60.1z M108.4,288.1
		c-3.6,1.6-7.3,6.2-8,9.7c-0.3,1.6-0.4,25.1-0.2,52.3c0.3,48.5,0.3,49.6,2.3,56.1c7.3,24,25.7,42.3,49.7,49.3l6.9,2h97.4
		c109.8,0,101.2,0.5,116.9-7.1c18.2-8.9,31.3-24.7,37.1-44.6c2-7,2-7.5,2-58.5c0-50.5,0-51.4-1.8-53.9c-3.5-4.7-6.3-6.1-11.9-6.1
		c-5.6,0-8.5,1.5-11.9,6.1c-1.8,2.4-1.8,3.7-2.3,52.5l-0.4,50.1l-2.1,5.3c-5.5,13.7-17.5,24.3-31,27.1c-6.6,1.4-182.2,1.4-188.9,0
		c-5.5-1.2-15.1-6-19.1-9.7c-5.8-5.3-9.8-11.4-13-20.1c-0.7-1.8-1.1-19.5-1.5-52.7c-0.5-48.8-0.5-50.1-2.3-52.5
		c-1-1.4-2.9-3.2-4.2-4.2C119.1,287.1,112,286.5,108.4,288.1"/>
</g>
</svg>
