<?xml version="1.0" encoding="utf-8"?>
<!-- Generator: Adobe Illustrator 25.4.0, SVG Export Plug-In . SVG Version: 6.00 Build 0)  -->
<svg version="1.1" id="Layer_1" xmlns="http://www.w3.org/2000/svg" xmlns:xlink="http://www.w3.org/1999/xlink" x="0px" y="0px"
	 viewBox="0 0 514 514" style="enable-background:new 0 0 514 514;" xml:space="preserve">
<g>
	<path d="M254.2,58.2c-1.5,0.3-3.6,1-4.7,1.5c-5.1,2.8-173.6,125.3-177.4,129c-5.1,4.9-9.6,12.3-12.1,19.6l-1.8,5.2l-0.2,113.4
		c-0.2,82.4,0,114.3,0.7,116.8c1.2,4.5,7.1,10.4,11.6,11.6c2.4,0.6,22.4,0.8,70.1,0.7l66.8-0.2l3.8-2.2c2.1-1.2,4.8-3.7,5.9-5.5
		l2.2-3.3l0.4-46.9c0.4-43,0.5-47.3,1.9-50.9c2-5.4,4.1-8.9,7.9-13c19.5-20.7,52.7-12.9,61.5,14.6c0.8,2.4,1.1,14.9,1.5,49.8
		l0.4,46.6l2.4,3.4c1.3,1.9,4,4.3,5.9,5.4l3.5,2h138.7l3.9-2.4c2.4-1.5,4.8-3.9,6.3-6.3l2.4-3.9l0.2-112.3c0.2-97,0-113-1-118
		c-1.6-8-6.6-17.6-11.7-22.9c-3.6-3.8-173.1-127.2-178.8-130.2C261.7,58.3,257.5,57.6,254.2,58.2L254.2,58.2z M175.1,153.8
		c44.2-32,80.8-58.1,81.3-58.2c0.5,0,37.2,26.3,81.5,58.5c72,52.4,80.7,58.9,82.4,62.1l1.8,3.5v203.1h-95.7l-0.3-37.1
		c-0.3-34.5-0.5-37.6-2-43.2c-8.1-29.5-31.1-49.8-60.2-53.1c-37.2-4.2-71.8,23.8-76.1,61.6c-0.4,3.9-0.8,21.5-0.8,39l0,32H91.1V219
		l1.8-3.5C94.5,212.2,101.6,206.9,175.1,153.8"/>
	<path d="M249.5,59.7l0.4,0.7l0,0L249.5,59.7z M72.1,188.7l0.5,0.6h0L72.1,188.7z M60,208.3l0.7,0.3h0L60,208.3z M58.3,213.5
		l-0.7-0.3l0,0.1l0,0.1L58.3,213.5z M58.1,326.9l-0.8,0l0,0L58.1,326.9z M58.7,443.7l-0.8,0.2h0L58.7,443.7z M70.3,455.3l0.2-0.8
		l0,0L70.3,455.3z M140.4,455.9l0,0.8l0,0L140.4,455.9z M207.1,455.7l0,0.8h0.2l0.2-0.1L207.1,455.7z M210.9,453.5l0.4,0.7l0,0
		L210.9,453.5z M216.8,448l-0.6-0.4v0L216.8,448z M219,444.7l0.6,0.4l0.1-0.2l0-0.2L219,444.7z M219.4,397.8l-0.8,0l0,0L219.4,397.8
		z M221.3,346.9l-0.7-0.3l0,0L221.3,346.9z M229.2,333.9l-0.6-0.5l0,0L229.2,333.9z M290.7,348.5l0.7-0.2l0,0L290.7,348.5z
		 M292.2,398.3l-0.8,0l0,0L292.2,398.3z M292.6,444.9l-0.8,0l0,0.2l0.1,0.2L292.6,444.9z M295,448.3l-0.6,0.4v0L295,448.3z
		 M301,453.7l-0.4,0.7h0L301,453.7z M304.5,455.7l-0.4,0.7l0.2,0.1h0.2V455.7z M443.2,455.7v0.8h0.2l0.2-0.1L443.2,455.7z
		 M447.1,453.3l0.4,0.7l0,0L447.1,453.3z M453.3,447l0.7,0.4l0,0L453.3,447z M455.7,443.1l0.7,0.4l0.1-0.2l0-0.2L455.7,443.1z
		 M455.9,330.9l-0.8,0l0,0L455.9,330.9z M455,212.9l0.8-0.2l0,0L455,212.9z M443.3,190l-0.6,0.5l0,0L443.3,190z M264.5,59.8
		l-0.4,0.7v0L264.5,59.8z M92.9,215.4l-0.7-0.3l0,0L92.9,215.4z M91.1,219l-0.7-0.3l-0.1,0.2v0.2H91.1z M91.1,422h-0.8v0.8h0.8V422z
		 M186.9,422v0.8h0.8V422H186.9z M186.9,390h-0.8l0,0H186.9z M187.8,351l-0.8-0.1l0,0L187.8,351z M263.8,289.3l0.1-0.8l0,0
		L263.8,289.3z M324.1,342.5l0.8-0.2l0,0L324.1,342.5z M326.1,385.6l-0.8,0l0,0L326.1,385.6z M326.4,422.8l-0.8,0l0,0.8h0.8V422.8z
		 M422.1,422.8v0.8h0.8v-0.8H422.1z M422.1,219.7h0.8v-0.2l-0.1-0.2L422.1,219.7z M420.2,216.2l0.7-0.4l0,0L420.2,216.2z
		 M337.9,154.1l-0.5,0.6l0,0L337.9,154.1z M254.1,57.4c-1.6,0.3-3.8,1-4.9,1.6l0.7,1.4c1-0.5,3-1.2,4.5-1.5L254.1,57.4z M249.1,59.1
		c-0.4,0.2-1.4,0.9-2.9,1.9c-1.5,1.1-3.6,2.5-6.1,4.3c-5.1,3.6-12.1,8.7-20.4,14.6c-16.6,11.9-38.2,27.6-59.9,43.3
		c-21.6,15.7-43.2,31.5-59.6,43.5c-8.2,6-15.1,11.1-20.1,14.8c-2.5,1.9-4.5,3.4-5.9,4.5c-1.4,1.1-2.4,1.8-2.6,2.1l1.1,1.1
		c0.2-0.2,1-0.8,2.5-2c1.4-1.1,3.4-2.6,5.9-4.5c5-3.7,11.9-8.8,20.1-14.8c16.4-12,38-27.8,59.6-43.5c21.6-15.7,43.3-31.4,59.8-43.3
		c8.3-6,15.3-11,20.4-14.6c2.6-1.8,4.6-3.3,6.1-4.3c1.5-1.1,2.4-1.7,2.7-1.8L249.1,59.1z M71.6,188.2c-5.2,5-9.8,12.5-12.3,19.9
		l1.5,0.5c2.5-7.2,6.9-14.4,11.9-19.3L71.6,188.2z M59.3,208.1l-1.8,5.2l1.5,0.5l1.8-5.2L59.3,208.1z M57.5,213.5l-0.2,113.4l1.6,0
		l0.2-113.4L57.5,213.5z M57.3,326.9c-0.1,41.2-0.1,69.8,0,88.4c0.1,9.3,0.1,16.1,0.2,20.7c0.1,2.3,0.1,4.1,0.2,5.4
		c0,0.6,0.1,1.2,0.1,1.6c0,0.4,0.1,0.7,0.1,0.9l1.5-0.4c0-0.1-0.1-0.3-0.1-0.7c0-0.4-0.1-0.9-0.1-1.5c-0.1-1.3-0.1-3-0.2-5.3
		c-0.1-4.6-0.2-11.4-0.2-20.7c-0.1-18.6-0.1-47.2,0-88.3L57.3,326.9z M58,443.9c0.6,2.4,2.5,5.1,4.8,7.4c2.2,2.2,4.9,4.1,7.4,4.8
		l0.4-1.5c-2-0.6-4.5-2.2-6.7-4.4c-2.1-2.1-3.8-4.6-4.4-6.7L58,443.9z M70.1,456c0.4,0.1,1,0.2,1.9,0.2c0.9,0.1,2.1,0.1,3.5,0.2
		c3,0.1,7.2,0.2,12.8,0.2c11.3,0.1,28.2,0.1,52,0l0-1.6c-23.8,0.1-40.8,0.1-52,0c-5.6-0.1-9.8-0.1-12.8-0.2
		c-1.5-0.1-2.6-0.1-3.5-0.2c-0.9-0.1-1.4-0.1-1.6-0.2L70.1,456z M140.4,456.7l66.8-0.2l0-1.6l-66.8,0.2L140.4,456.7z M207.5,456.4
		l3.8-2.2l-0.8-1.3l-3.8,2.2L207.5,456.4z M211.3,454.2c2.2-1.3,4.9-3.8,6.2-5.7l-1.3-0.9c-1.1,1.7-3.7,4.1-5.7,5.3L211.3,454.2z
		 M217.5,448.4l2.2-3.3l-1.3-0.9l-2.2,3.3L217.5,448.4z M219.8,444.7l0.4-46.9l-1.6,0l-0.4,46.9L219.8,444.7z M220.2,397.8
		c0.2-21.5,0.3-33.3,0.6-40.2c0.3-6.9,0.6-8.8,1.2-10.5l-1.5-0.5c-0.7,1.9-1.1,4-1.3,10.9c-0.3,6.9-0.4,18.7-0.6,40.2L220.2,397.8z
		 M222,347.2c2-5.3,4-8.7,7.8-12.7l-1.1-1.1c-3.9,4.1-6.1,7.7-8.1,13.2L222,347.2z M229.8,334.5c19.1-20.3,51.5-12.6,60.2,14.3
		l1.5-0.5c-9-28-42.9-36-62.8-14.9L229.8,334.5z M290,348.7c0.2,0.5,0.3,1.6,0.5,3.7c0.1,2,0.3,4.9,0.4,8.8
		c0.2,7.8,0.4,19.6,0.6,37.1l1.6,0c-0.2-17.4-0.3-29.3-0.6-37.1c-0.1-3.9-0.2-6.8-0.4-8.9c-0.1-2-0.3-3.4-0.5-4.1L290,348.7z
		 M291.4,398.3l0.4,46.6l1.6,0l-0.4-46.6L291.4,398.3z M292,445.3l2.4,3.4l1.3-0.9l-2.4-3.4L292,445.3z M294.4,448.8
		c1.4,2,4.1,4.5,6.2,5.7l0.8-1.4c-1.8-1-4.4-3.4-5.7-5.2L294.4,448.8z M300.6,454.4l3.5,2l0.8-1.4l-3.5-2L300.6,454.4z M304.5,456.5
		h138.7V455H304.5V456.5z M443.6,456.4l3.9-2.4l-0.8-1.3l-3.9,2.4L443.6,456.4z M447.5,454c2.5-1.6,5-4,6.5-6.5l-1.3-0.8
		c-1.4,2.3-3.7,4.6-6,6L447.5,454z M454,447.4l2.4-3.9l-1.3-0.8l-2.4,3.9L454,447.4z M456.5,443.1l0.2-112.3l-1.6,0l-0.2,112.3
		L456.5,443.1z M456.7,330.9c0.1-48.5,0.1-76.7,0-93.5c-0.1-16.7-0.4-22.1-1-24.7l-1.5,0.3c0.5,2.4,0.8,7.6,0.9,24.4
		c0.1,16.8,0.1,45,0,93.5L456.7,330.9z M455.7,212.7c-1.7-8.1-6.6-17.9-11.9-23.3l-1.1,1.1c5,5.2,9.9,14.7,11.5,22.5L455.7,212.7z
		 M443.8,189.4c-0.2-0.2-0.5-0.4-0.9-0.8c-0.4-0.3-1-0.8-1.7-1.4c-1.4-1.1-3.5-2.6-6-4.5c-5-3.7-11.9-8.9-20.2-15
		c-16.5-12.2-38.2-28-60-43.9c-21.8-15.9-43.6-31.7-60.3-43.7c-8.4-6-15.5-11.1-20.7-14.8c-2.6-1.8-4.7-3.3-6.3-4.4
		c-1.5-1.1-2.6-1.7-3-2l-0.7,1.4c0.3,0.2,1.3,0.8,2.8,1.9c1.5,1.1,3.7,2.5,6.2,4.4c5.2,3.7,12.3,8.7,20.6,14.8
		c16.7,12.1,38.6,27.9,60.3,43.7c21.8,15.9,43.5,31.7,60,43.9c8.2,6.1,15.2,11.2,20.2,15c2.5,1.9,4.5,3.4,5.9,4.5
		c0.7,0.6,1.3,1,1.7,1.3c0.4,0.4,0.7,0.6,0.7,0.6L443.8,189.4z M264.9,59.1c-2.9-1.6-7.4-2.2-10.8-1.6l0.3,1.5
		c3.1-0.5,7.2,0.1,9.8,1.5L264.9,59.1z M174.6,153.1c-36.7,26.5-56.8,41.2-68,49.5c-5.6,4.2-8.9,6.8-11,8.6
		c-2.1,1.8-2.9,2.8-3.4,3.8l1.4,0.7c0.3-0.7,1-1.5,3-3.3c2-1.8,5.3-4.4,10.9-8.6c11.1-8.4,31.3-23,68-49.5L174.6,153.1z M92.2,215.1
		l-1.8,3.5l1.4,0.7l1.8-3.5L92.2,215.1z M90.4,219v203h1.6V219H90.4z M91.1,422.8h95.8v-1.6H91.1V422.8z M187.7,422l0-32h-1.6l0,32
		L187.7,422z M187.7,390c0-17.6,0.4-35.1,0.8-39l-1.5-0.2c-0.5,3.9-0.8,21.6-0.8,39.1H187.7z M188.5,351
		c4.3-37.4,38.5-65.1,75.2-60.9l0.2-1.5c-37.6-4.3-72.6,24-77,62.3L188.5,351z M263.8,290.1c28.8,3.3,51.6,23.4,59.6,52.6l1.5-0.4
		c-8.1-29.8-31.5-50.4-60.9-53.7L263.8,290.1z M323.3,342.7c1.5,5.5,1.6,8.3,2,43l1.6,0c-0.3-34.5-0.4-37.6-2-43.4L323.3,342.7z
		 M325.3,385.6l0.3,37.1l1.6,0l-0.3-37.1L325.3,385.6z M326.4,423.5h95.7V422h-95.7V423.5z M422.9,422.8V219.7h-1.6v203.1H422.9z
		 M422.8,219.3l-1.8-3.5l-1.4,0.7l1.8,3.5L422.8,219.3z M420.9,215.8c-0.5-0.9-1.4-2-3.6-3.9c-2.2-1.9-5.7-4.7-11.4-8.9
		c-11.4-8.6-31.6-23.3-67.6-49.5l-0.9,1.3c36,26.2,56.2,40.9,67.6,49.5c5.7,4.3,9.2,7,11.3,8.9c2.2,1.9,2.9,2.8,3.3,3.4L420.9,215.8
		z M338.3,153.5c-22.1-16.1-42.4-30.7-57.2-41.4c-7.4-5.3-13.4-9.6-17.6-12.6c-2.1-1.5-3.8-2.6-4.9-3.4c-0.6-0.4-1-0.7-1.3-0.9
		c-0.2-0.1-0.3-0.2-0.4-0.2c0,0-0.1-0.1-0.2-0.1c0,0-0.1,0-0.1,0c0,0-0.2-0.1-0.3,0l0.1,1.5c-0.2,0-0.3,0-0.3,0c0,0,0,0-0.1,0
		c0,0,0,0,0,0c0.1,0,0.2,0.1,0.3,0.2c0.3,0.2,0.7,0.5,1.3,0.9c1.1,0.8,2.8,1.9,4.9,3.4c4.2,3,10.2,7.3,17.6,12.6
		c14.8,10.6,35,25.2,57.1,41.3L338.3,153.5z M256.3,94.8c-0.1,0-0.2,0.1-0.3,0.1c0,0-0.1,0-0.1,0c0,0-0.1,0.1-0.1,0.1
		c-0.1,0.1-0.2,0.1-0.4,0.2c-0.3,0.2-0.8,0.5-1.3,0.9c-1.1,0.8-2.8,1.9-4.9,3.4c-4.2,3-10.2,7.2-17.6,12.5
		c-14.7,10.5-34.9,25.1-57,41.1l0.9,1.3c22.1-16,42.3-30.5,57-41.1c7.4-5.3,13.4-9.5,17.6-12.5c2.1-1.5,3.7-2.6,4.9-3.4
		c0.6-0.4,1-0.7,1.3-0.9c0.2-0.1,0.3-0.2,0.3-0.2c0,0,0.1,0,0.1,0c0,0,0,0,0,0c0,0,0,0-0.1,0c0,0-0.1,0-0.2,0L256.3,94.8z"/>
</g>
</svg>
