<svg width="520" height="520" viewBox="0 0 520 520" fill="none" xmlns="http://www.w3.org/2000/svg">
    <path
        d="M252.58 1.53397C250.696 2.3911 194.349 58.116 127.364 125.367C-5.07063 258.326 2.7995 249.651 4.8224 260.46C5.87609 266.092 12.7051 272.938 18.324 273.994C29.0915 276.02 21.1289 283.24 145.555 158.601L260 43.9602L374.445 158.601C498.871 283.24 490.909 276.02 501.676 273.994C507.295 272.938 514.124 266.092 515.178 260.46C517.201 249.651 525.071 258.326 392.636 125.366C321.314 53.7583 269.323 2.42544 267.171 1.4882C262.585 -0.512153 257.038 -0.494991 252.58 1.53397V1.53397ZM69.868 294.39C65.2537 296.49 60.475 302.326 59.6325 306.896C59.258 308.923 59.129 339.162 59.3459 374.094C59.7318 436.333 59.7923 437.778 62.338 446.158C71.7128 477.01 95.3677 500.477 126.092 509.404L134.996 511.99H260C401.012 511.99 389.97 512.663 410.119 502.838C433.439 491.466 450.334 471.134 457.724 445.552C460.329 436.535 460.349 435.934 460.349 370.46C460.349 305.582 460.309 304.403 457.995 301.296C453.524 295.291 449.874 293.416 442.655 293.416C435.436 293.416 431.788 295.289 427.314 301.294C425.018 304.373 424.945 306.055 424.387 368.741L423.814 433.029L421.08 439.895C414.057 457.527 398.587 471.031 381.238 474.672C372.75 476.454 147.25 476.454 138.762 474.672C131.639 473.178 119.405 466.974 114.177 462.206C106.703 455.391 101.616 447.517 97.5447 436.462C96.7045 434.182 96.0721 411.431 95.66 368.741C95.056 306.093 94.9796 304.371 92.6861 301.294C91.3915 299.557 88.9896 297.13 87.3492 295.902C83.5705 293.074 74.4891 292.289 69.868 294.39"
        fill="black" />
</svg>