<svg width="512" height="512" viewBox="0 0 512 512" fill="none" xmlns="http://www.w3.org/2000/svg">
    <path
        d="M252.433 0.263436C250.472 0.605742 247.747 1.49369 246.379 2.23859C239.826 5.7996 23.0579 163.435 18.17 168.194C11.6401 174.549 5.80903 183.982 2.61083 193.364L0.345614 200.006L0.0675542 345.927C-0.134115 451.869 0.104221 493.023 0.9384 496.132C2.48148 501.882 10.0879 509.514 15.8182 511.062C18.8626 511.884 44.6345 512.134 105.956 511.935L191.83 511.657L196.69 508.791C199.364 507.215 202.802 504.031 204.329 501.715L207.108 497.505L207.629 437.142C208.107 381.849 208.308 376.35 210.024 371.67C212.588 364.68 215.329 360.206 220.251 354.973C245.351 328.294 288.021 338.4 299.384 373.713C300.368 376.773 300.842 392.882 301.265 437.746L301.832 497.69L304.932 502.12C306.638 504.555 310.076 507.698 312.571 509.103L317.11 511.657H495.513L500.499 508.566C503.589 506.649 506.657 503.571 508.567 500.471L511.65 495.469L511.914 351.043C512.144 226.303 511.972 205.609 510.661 199.224C508.558 188.993 502.225 176.56 495.645 169.752C490.95 164.892 272.947 6.11432 265.674 2.25699C262.095 0.358464 256.619 -0.466136 252.433 0.263436V0.263436ZM150.579 123.212C207.439 82.0981 254.52 48.4162 255.203 48.3631C255.887 48.3099 303.062 82.1788 360.037 123.625C452.716 191.045 463.877 199.458 465.995 203.487L468.362 207.991V469.252H345.306L344.871 421.483C344.466 377.044 344.288 373.174 342.317 365.969C331.94 328.036 302.266 301.863 264.812 297.606C216.964 292.169 172.473 328.193 166.914 376.872C166.342 381.879 165.871 404.483 165.865 427.103L165.857 468.231H42.6148V207.081L44.9065 202.522C47.0006 198.358 56.1134 191.518 150.579 123.212"
        fill="black" />
    <path
        d="M246.379 2.23859L246.856 3.11722L246.857 3.11697L246.379 2.23859ZM18.17 168.194L18.8674 168.91L18.8675 168.91L18.17 168.194ZM2.61083 193.364L3.5573 193.687L3.55735 193.687L2.61083 193.364ZM0.345614 200.006L-0.600854 199.683L-0.65407 199.839L-0.654385 200.004L0.345614 200.006ZM0.0675542 345.927L-0.932444 345.925L-0.932444 345.925L0.0675542 345.927ZM0.9384 496.132L-0.027446 496.391L-0.027423 496.391L0.9384 496.132ZM15.8182 511.062L16.079 510.096L16.079 510.096L15.8182 511.062ZM105.956 511.935L105.96 512.935L105.96 512.935L105.956 511.935ZM191.83 511.657L191.833 512.657L192.104 512.657L192.338 512.519L191.83 511.657ZM196.69 508.791L197.198 509.653L197.198 509.653L196.69 508.791ZM204.329 501.715L203.495 501.164L203.495 501.165L204.329 501.715ZM207.108 497.505L207.943 498.056L208.105 497.81L208.108 497.514L207.108 497.505ZM207.629 437.142L206.629 437.133L206.629 437.133L207.629 437.142ZM210.024 371.67L209.085 371.325L209.085 371.325L210.024 371.67ZM220.251 354.973L219.523 354.288L219.523 354.288L220.251 354.973ZM299.384 373.713L300.336 373.407L300.336 373.407L299.384 373.713ZM301.265 437.746L300.265 437.755L300.265 437.755L301.265 437.746ZM301.832 497.69L300.832 497.7L300.835 498.01L301.012 498.264L301.832 497.69ZM304.932 502.12L304.113 502.693L304.113 502.694L304.932 502.12ZM312.571 509.103L312.08 509.974L312.081 509.974L312.571 509.103ZM317.11 511.657L316.619 512.529L316.848 512.657H317.11V511.657ZM495.513 511.657V512.657H495.798L496.04 512.507L495.513 511.657ZM500.499 508.566L501.026 509.415L501.026 509.415L500.499 508.566ZM508.567 500.471L509.419 500.995L509.419 500.995L508.567 500.471ZM511.65 495.469L512.501 495.994L512.649 495.753L512.65 495.471L511.65 495.469ZM511.914 351.043L510.914 351.042L510.914 351.042L511.914 351.043ZM510.661 199.224L511.64 199.023L511.64 199.023L510.661 199.224ZM495.645 169.752L494.926 170.447L494.926 170.447L495.645 169.752ZM265.674 2.25699L265.205 3.1404L265.205 3.14043L265.674 2.25699ZM44.9065 202.522L44.013 202.073L44.013 202.073L44.9065 202.522ZM42.6148 207.081L41.7213 206.632L41.6148 206.843V207.081H42.6148ZM42.6148 468.231H41.6148V469.231H42.6148V468.231ZM165.857 468.231V469.231H166.857L166.857 468.231L165.857 468.231ZM165.865 427.103L164.865 427.103L164.865 427.103L165.865 427.103ZM166.914 376.872L165.92 376.758L165.92 376.758L166.914 376.872ZM264.812 297.606L264.925 296.612L264.925 296.612L264.812 297.606ZM342.317 365.969L343.282 365.705L343.282 365.705L342.317 365.969ZM344.871 421.483L343.871 421.492L343.871 421.492L344.871 421.483ZM345.306 469.252L344.306 469.262L344.315 470.252H345.306V469.252ZM468.362 469.252V470.252H469.362V469.252H468.362ZM468.362 207.991H469.362V207.744L469.247 207.526L468.362 207.991ZM465.995 203.487L466.88 203.022L466.88 203.022L465.995 203.487ZM360.037 123.625L359.448 124.434L359.448 124.434L360.037 123.625ZM252.261 -0.721664C250.222 -0.365673 247.388 0.551028 245.901 1.36022L246.857 3.11697C248.107 2.43636 250.722 1.57716 252.605 1.24854L252.261 -0.721664ZM245.901 1.35997C245.431 1.61542 244.143 2.48135 242.22 3.81514C240.266 5.16962 237.596 7.05036 234.313 9.38132C227.746 14.0437 218.72 20.5136 208.06 28.1907C186.738 43.5454 158.874 63.7334 131.062 83.9583C103.25 104.183 75.4898 124.446 54.3764 139.95C43.8199 147.702 34.9236 154.266 28.5131 159.041C25.3081 161.428 22.7222 163.369 20.8599 164.79C19.0315 166.184 17.833 167.126 17.4724 167.477L18.8675 168.91C19.1179 168.666 20.1858 167.819 22.0728 166.38C23.926 164.967 26.5049 163.03 29.7078 160.645C36.1129 155.874 45.0048 149.314 55.5601 141.562C76.6702 126.061 104.428 105.8 132.238 85.5758C160.049 65.3519 187.91 45.1659 209.228 29.8137C219.888 22.1374 228.91 15.6706 235.471 11.0121C238.752 8.6826 241.415 6.80685 243.359 5.45867C245.333 4.08979 246.507 3.3069 246.856 3.11722L245.901 1.35997ZM17.4725 167.477C10.8201 173.952 4.9088 183.523 1.66431 193.041L3.55735 193.687C6.70926 184.44 12.4602 175.147 18.8674 168.91L17.4725 167.477ZM1.66437 193.041L-0.600854 199.683L1.29208 200.328L3.5573 193.687L1.66437 193.041ZM-0.654385 200.004L-0.932444 345.925L1.06755 345.929L1.34561 200.008L-0.654385 200.004ZM-0.932444 345.925C-1.03328 398.896 -1.02412 435.674 -0.885449 459.598C-0.816118 471.559 -0.714388 480.312 -0.577686 486.272C-0.509354 489.251 -0.432135 491.539 -0.345403 493.183C-0.302067 494.005 -0.255958 494.674 -0.206544 495.192C-0.159117 495.689 -0.103615 496.107 -0.027446 496.391L1.90425 495.873C1.87614 495.768 1.83203 495.501 1.78442 495.002C1.73879 494.524 1.69444 493.886 1.65182 493.078C1.56664 491.463 1.48996 489.198 1.42179 486.226C1.28549 480.284 1.18383 471.545 1.11452 459.586C0.975894 435.671 0.966718 398.9 1.06755 345.929L-0.932444 345.925ZM-0.027423 496.391C0.80831 499.505 3.2299 502.999 6.09979 505.879C8.96942 508.758 12.4519 511.188 15.5574 512.027L16.079 510.096C13.4541 509.387 10.2683 507.228 7.51637 504.467C4.76472 501.706 2.61157 498.509 1.90422 495.873L-0.027423 496.391ZM15.5573 512.027C16.042 512.158 16.8685 512.256 17.9741 512.341C19.1093 512.427 20.6204 512.504 22.5275 512.573C26.3431 512.709 31.7766 512.811 39.0235 512.881C53.5193 513.022 75.2983 513.035 105.96 512.935L105.953 510.935C75.2926 511.035 53.5247 511.022 39.0429 510.881C31.8011 510.811 26.3882 510.709 22.599 510.574C20.7036 510.506 19.2228 510.43 18.1263 510.347C17.0002 510.261 16.3554 510.171 16.079 510.096L15.5573 512.027ZM105.96 512.935L191.833 512.657L191.827 510.658L105.953 510.935L105.96 512.935ZM192.338 512.519L197.198 509.653L196.182 507.93L191.322 510.796L192.338 512.519ZM197.198 509.653C199.987 508.008 203.543 504.723 205.164 502.266L203.495 501.165C202.06 503.338 198.741 506.421 196.182 507.93L197.198 509.653ZM205.164 502.266L207.943 498.056L206.273 496.955L203.495 501.164L205.164 502.266ZM208.108 497.514L208.629 437.151L206.629 437.133L206.108 497.497L208.108 497.514ZM208.629 437.151C208.868 409.497 209.038 394.316 209.362 385.462C209.686 376.593 210.165 374.191 210.963 372.014L209.085 371.325C208.167 373.828 207.687 376.515 207.363 385.389C207.038 394.278 206.868 409.494 206.629 437.133L208.629 437.151ZM210.963 372.014C213.482 365.147 216.153 360.789 220.979 355.658L219.523 354.288C214.504 359.623 211.694 364.214 209.085 371.325L210.963 372.014ZM220.979 355.658C245.538 329.554 287.294 339.404 298.432 374.02L300.336 373.407C288.749 337.395 245.163 327.034 219.523 354.288L220.979 355.658ZM298.432 374.019C298.635 374.65 298.845 376.108 299.036 378.772C299.224 381.392 299.388 385.078 299.535 390.082C299.829 400.089 300.053 415.323 300.265 437.755L302.265 437.736C302.053 415.305 301.829 400.053 301.534 390.024C301.387 385.01 301.222 381.291 301.031 378.629C300.843 376.009 300.625 374.306 300.336 373.407L298.432 374.019ZM300.265 437.755L300.832 497.7L302.832 497.681L302.265 437.736L300.265 437.755ZM301.012 498.264L304.113 502.693L305.751 501.546L302.651 497.117L301.012 498.264ZM304.113 502.694C305.901 505.246 309.449 508.493 312.08 509.974L313.062 508.232C310.702 506.903 307.375 503.864 305.751 501.546L304.113 502.694ZM312.081 509.974L316.619 512.529L317.6 510.786L313.062 508.232L312.081 509.974ZM317.11 512.657H495.513V510.657H317.11V512.657ZM496.04 512.507L501.026 509.415L499.972 507.716L494.986 510.808L496.04 512.507ZM501.026 509.415C504.248 507.416 507.427 504.227 509.419 500.995L507.716 499.946C505.887 502.914 502.93 505.881 499.971 507.716L501.026 509.415ZM509.419 500.995L512.501 495.994L510.798 494.944L507.716 499.946L509.419 500.995ZM512.65 495.471L512.914 351.045L510.914 351.042L510.65 495.467L512.65 495.471ZM512.914 351.045C513.029 288.677 513.043 252.313 512.865 230.742C512.688 209.228 512.321 202.335 511.64 199.023L509.681 199.425C510.312 202.498 510.687 209.145 510.865 230.759C511.043 252.317 511.029 288.67 510.914 351.042L512.914 351.045ZM511.64 199.023C509.504 188.625 503.089 176.016 496.364 169.057L494.926 170.447C501.361 177.105 507.613 189.36 509.681 199.425L511.64 199.023ZM496.364 169.057C496.166 168.851 495.757 168.508 495.22 168.076C494.662 167.626 493.91 167.038 492.979 166.32C491.117 164.885 488.527 162.926 485.314 160.518C478.886 155.701 469.954 149.083 459.347 141.268C438.134 125.637 410.214 105.213 382.215 84.8202C354.216 64.4276 326.135 44.0657 304.599 28.5604C293.831 20.808 284.698 14.2686 278.029 9.54606C274.694 7.18506 271.973 5.27643 269.971 3.89681C267.998 2.53791 266.661 1.64877 266.142 1.37354L265.205 3.14043C265.595 3.34737 266.814 4.15071 268.836 5.54381C270.828 6.91619 273.541 8.81908 276.873 11.1783C283.536 15.8963 292.664 22.4322 303.431 30.1835C324.963 45.6859 353.04 66.0455 381.037 86.4369C409.035 106.828 436.951 127.251 458.161 142.878C468.766 150.692 477.693 157.306 484.114 162.118C487.325 164.524 489.907 166.478 491.758 167.904C492.684 168.618 493.424 169.197 493.966 169.634C494.53 170.088 494.831 170.349 494.926 170.447L496.364 169.057ZM266.142 1.37357C262.357 -0.634332 256.655 -1.48743 252.261 -0.721715L252.604 1.24859C256.583 0.555157 261.832 1.35126 265.205 3.1404L266.142 1.37357ZM149.993 122.401C102.764 156.552 76.8603 175.345 62.5032 186.12C55.3285 191.505 51.0145 194.905 48.3589 197.226C45.7122 199.539 44.6271 200.852 44.013 202.073L45.7999 202.972C46.2329 202.11 47.0722 201.007 49.6751 198.731C52.2692 196.464 56.5302 193.104 63.7037 187.72C78.043 176.958 103.929 158.178 151.165 124.022L149.993 122.401ZM44.013 202.073L41.7213 206.632L43.5082 207.53L45.7999 202.972L44.013 202.073ZM41.6148 207.081V468.231H43.6148V207.081H41.6148ZM42.6148 469.231H165.857V467.231H42.6148V469.231ZM166.857 468.231L166.865 427.103L164.865 427.103L164.857 468.23L166.857 468.231ZM166.865 427.103C166.871 404.458 167.344 381.922 167.907 376.985L165.92 376.758C165.341 381.835 164.871 404.508 164.865 427.103L166.865 427.103ZM167.907 376.985C173.405 328.838 217.416 293.227 264.699 298.599L264.925 296.612C216.513 291.111 171.54 327.547 165.92 376.758L167.907 376.985ZM264.699 298.599C301.724 302.808 331.078 328.672 341.353 366.233L343.282 365.705C332.803 327.4 302.809 300.918 264.925 296.612L264.699 298.599ZM341.353 366.233C343.28 373.278 343.466 376.972 343.871 421.492L345.871 421.474C345.467 377.117 345.296 373.07 343.282 365.705L341.353 366.233ZM343.871 421.492L344.306 469.262L346.306 469.243L345.871 421.474L343.871 421.492ZM345.306 470.252H468.362V468.252H345.306V470.252ZM469.362 469.252V207.991H467.362V469.252H469.362ZM469.247 207.526L466.88 203.022L465.11 203.952L467.477 208.456L469.247 207.526ZM466.88 203.022C466.255 201.833 465.029 200.446 462.232 198.033C459.412 195.601 454.899 192.047 447.578 186.529C432.93 175.489 406.962 156.525 360.625 122.817L359.448 124.434C405.791 158.146 431.743 177.099 446.375 188.126C453.693 193.643 458.16 197.162 460.925 199.547C463.712 201.951 464.676 203.127 465.11 203.952L466.88 203.022ZM360.625 122.817C332.136 102.093 306.097 83.2625 287.094 69.6195C277.593 62.7983 269.848 57.2725 264.436 53.4548C261.73 51.5464 259.604 50.0624 258.131 49.0561C257.396 48.5537 256.817 48.166 256.408 47.9031C256.205 47.7727 256.033 47.6659 255.9 47.5896C255.836 47.5525 255.764 47.5131 255.695 47.4804C255.661 47.4646 255.609 47.4413 255.548 47.4206C255.524 47.4126 255.349 47.3487 255.126 47.3661L255.281 49.3601C255.068 49.3766 254.909 49.316 254.908 49.3155C254.868 49.3021 254.844 49.2904 254.843 49.2902C254.84 49.2888 254.858 49.297 254.904 49.3238C254.993 49.375 255.132 49.4604 255.326 49.5853C255.711 49.8329 256.272 50.2079 257.003 50.7075C258.463 51.7051 260.58 53.1822 263.283 55.0891C268.689 58.9021 276.428 64.424 285.927 71.2442C304.926 84.884 330.962 103.712 359.448 124.434L360.625 122.817ZM255.126 47.3661C254.951 47.3796 254.818 47.4376 254.799 47.4453C254.75 47.4653 254.708 47.4864 254.678 47.5017C254.617 47.5331 254.552 47.5709 254.49 47.6084C254.362 47.6851 254.194 47.7922 253.992 47.9243C253.586 48.1901 253.011 48.5798 252.277 49.0841C250.808 50.094 248.687 51.5774 245.987 53.4818C240.586 57.2913 232.858 62.7928 223.375 69.5764C204.411 83.1439 178.424 101.844 149.993 122.401L151.165 124.022C179.594 103.466 205.578 84.7681 224.539 71.203C234.02 64.4203 241.744 58.9218 247.14 55.1162C249.838 53.213 251.951 51.7351 253.41 50.7322C254.14 50.2302 254.701 49.8506 255.088 49.5971C255.283 49.4696 255.425 49.3795 255.519 49.3232C255.567 49.2941 255.591 49.2814 255.596 49.2785C255.6 49.2766 255.585 49.2846 255.558 49.2956C255.545 49.3012 255.518 49.3117 255.482 49.3226C255.453 49.3314 255.379 49.3524 255.281 49.3601L255.126 47.3661Z"
        fill="black" />

</svg>