<svg width="512" height="512" viewBox="0 0 512 512" fill="none" xmlns="http://www.w3.org/2000/svg">
    <path fill-rule="evenodd" clip-rule="evenodd"
        d="M16.3183 2.36914C10.4395 5.26595 4.1674 11.6515 1.92118 17.0265C-0.487675 22.7935 -0.371699 33.6889 2.1638 39.8144C3.60084 43.2871 35.8264 76.4012 109.798 150.419L215.38 256.066L109.798 361.714C35.8264 435.731 3.60084 468.846 2.1638 472.318C-2.94185 484.653 1.26397 499.797 11.8725 507.269C18.3752 511.85 29.9329 513.344 38.2966 510.687C42.4584 509.365 63.6822 488.841 149.753 402.905L256.069 296.756L361.711 402.336C435.723 476.306 468.836 508.532 472.309 509.969C482.789 514.307 496.595 511.379 504.274 503.19C511.762 495.205 514.123 482.379 509.959 472.318C508.522 468.846 476.296 435.731 402.328 361.718L296.75 256.074L402.897 149.756C488.831 63.6835 509.355 42.4593 510.677 38.2974C513.334 29.9335 511.84 18.3756 507.259 11.8728C499.787 1.264 484.644 -2.94191 472.309 2.16384C468.836 3.60092 435.723 35.8271 361.707 109.801L256.061 215.384L150.416 109.801C76.3997 35.8271 43.2863 3.60092 39.8136 2.16384C33.3642 -0.506349 21.9505 -0.406367 16.3183 2.36914Z"
        fill="black" />
</svg>