<svg width="448" height="449" viewBox="0 0 448 449" fill="none" xmlns="http://www.w3.org/2000/svg">
    <path
        d="M205.235 1.433V1.433C216.699 -0.747002 239.089 0.174001 251.17 3.323C299.547 15.935 333.416 57.303 335.714 106.589C337.229 139.097 325.768 168.477 302.578 191.531C288.308 205.718 271.443 215.305 251.17 220.756C242.58 223.065 239.601 223.359 224.5 223.387C204.934 223.423 196.674 221.859 180.302 215.018C153.6 203.861 130.455 180.243 120.115 153.601C113.774 137.262 112.487 129.98 112.587 111C112.663 96.588 113.001 93.276 115.259 84.83C123.994 52.157 144.671 26.622 174.5 11.672C184.235 6.793 193.792 3.609 205.235 1.433ZM212.5 32.933C194.405 35.902 179.401 43.709 166.897 56.661C151.428 72.685 144.691 89.412 144.608 112C144.555 126.374 146.595 135.371 152.639 147.413C160.18 162.439 172.4 174.905 186.96 182.425C218.076 198.496 253.529 193.59 278.638 169.739C310.735 139.25 312.341 89.78 282.27 57.903C271.35 46.327 259.668 39.165 244.947 35.019C236.644 32.681 220.4 31.637 212.5 32.933V32.933ZM125.5 256.663C63.713 264.899 15.935 308.482 2.90001 368.5C0.0530128 381.611 -0.69199 400.833 1.34201 408.725C6.24201 427.743 19.976 441.633 38.703 446.511C47.394 448.775 400.675 448.757 409.369 446.492C428.132 441.605 441.736 427.827 446.658 408.725C447.911 403.863 448.13 399.763 447.658 390C444.832 331.518 405.546 280.543 349.437 262.556C330.17 256.379 335.625 256.653 227.5 256.449C173.05 256.347 127.15 256.443 125.5 256.663V256.663ZM130.5 288.656C137.764 287.793 313.115 288.141 320 289.032C357.622 293.899 389.298 316.954 405.503 351.266C410.863 362.615 413.728 373.205 415.218 387.183C416.094 395.4 416.079 398.794 415.152 401.888C413.56 407.201 409.52 411.859 404.541 414.12C400.669 415.879 393.101 415.956 224 415.956C54.899 415.956 47.331 415.879 43.459 414.12C38.48 411.859 34.44 407.201 32.848 401.888C31.921 398.794 31.906 395.4 32.782 387.183C35.589 360.857 45.135 340.229 63.235 321.375C80.921 302.953 103.795 291.827 130.5 288.656"
        fill="black" />
</svg>