<?xml version="1.0" encoding="utf-8"?>
<!-- Generator: Adobe Illustrator 25.4.0, SVG Export Plug-In . SVG Version: 6.00 Build 0)  -->
<svg version="1.1" id="Layer_1" xmlns="http://www.w3.org/2000/svg" xmlns:xlink="http://www.w3.org/1999/xlink" x="0px" y="0px"
	 viewBox="0 0 513 513" style="enable-background:new 0 0 513 513;" xml:space="preserve">
<g>
	<path d="M239.8,58.2L239.8,58.2c10.2-1.9,30.1-1.1,40.9,1.7c43.1,11.2,73.2,48.1,75.3,91.9c1.3,28.9-8.9,55.1-29.5,75.6
		c-12.7,12.6-27.7,21.2-45.8,26c-7.6,2.1-10.3,2.3-23.7,2.3c-17.4,0-24.8-1.4-39.3-7.5c-23.8-9.9-44.4-31-53.6-54.7
		c-5.6-14.5-6.8-21-6.7-37.9c0.1-12.8,0.4-15.8,2.4-23.3c7.8-29.1,26.2-51.8,52.7-65.1C221.1,62.9,229.6,60.1,239.8,58.2z
		 M246.2,86.2c-16.1,2.6-29.5,9.6-40.6,21.1c-13.8,14.3-19.8,29.2-19.8,49.3c0,12.8,1.8,20.8,7.1,31.5c6.7,13.4,17.6,24.5,30.6,31.2
		c27.7,14.3,59.3,9.9,81.6-11.3c28.6-27.1,30-71.2,3.2-99.6c-9.7-10.3-20.1-16.7-33.2-20.4C267.7,86,253.3,85.1,246.2,86.2
		L246.2,86.2z M168.8,285.4c-55,7.3-97.5,46.1-109.1,99.6c-2.5,11.7-3.2,28.8-1.4,35.8c4.4,16.9,16.6,29.3,33.3,33.6
		c7.7,2,322.2,2,330,0c16.7-4.4,28.8-16.6,33.2-33.6c1.1-4.3,1.3-8,0.9-16.7c-2.5-52.1-37.5-97.4-87.4-113.4
		c-17.2-5.5-12.3-5.3-108.5-5.4C211.1,285.1,170.3,285.2,168.8,285.4L168.8,285.4z M173.2,313.9c6.5-0.8,162.6-0.5,168.7,0.3
		c33.5,4.3,61.7,24.9,76.1,55.4c4.8,10.1,7.3,19.5,8.6,32c0.8,7.3,0.8,10.3-0.1,13.1c-1.4,4.7-5,8.9-9.4,10.9
		c-3.4,1.6-10.2,1.6-160.7,1.6s-157.3-0.1-160.7-1.6c-4.4-2-8-6.2-9.4-10.9c-0.8-2.8-0.8-5.8-0.1-13.1c2.5-23.4,11-41.8,27.1-58.6
		C129.1,326.6,149.5,316.7,173.2,313.9"/>
</g>
</svg>
