<svg width="512" height="512" viewBox="0 0 512 512" fill="none" xmlns="http://www.w3.org/2000/svg">
    <path
        d="M504.661 46.7259C509.356 42.0362 511.996 35.6733 512 29.0371C512.004 22.4008 509.372 16.0348 504.682 11.3394C499.992 6.64408 493.629 4.004 486.993 4C480.357 3.996 473.991 6.62841 469.295 11.3181L294.518 186.224C292.196 188.542 290.354 191.295 289.097 194.325C287.84 197.356 287.193 200.604 287.193 203.885C287.193 207.166 287.84 210.415 289.097 213.445C290.354 216.476 292.196 219.229 294.518 221.546L469.338 396.324C474.016 401.008 480.364 403.642 486.984 403.646C493.604 403.65 499.955 401.024 504.639 396.346C509.323 391.667 511.957 385.32 511.961 378.7C511.965 372.079 509.339 365.729 504.661 361.045L347.501 203.885L504.661 46.7259ZM7.28798 151.755C2.60959 147.059 -0.0119595 140.698 4.10196e-05 134.07C0.0120415 127.441 2.65661 121.089 7.35197 116.411C12.0473 111.733 18.4089 109.111 25.0371 109.123C31.6654 109.135 38.0174 111.78 42.6958 116.475L217.516 291.253C227.243 301.022 227.243 316.849 217.516 326.575L42.6958 501.396C37.9487 505.76 31.6987 508.122 25.2516 507.987C18.8044 507.851 12.6589 505.23 8.0991 500.67C3.53927 496.11 0.917892 489.965 0.782638 483.518C0.647384 477.07 3.00872 470.82 7.3733 466.073L164.533 308.914L7.3733 151.797L7.28798 151.755Z"
        fill="black" />
</svg>