<?xml version="1.0" encoding="utf-8"?>
<!-- Generator: Adobe Illustrator 25.4.0, SVG Export Plug-In . SVG Version: 6.00 Build 0)  -->
<svg version="1.1" id="Layer_1" xmlns="http://www.w3.org/2000/svg" xmlns:xlink="http://www.w3.org/1999/xlink" x="0px" y="0px"
	 viewBox="0 0 513 513" style="enable-background:new 0 0 513 513;" xml:space="preserve">
<g>
	<path d="M135,58.1c-13.9,3.9-23.4,14.2-27.9,30c-1.4,4.8-1.4,12.5-1.4,168.8c0,156.2,0.1,163.9,1.4,168.8
		c4.5,16,14.7,26.6,28.4,29.5c9,1.9,19.1,0.4,32-4.8c7.5-3.1,14.5-7.8,113.4-77.3c112.7-79.2,113.6-79.9,120-90.8
		c4.9-8.4,6.4-14.4,6.4-25.3c0-8.2-0.3-10.1-2.1-15.1c-3.7-10-8.9-17.4-17.2-24.1c-7.8-6.3-212.4-149.9-218.5-153.4
		c-3.1-1.8-8-4-10.9-5C151.7,57,140.9,56.4,135,58.1L135,58.1z M139.2,83.8c2.9-1.6,9.2-1.1,14.1,1.1
		c3.1,1.4,209.4,145.9,216.8,151.9c4.1,3.3,8.2,8.9,9.5,12.9c1.5,4.6,1.1,10.8-0.9,15.1c-1,2.1-3.9,5.9-6.5,8.4
		c-5.1,5-210.1,149.9-218.9,154.6c-4.3,2.3-5.3,2.6-9.8,2.3c-4.5-0.3-5.2-0.6-7.6-3.1c-1.5-1.6-3.2-4.8-4-7.4
		c-1.3-4.3-1.4-12.7-1.4-163.9V96.2l1.8-4.4C134.3,87.2,135.5,85.8,139.2,83.8"/>
</g>
</svg>
