<svg width="388" height="512" viewBox="0 0 388 512" fill="none" xmlns="http://www.w3.org/2000/svg">
    <path
        d="M38.112 1.51697C20.315 6.51297 8.048 19.706 2.331 40C0.583001 46.206 0.5 55.993 0.5 256.5C0.5 456.854 0.584003 466.799 2.327 473C8.111 493.57 21.221 507.188 38.799 510.885C50.406 513.327 63.337 511.371 79.807 504.685C89.483 500.756 98.397 494.68 225.307 405.507C369.841 303.951 371.087 303.008 379.282 288.976C385.541 278.259 387.507 270.448 387.456 256.5C387.418 246.029 387.069 243.558 384.717 237.106C380.028 224.245 373.267 214.786 362.648 206.23C352.645 198.171 90.156 13.897 82.3 9.41797C78.34 7.16097 72.04 4.29097 68.3 3.04097C59.506 0.101972 45.646 -0.598028 38.112 1.51697V1.51697ZM43.502 34.515C47.195 32.516 55.31 33.159 61.623 35.951C65.596 37.709 330.302 223.158 339.758 230.809C345.014 235.062 350.327 242.248 351.968 247.326C353.874 253.221 353.4 261.171 350.814 266.672C349.57 269.319 345.826 274.189 342.495 277.493C335.991 283.945 72.912 469.768 61.68 475.843C56.125 478.849 54.855 479.146 49.122 478.788C43.295 478.423 42.458 478.076 39.419 474.761C37.505 472.672 35.332 468.665 34.297 465.316C32.592 459.799 32.5 448.982 32.5 255V50.5L34.771 44.886C37.184 38.92 38.706 37.112 43.502 34.515"
        fill="black" />
</svg>