<svg width="512" height="512" viewBox="0 0 512 512" fill="none" xmlns="http://www.w3.org/2000/svg">
    <path
        d="M229.825 0.638976C171.225 6.65502 116.389 32.8461 74.5702 74.7901C35.0297 114.448 11.308 161.9 1.87584 220.203C-0.472457 234.721 -0.472457 277.391 1.87584 291.909C11.308 350.212 35.0297 397.664 74.5702 437.322C114.11 476.98 161.42 500.773 219.549 510.233C234.024 512.589 276.567 512.589 291.041 510.233C349.17 500.773 396.481 476.98 436.02 437.322C475.427 397.798 500.086 348.515 508.513 292.435C509.326 287.029 509.993 280.49 509.996 277.905C509.999 275.32 510.452 272.927 511.001 272.586C511.603 272.213 512 265.21 512 254.936C512 245.569 511.616 238.142 511.148 238.433C510.68 238.723 510.014 235.03 509.67 230.226C509.325 225.423 508.134 216.554 507.024 210.518C497.417 158.311 473.268 112.148 436.02 74.7901C396.619 35.2695 348.411 10.984 291.566 2.0155C279.783 0.157091 242.595 -0.672432 229.825 0.638976ZM238.117 51.7859C253.672 50.5857 255.45 50.5817 270.278 51.7117C319.564 55.4706 364.677 76.2548 399.618 111.301C466.182 178.063 478.744 280.711 430.264 361.706C413.389 389.897 388.737 414.623 360.63 431.548C279.877 480.173 177.535 467.573 110.972 400.811C44.4089 334.049 31.8464 231.401 80.3266 150.406C97.2012 122.215 121.854 97.4888 149.96 80.5637C176.621 64.5102 208.627 54.062 238.117 51.7859ZM237.815 128.916C207.633 134.183 184.727 145.684 164.99 165.481C129.826 200.749 118.297 252.371 135.047 299.55C147.474 334.552 177.033 364.199 211.931 376.664C258.969 393.464 310.437 381.901 345.6 346.631C380.765 311.362 392.294 259.741 375.544 212.562C361.733 173.663 327.621 142.417 287.418 131.841C273.397 128.152 250.073 126.777 237.815 128.916ZM0 256.056C0 265.699 0.149828 269.644 0.333616 264.822C0.516406 260.001 0.516406 252.111 0.333616 247.29C0.149828 242.469 0 246.413 0 256.056Z"
        fill="black" />
</svg>