<svg width="512" height="512" viewBox="0 0 512 512" fill="none" xmlns="http://www.w3.org/2000/svg">
    <path
        d="M57.6069 183.503C24.7218 190.639 0 221.583 0 255.608C0 277.202 10.5848 299.721 26.7822 312.583C65.0551 342.975 119.589 330.48 140.627 286.498C152.535 261.6 148.641 231.098 130.699 208.748C121.215 196.934 104.421 186.644 89.4396 183.47C80.1263 181.498 66.7856 181.511 57.6069 183.503ZM239.88 183.503C206.995 190.639 182.273 221.583 182.273 255.608C182.273 277.202 192.858 299.721 209.055 312.583C247.328 342.975 301.862 330.48 322.9 286.498C334.808 261.6 330.914 231.098 312.972 208.748C303.488 196.934 286.694 186.644 271.712 183.47C262.399 181.498 249.059 181.511 239.88 183.503ZM422.153 183.503C389.268 190.639 364.546 221.583 364.546 255.608C364.546 277.202 375.131 299.721 391.328 312.583C429.601 342.975 484.135 330.48 505.172 286.498C517.081 261.6 513.187 231.098 495.245 208.748C485.76 196.934 468.966 186.644 453.985 183.47C444.672 181.498 431.331 181.511 422.153 183.503V183.503ZM61.9185 209.588V209.588C94.0929 200.935 125.762 229.331 120.665 262.26C117.42 283.228 101.359 299.289 80.391 302.534C55.1961 306.434 31.224 288.671 26.7963 262.821C22.8123 239.567 38.4238 215.905 61.9185 209.588ZM244.191 209.588C276.366 200.935 308.035 229.331 302.938 262.26C299.692 283.228 283.632 299.289 262.664 302.534C237.469 306.434 213.497 288.671 209.069 262.821C205.085 239.567 220.697 215.905 244.191 209.588ZM426.464 209.588C458.639 200.935 490.308 229.331 485.21 262.26C481.965 283.228 465.905 299.289 444.937 302.534C419.742 306.434 395.77 288.671 391.342 262.821C387.358 239.567 402.97 215.905 426.464 209.588Z"
        fill="black" />
</svg>