<svg width="512" height="512" viewBox="0 0 512 512" fill="none" xmlns="http://www.w3.org/2000/svg">
    <path
        d="M374.688 496.882C370.644 496.914 366.628 496.219 362.854 494.83C358.742 493.314 355.006 491.009 351.885 488.059L150.241 314.253L105.945 345.979L62.3649 377.203C60.7035 378.394 58.8792 379.339 56.9545 380.02C54.2788 380.971 51.408 381.41 48.5101 381.289C43.5402 381.082 38.8037 379.238 35.1215 376.078L6.96252 351.894C4.76919 350.007 3.01706 347.707 1.81813 345.143C0.619192 342.579 0 339.807 0 337.003C0 334.2 0.619192 331.429 1.81813 328.864C3.01706 326.3 4.76919 324.001 6.96252 322.112L83.1455 256.454L47.4711 225.66L6.98121 190.784C4.78609 188.898 3.03242 186.598 1.83233 184.035C0.632375 181.47 0.0125049 178.697 0.0125049 175.893C0.0125049 173.091 0.632375 170.318 1.83233 167.753C3.03242 165.189 4.78609 162.89 6.98121 161.002L35.1402 136.819C35.4208 136.578 35.7074 136.345 35.9999 136.119C39.5534 133.365 43.9632 131.765 48.5741 131.572C53.5441 131.364 58.4343 132.806 62.3974 135.646L150.241 198.632L351.86 24.8261C353.054 23.7105 354.338 22.6837 355.699 21.7548C360.351 18.5585 365.833 16.6121 371.561 16.1224C372.851 16.0122 374.142 15.9767 375.429 16.0148C379.923 16.1177 384.369 17.1176 388.464 18.9747L493.881 66.87C499.307 69.339 503.884 73.2042 507.088 78.0212C509.637 81.8541 511.235 86.1656 511.781 90.6334C511.925 91.7844 511.999 92.9459 512 94.1124V95.3088C512 95.1257 511.997 94.9428 511.992 94.76V418.127C511.997 417.943 512 417.76 512 417.576V418.725C512 419.87 511.931 421.012 511.794 422.142C511.26 426.651 509.656 431.006 507.085 434.871C503.881 439.686 499.304 443.549 493.881 446.017L388.464 493.913C384.719 495.612 380.682 496.592 376.581 496.827C375.951 496.863 375.32 496.881 374.688 496.882ZM383.846 146.867L230.915 256.44L383.897 366.054L383.846 146.867Z"
        fill="black" />
</svg>