<svg width="512" height="512" viewBox="0 0 512 512" fill="none" xmlns="http://www.w3.org/2000/svg">
    <path
        d="M231.873 0.673479C183.396 5.6832 139.53 22.8198 100.588 51.9631C95.3206 55.9056 83.8047 66.3515 74.9973 75.1766C52.0425 98.1809 39.8134 115.197 26.0537 143.282C13.8206 168.25 6.66254 190.984 2.40866 218.368C-0.708313 238.44 -0.708313 273.382 2.40866 293.454C6.66254 320.838 13.8206 343.572 26.0537 368.54C39.8134 396.625 52.0425 413.641 74.9973 436.646C97.953 459.649 114.934 471.904 142.959 485.693C160.872 494.506 172.54 498.905 190.72 503.697C224.816 512.687 264.609 514.476 299.308 508.579C371.169 496.368 435.814 451.983 474.307 388.428C492.29 358.737 504.39 324.472 508.554 291.452C509.457 284.294 510.663 275.509 511.234 271.929C513.708 256.426 509.974 220.23 503.12 193.275C498.183 173.857 493.751 161.864 484.647 143.282C470.887 115.197 458.658 98.1809 435.703 75.1766C412.748 52.1733 395.767 39.9183 367.741 26.1296C342.883 13.8986 319.635 6.54819 293.123 2.53761C277.734 0.209949 245.775 -0.763163 231.873 0.673479ZM271.847 160.79V160.79C313.636 120.243 334.256 100.889 335.27 101.262C336.096 101.567 351.945 107.951 370.489 115.45L404.206 129.082L404.394 251.064C404.497 318.153 404.609 374.284 404.644 375.798C404.705 378.487 403.911 378.875 370.738 392.368C352.057 399.968 336.059 406.275 335.188 406.384C334.29 406.497 307.008 380.736 272.051 346.765C238.197 313.864 210.217 286.947 209.874 286.947C209.531 286.947 192.665 299.561 172.396 314.979C152.125 330.396 135.079 343.011 134.514 343.011C133.949 343.011 127.414 339.977 119.991 336.27L106.495 329.529V272.357C106.495 240.913 106.2 207.041 105.84 197.089L105.186 178.991L119.314 171.899C127.085 167.999 133.836 164.807 134.318 164.807C134.8 164.807 151.777 177.417 172.045 192.83C192.313 208.244 209.127 220.858 209.411 220.862C209.695 220.867 237.79 193.834 271.847 160.79ZM290.816 227.419C272.134 241.421 256.849 253.281 256.849 253.774C256.849 254.834 324.9 305.968 326.312 305.968C326.925 305.968 327.281 286.862 327.281 253.909C327.281 212.9 327.016 201.861 326.032 201.904C325.345 201.934 309.498 213.416 290.816 227.419V227.419ZM141.461 253.826C141.461 270.94 141.798 284.944 142.212 284.944C142.626 284.944 150.708 277.992 160.173 269.497L177.381 254.048L160.407 238.712C151.072 230.276 142.989 223.224 142.447 223.041C141.812 222.825 141.461 233.789 141.461 253.826ZM0 255.911C0 264.446 0.153851 267.937 0.34067 263.67C0.528487 259.403 0.528487 252.419 0.34067 248.152C0.153851 243.885 0 247.376 0 255.911"
        fill="black" />
</svg>