<?xml version="1.0" encoding="utf-8"?>
<!-- Generator: Adobe Illustrator 25.4.0, SVG Export Plug-In . SVG Version: 6.00 Build 0)  -->
<svg version="1.1" id="Layer_1" xmlns="http://www.w3.org/2000/svg" xmlns:xlink="http://www.w3.org/1999/xlink" x="0px" y="0px"
	 viewBox="0 0 513 513" style="enable-background:new 0 0 513 513;" xml:space="preserve">
<g>
	<path d="M348.9,443.8c-3.1,0-6.3-0.5-9.2-1.6c-3.2-1.2-6.1-3-8.5-5.3l-157-135.4l-34.5,24.7l-33.9,24.3c-1.3,0.9-2.7,1.7-4.2,2.2
		c-2.1,0.7-4.3,1.1-6.6,1c-3.9-0.2-7.6-1.6-10.4-4.1l-21.9-18.8c-1.7-1.5-3.1-3.3-4-5.3c-0.9-2-1.4-4.2-1.4-6.3
		c0-2.2,0.5-4.3,1.4-6.3c0.9-2,2.3-3.8,4-5.3l59.3-51.1l-27.8-24l-31.5-27.2c-1.7-1.5-3.1-3.3-4-5.3c-0.9-2-1.4-4.2-1.4-6.3
		c0-2.2,0.5-4.3,1.4-6.3c0.9-2,2.3-3.8,4-5.3l21.9-18.8c0.2-0.2,0.4-0.4,0.7-0.5c2.8-2.1,6.2-3.4,9.8-3.5c3.9-0.2,7.7,1,10.8,3.2
		l68.4,49.1l157-135.4c0.9-0.9,1.9-1.7,3-2.4c3.6-2.5,7.9-4,12.4-4.4c1-0.1,2-0.1,3-0.1c3.5,0.1,7,0.9,10.2,2.3l82.1,37.3
		c4.2,1.9,7.8,4.9,10.3,8.7c2,3,3.2,6.3,3.7,9.8c0.1,0.9,0.2,1.8,0.2,2.7v0.9c0-0.1,0-0.3,0-0.4v251.9c0-0.1,0-0.3,0-0.4v0.9
		c0,0.9-0.1,1.8-0.2,2.7c-0.4,3.5-1.7,6.9-3.7,9.9c-2.5,3.8-6.1,6.8-10.3,8.7l-82.1,37.3c-2.9,1.3-6.1,2.1-9.3,2.3
		C349.9,443.8,349.4,443.8,348.9,443.8z M356.1,171.2L237,256.5l119.1,85.4L356.1,171.2z"/>
</g>
</svg>
