<svg width="512" height="512" viewBox="0 0 512 512" fill="none" xmlns="http://www.w3.org/2000/svg">
    <path
        d="M237.679 160.843C226.927 162.902 209.485 170.022 199.803 176.302C173.292 193.501 153.621 224.193 148.404 256.504L147.147 264.291H78.6273C4.76519 264.291 5.95849 264.191 1.71794 270.722C-0.572645 274.247 -0.572645 281.453 1.71794 284.979C5.95849 291.51 4.76633 291.41 78.6147 291.41H147.123L148.57 299.73C155.812 341.375 183.425 375.971 220.234 389.52C235.334 395.079 245.758 396.651 261.682 395.772C281.435 394.682 297.397 389.304 313.999 378.145C339.397 361.073 357.772 331.885 363.364 299.73L364.811 291.41H433.319C507.167 291.41 505.975 291.51 510.216 284.979C511.198 283.469 512 280.26 512 277.85C512 275.44 511.198 272.232 510.216 270.722C505.975 264.191 507.167 264.291 433.319 264.291H364.811L363.364 255.97C355.441 210.417 324.375 174.893 281.684 162.575C273.401 160.185 246.618 159.131 237.679 160.843V160.843ZM247.944 186.741C259.142 185.719 265.961 186.289 276.971 189.169C306.698 196.942 330.549 222.586 338.279 255.081C346.408 289.254 334.624 327.658 309.386 349.244C266.943 385.548 203.852 370.854 180.143 319.146C153.492 261.018 188.764 192.139 247.944 186.741"
        fill="black" />
</svg>