<?xml version="1.0" encoding="utf-8"?>
<!-- Generator: Adobe Illustrator 25.4.0, SVG Export Plug-In . SVG Version: 6.00 Build 0)  -->
<svg version="1.1" id="Layer_1" xmlns="http://www.w3.org/2000/svg" xmlns:xlink="http://www.w3.org/1999/xlink" x="0px" y="0px"
	 viewBox="0 0 513 513" style="enable-background:new 0 0 513 513;" xml:space="preserve">
<g>
	<path d="M242.2,165.3c-8.4,1.6-22,7.1-29.5,12c-20.6,13.4-36,37.3-40,62.5l-1,6.1h-53.4c-57.5,0-56.6-0.1-59.9,5
		c-1.8,2.7-1.8,8.4,0,11.1c3.3,5.1,2.4,5,59.9,5h53.4l1.1,6.5c5.6,32.4,27.1,59.4,55.8,69.9c11.8,4.3,19.9,5.6,32.3,4.9
		c15.4-0.8,27.8-5,40.7-13.7c19.8-13.3,34.1-36,38.4-61.1l1.1-6.5h53.4c57.5,0,56.6,0.1,59.9-5c0.8-1.2,1.4-3.7,1.4-5.6
		c0-1.9-0.6-4.4-1.4-5.6c-3.3-5.1-2.4-5-59.9-5h-53.4l-1.1-6.5c-6.2-35.5-30.4-63.1-63.6-72.7C270.1,164.7,249.2,163.9,242.2,165.3
		L242.2,165.3z M250.2,185.4c8.7-0.8,14-0.4,22.6,1.9c23.2,6.1,41.7,26,47.7,51.3c6.3,26.6-2.8,56.5-22.5,73.3
		c-33.1,28.3-82.2,16.8-100.7-23.4C176.7,243.3,204.1,189.6,250.2,185.4"/>
</g>
</svg>
