<svg width="512" height="512" viewBox="0 0 512 512" xmlns="http://www.w3.org/2000/svg">
    <path
        d="M493.727 274.014C498.575 274.01 503.223 272.082 506.649 268.653C510.075 265.224 512 260.575 512 255.727C512 250.88 510.075 246.231 506.649 242.802C503.223 239.373 498.575 237.444 493.727 237.441L18.2727 237.441C13.4252 237.444 8.77745 239.373 5.35106 242.802C1.92468 246.231 -2.66725e-05 250.88 -2.68844e-05 255.727C-2.70963e-05 260.575 1.92468 265.224 5.35106 268.653C8.77745 272.082 13.4251 274.01 18.2727 274.014L493.727 274.014ZM73.1328 200.867L109.706 200.867L109.706 91.1469C109.706 81.447 113.56 72.1444 120.418 65.2855C127.277 58.4267 136.58 54.5734 146.28 54.5734L365.72 54.5734C375.42 54.5734 384.723 58.4267 391.582 65.2855C398.44 72.1444 402.294 81.447 402.294 91.1469L402.294 200.867L438.867 200.867L438.867 91.1469C438.867 71.7471 431.161 53.1419 417.443 39.4242C403.725 25.7065 385.12 18 365.72 18L146.28 18C126.88 18 108.275 25.7065 94.557 39.4242C80.8393 53.1419 73.1328 71.7471 73.1328 91.1469L73.1328 200.867ZM73.1328 420.308L73.1328 310.587L109.706 310.587L109.706 420.308C109.706 430.008 113.559 439.31 120.418 446.169C127.277 453.028 136.58 456.881 146.28 456.881L365.72 456.881C375.42 456.881 384.723 453.028 391.582 446.169C398.44 439.31 402.294 430.008 402.294 420.308L402.294 310.587L438.867 310.587L438.867 420.308C438.867 439.708 431.161 458.313 417.443 472.03C403.725 485.748 385.12 493.455 365.72 493.455L146.28 493.455C126.88 493.455 108.275 485.748 94.557 472.03C80.8393 458.313 73.1328 439.708 73.1328 420.308Z"
        fill="black" />
</svg>