<?xml version="1.0" encoding="utf-8"?>
<!-- Generator: Adobe Illustrator 25.4.0, SVG Export Plug-In . SVG Version: 6.00 Build 0)  -->
<svg version="1.1" id="Layer_1" xmlns="http://www.w3.org/2000/svg" xmlns:xlink="http://www.w3.org/1999/xlink" x="0px" y="0px"
	 viewBox="0 0 513 513" style="enable-background:new 0 0 513 513;" xml:space="preserve">
<g>
	<path d="M270.7,71.3c0-3.8-1.5-7.4-4.2-10.1c-2.7-2.7-6.3-4.2-10.1-4.2c-3.8,0-7.4,1.5-10.1,4.2c-2.7,2.7-4.2,6.3-4.2,10.1v370.3
		c0,3.8,1.5,7.4,4.2,10.1c2.7,2.7,6.3,4.2,10.1,4.2c3.8,0,7.4-1.5,10.1-4.2c2.7-2.7,4.2-6.3,4.2-10.1V71.3z M213.8,398.9v-28.5
		h-85.5c-7.6,0-14.8-3-20.1-8.3c-5.3-5.3-8.3-12.6-8.3-20.1V171c0-7.6,3-14.8,8.3-20.1c5.3-5.3,12.6-8.3,20.1-8.3h85.5v-28.5h-85.5
		c-15.1,0-29.6,6-40.3,16.7c-10.7,10.7-16.7,25.2-16.7,40.3V342c0,15.1,6,29.6,16.7,40.3c10.7,10.7,25.2,16.7,40.3,16.7H213.8z
		 M384.7,398.9h-85.5v-28.5h85.5c7.6,0,14.8-3,20.1-8.3c5.3-5.3,8.3-12.6,8.3-20.1V171c0-7.6-3-14.8-8.3-20.1
		c-5.3-5.3-12.6-8.3-20.1-8.3h-85.5v-28.5h85.5c15.1,0,29.6,6,40.3,16.7c10.7,10.7,16.7,25.2,16.7,40.3V342c0,15.1-6,29.6-16.7,40.3
		C414.3,392.9,399.8,398.9,384.7,398.9z"/>
</g>
</svg>
