<svg width="512" height="512" viewBox="0 0 512 512" xmlns="http://www.w3.org/2000/svg">
    <path
        d="M274.014 18.2727C274.01 13.4252 272.082 8.77747 268.653 5.35109C265.224 1.9247 260.575 0 255.727 0C250.88 0 246.231 1.9247 242.802 5.35109C239.373 8.77747 237.444 13.4252 237.441 18.2727V493.727C237.444 498.575 239.373 503.223 242.802 506.649C246.231 510.075 250.88 512 255.727 512C260.575 512 265.224 510.075 268.653 506.649C272.082 503.223 274.01 498.575 274.014 493.727V18.2727ZM200.867 438.867V402.294H91.1469C81.447 402.294 72.1444 398.44 65.2855 391.582C58.4267 384.723 54.5734 375.42 54.5734 365.72V146.28C54.5734 136.58 58.4267 127.277 65.2855 120.418C72.1444 113.56 81.447 109.706 91.1469 109.706H200.867V73.1328H91.1469C71.7471 73.1328 53.1419 80.8393 39.4242 94.557C25.7065 108.275 18 126.88 18 146.28V365.72C18 385.12 25.7065 403.725 39.4242 417.443C53.1419 431.161 71.7471 438.867 91.1469 438.867H200.867ZM420.308 438.867H310.587V402.294H420.308C430.008 402.294 439.31 398.44 446.169 391.582C453.028 384.723 456.881 375.42 456.881 365.72V146.28C456.881 136.58 453.028 127.277 446.169 120.418C439.31 113.56 430.008 109.706 420.308 109.706H310.587V73.1328H420.308C439.708 73.1328 458.313 80.8393 472.03 94.557C485.748 108.275 493.455 126.88 493.455 146.28V365.72C493.455 385.12 485.748 403.725 472.03 417.443C458.313 431.161 439.708 438.867 420.308 438.867Z"
        fill="black" />
</svg>