<?xml version="1.0" encoding="utf-8"?>
<!-- Generator: Adobe Illustrator 25.4.0, SVG Export Plug-In . SVG Version: 6.00 Build 0)  -->
<svg version="1.1" id="Layer_1" xmlns="http://www.w3.org/2000/svg" xmlns:xlink="http://www.w3.org/1999/xlink" x="0px" y="0px"
	 viewBox="0 0 513 513" style="enable-background:new 0 0 513 513;" xml:space="preserve">
<g>
	<path d="M441.7,270.7c3.8,0,7.4-1.5,10.1-4.2c2.7-2.7,4.2-6.3,4.2-10.1c0-3.8-1.5-7.4-4.2-10.1c-2.7-2.7-6.3-4.2-10.1-4.2H71.3
		c-3.8,0-7.4,1.5-10.1,4.2c-2.7,2.7-4.2,6.3-4.2,10.1c0,3.8,1.5,7.4,4.2,10.1c2.7,2.7,6.3,4.2,10.1,4.2H441.7z M114.1,213.8h28.5
		v-85.5c0-7.6,3-14.8,8.3-20.1c5.3-5.3,12.6-8.3,20.1-8.3H342c7.6,0,14.8,3,20.1,8.3c5.3,5.3,8.3,12.6,8.3,20.1v85.5h28.5v-85.5
		c0-15.1-6-29.6-16.7-40.3c-10.7-10.7-25.2-16.7-40.3-16.7H171c-15.1,0-29.6,6-40.3,16.7c-10.7,10.7-16.7,25.2-16.7,40.3V213.8z
		 M114.1,384.7v-85.5h28.5v85.5c0,7.6,3,14.8,8.3,20.1c5.3,5.3,12.6,8.3,20.1,8.3H342c7.6,0,14.8-3,20.1-8.3
		c5.3-5.3,8.3-12.6,8.3-20.1v-85.5h28.5v85.5c0,15.1-6,29.6-16.7,40.3c-10.7,10.7-25.2,16.7-40.3,16.7H171c-15.1,0-29.6-6-40.3-16.7
		C120.1,414.3,114.1,399.8,114.1,384.7z"/>
</g>
</svg>
