<?xml version="1.0" encoding="utf-8"?>
<!-- Generator: Adobe Illustrator 25.4.0, SVG Export Plug-In . SVG Version: 6.00 Build 0)  -->
<svg version="1.1" id="Layer_1" xmlns="http://www.w3.org/2000/svg" xmlns:xlink="http://www.w3.org/1999/xlink" x="0px" y="0px"
	 viewBox="0 0 513 513" style="enable-background:new 0 0 513 513;" xml:space="preserve">
<g>
	<path d="M215.4,58c-6.8,2.2-11.5,5.7-15.4,11.6c-3.9,5.9-5.2,11.4-5.2,23.2v10h-54c-53.4,0-54,0-56.6,1.6c-3.3,2-5,5.1-5,9.1
		c0,4.1,3.8,8.6,8.2,9.5c4.2,0.9,333.8,0.9,338,0c4.4-1,8.2-5.5,8.2-9.5c0-4-1.7-7.1-5-9.1c-2.6-1.6-3.2-1.6-56.5-1.6h-53.9L318,91
		c-0.3-11.5-0.4-12.1-2.7-17.1c-3-6.4-7.8-11.3-14-14.3l-4.6-2.3l-39-0.1C227.1,57,217.9,57.2,215.4,58z M220.9,78.3
		c3.1-1.3,65.5-1.6,70.1-0.3c5.3,1.5,6.1,3.4,6.1,14.9v10h-81.2v-10C215.9,81.8,216.5,80.2,220.9,78.3z M121.7,170.2
		c3.7-1.6,265.5-1.6,269.3,0c3.5,1.5,5.2,4,5.2,8c0,7.1-21.9,233.9-23.1,238.6c-4.5,18.7-19.9,33.9-38.4,37.8
		c-8,1.7-144,1.7-152.1,0c-18.9-4-34.7-19.9-38.9-39.4c-0.8-3.9-27-233.2-27-236.7C116.8,174.3,118.3,171.7,121.7,170.2z
		 M138.6,191.5c0,0.8,5.8,50.8,12.8,111.3c8.9,76.5,13.2,110.9,14.2,113.3c4.3,10.9,12.6,17.2,24.7,18.7c4,0.5,31.6,0.7,72.8,0.5
		c59.6-0.2,66.7-0.4,70.2-1.6c8.2-2.8,15.5-9.8,18.5-17.7c1.3-3.6,3.3-22.2,12.1-113.4c5.8-60,10.5-109.9,10.5-110.8l0-1.8H256.5
		C143.6,190.1,138.6,190.2,138.6,191.5z"/>
</g>
</svg>
