<svg width="454" height="512" viewBox="0 0 454 512" fill="none" xmlns="http://www.w3.org/2000/svg">
<path d="M174.365 1.48002C165.667 4.27002 159.637 8.82602 154.601 16.414C149.546 24.03 148 31.007 148 46.21V59H78.868C10.42 59 9.702 59.021 6.344 61.097C2.17 63.676 0 67.674 0 72.784C0 78.041 4.899 83.76 10.5 85.039C15.832 86.256 438.168 86.256 443.5 85.039C449.101 83.76 454 78.041 454 72.784C454 67.674 451.83 63.676 447.656 61.097C444.298 59.021 443.578 59 375.222 59H306.179L305.84 43.75C305.512 29.029 305.39 28.268 302.326 21.799C298.432 13.58 292.281 7.25702 284.438 3.41102L278.5 0.500022L228.5 0.327022C189.323 0.191022 177.605 0.441022 174.365 1.48002ZM181.378 27.437V27.437C185.293 25.733 265.227 25.38 271.205 27.04C277.971 28.919 279 31.44 279 46.135V59H175V46.223C175 32.032 175.725 29.898 181.378 27.437ZM54.378 145.437C59.1 143.382 394.486 143.34 399.401 145.394C403.881 147.266 406 150.571 406 155.685C406 164.806 377.916 455.888 376.446 462C370.662 486.051 350.957 505.512 327.315 510.521C317.128 512.68 142.826 512.661 132.5 510.501C108.232 505.423 88.102 485.016 82.614 459.929C81.529 454.966 48 160.631 48 156.063C48 150.651 49.981 147.351 54.378 145.437ZM76 172.795C76 173.782 83.399 238.059 92.443 315.632C103.891 413.826 109.411 458.015 110.614 461.087C116.112 475.123 126.76 483.188 142.3 485.086C147.383 485.707 182.813 485.968 235.5 485.772C311.891 485.488 320.997 485.287 325.404 483.78C335.905 480.189 345.266 471.189 349.096 461C350.823 456.405 353.369 432.476 364.58 315.5C371.959 238.5 377.998 174.488 377.998 173.25L378 171H227C82.421 171 76 171.076 76 172.795Z" fill="black"/>
</svg>
