<svg width="360" height="382" viewBox="0 0 360 382" fill="none" xmlns="http://www.w3.org/2000/svg">
<path d="M172.108 1.08198C164.457 2.58398 155.292 7.57797 149.435 13.435C139.755 23.115 133.896 40.028 137.354 48.306C139.433 53.279 144.544 55.636 149.621 53.96C154.136 52.47 155.936 49.53 157.018 41.874C158.065 34.467 161.469 29.023 167.864 24.528C171.824 21.745 172.845 21.5 180.5 21.5C188.155 21.5 189.176 21.745 193.136 24.528C199.531 29.023 202.935 34.467 203.982 41.874C205.064 49.53 206.864 52.47 211.379 53.96C216.401 55.618 221.569 53.275 223.597 48.423C224.831 45.468 224.93 43.543 224.113 38.297C220.235 13.39 196.376 -3.68402 172.108 1.08198V1.08198ZM6.32902 61.458C-1.54398 64.882 -0.958987 77.076 7.21501 79.925C8.91101 80.516 17.395 81 26.07 81H41.841L42.455 87.25C42.793 90.688 46.875 142.55 51.527 202.5C56.406 265.396 60.662 314.672 61.589 319C66.935 343.978 84.569 365.291 108.053 375.157C123.079 381.471 123.439 381.502 180.5 381.477C231.2 381.455 232.698 381.399 240.41 379.227C260.411 373.595 275.756 362.725 286.41 346.642C292.837 336.94 296.212 329.155 298.393 319C299.328 314.645 303.551 265.799 308.464 202.5C313.118 142.55 317.203 90.688 317.542 87.25L318.159 81H333.93C342.605 81 351.089 80.516 352.785 79.925C358.361 77.981 360.972 70.554 358.02 65.036C355.201 59.77 363.279 59.997 179.782 60.039C37.295 60.072 8.98202 60.303 6.32902 61.458V61.458ZM62.994 84.25V84.25L63 81H297V84.433C297 94.024 279.914 306.637 278.591 313.5C274.318 335.678 256.563 354.356 234.897 359.463C229.657 360.698 219.729 360.97 180 360.97C125.786 360.97 124.156 360.81 111.603 354.233C96.368 346.252 84.888 330.928 81.463 314C80.175 307.638 62.976 93.683 62.994 84.25ZM134.766 141.918L131.5 144.836V281.164L134.766 284.082C137.044 286.117 139.081 287 141.5 287C143.919 287 145.956 286.117 148.234 284.082L151.5 281.164V144.836L148.234 141.918C145.956 139.883 143.919 139 141.5 139C139.081 139 137.044 139.883 134.766 141.918ZM210.766 141.918L207.5 144.836V281.164L210.766 284.082C213.044 286.117 215.081 287 217.5 287C219.919 287 221.956 286.117 224.234 284.082L227.5 281.164V144.836L224.234 141.918C221.956 139.883 219.919 139 217.5 139C215.081 139 213.044 139.883 210.766 141.918Z" fill="black"/>
</svg>
