<svg width="512" height="512" viewBox="0 0 512 512" fill="none" xmlns="http://www.w3.org/2000/svg">
<path d="M203.706 1.18699C194.991 3.97699 188.949 8.53299 183.904 16.121C178.839 23.737 177.29 30.714 177.29 45.917V58.707H108.022C39.4404 58.707 38.721 58.728 35.3564 60.804C31.1742 63.383 29 67.381 29 72.491C29 77.748 33.9086 83.467 39.5205 84.746C44.863 85.963 468.025 85.963 473.368 84.746C478.98 83.467 483.888 77.748 483.888 72.491C483.888 67.381 481.714 63.383 477.532 60.804C474.167 58.728 473.446 58.707 404.956 58.707H335.778L335.439 43.457C335.11 28.736 334.988 27.975 331.918 21.506C328.016 13.287 321.853 6.96399 313.995 3.11799L308.045 0.206992L257.947 0.0339923C218.693 -0.102008 206.953 0.147992 203.706 1.18699ZM210.733 27.144C214.656 25.44 294.746 25.087 300.736 26.747C307.515 28.626 308.546 31.147 308.546 45.842V58.707H204.342V45.93C204.342 31.739 205.069 29.605 210.733 27.144ZM83.4844 145.144C88.2157 143.089 424.258 143.047 429.183 145.101C433.671 146.973 435.795 150.278 435.795 155.392C435.795 164.513 407.656 455.595 406.183 461.707C400.387 485.758 380.644 505.219 356.956 510.228C346.749 512.387 172.106 512.368 161.759 510.208C137.444 505.13 117.274 484.723 111.776 459.636C110.689 454.673 77.0939 160.338 77.0939 155.77C77.0939 150.358 79.0788 147.058 83.4844 145.144ZM105.149 172.502C105.149 173.489 112.562 237.766 121.624 315.339C133.094 413.533 138.625 457.722 139.83 460.794C145.339 474.83 156.008 482.895 171.578 484.793C176.671 485.414 212.171 485.675 264.961 485.479C341.501 485.195 350.625 484.994 355.041 483.487C365.562 479.896 374.942 470.896 378.779 460.707C380.51 456.112 383.061 432.183 394.293 315.207C401.687 238.207 407.738 174.195 407.738 172.957L407.74 170.707H256.444C111.582 170.707 105.149 170.783 105.149 172.502Z" fill="black"/>
</svg>
