<svg width="512" height="512" viewBox="0 0 512 512" fill="none" xmlns="http://www.w3.org/2000/svg">
    <path
        d="M202.761 1.18737C194.044 3.97825 188 8.5357 182.953 16.1261C177.887 23.7445 176.337 30.7237 176.337 45.9316V58.7256H107.047C38.4437 58.7256 37.7241 58.7466 34.3584 60.8233C30.1749 63.4031 28 67.4024 28 72.514C28 77.7727 32.9102 83.4935 38.5238 84.7729C43.868 85.9903 467.164 85.9903 472.509 84.7729C478.123 83.4935 483.032 77.7727 483.032 72.514C483.032 67.4024 480.858 63.4031 476.674 60.8233C473.308 58.7466 472.587 58.7256 404.075 58.7256H334.875L334.536 43.4708C334.207 28.7451 334.085 27.9839 331.014 21.5128C327.111 13.2912 320.946 6.9662 313.085 3.11898L307.134 0.207058L257.02 0.0340032C217.753 -0.10204 206.009 0.148039 202.761 1.18737ZM209.791 27.1526C213.715 25.4481 293.83 25.095 299.822 26.7555C306.603 28.6351 307.635 31.1569 307.635 45.8565V58.7256H203.398V45.9446C203.398 31.7491 204.125 29.6144 209.791 27.1526ZM82.5017 145.19C87.2345 143.134 423.383 143.092 428.31 145.147C432.799 147.02 434.924 150.326 434.924 155.441C434.924 164.565 406.776 455.74 405.303 461.853C399.505 485.912 379.756 505.379 356.06 510.39C345.85 512.55 171.151 512.531 160.801 510.37C136.478 505.29 116.302 484.877 110.802 459.782C109.715 454.817 76.1092 160.389 76.1092 155.819C76.1092 150.406 78.0947 147.105 82.5017 145.19ZM104.173 172.557C104.173 173.544 111.589 237.841 120.653 315.439C132.127 413.664 137.66 457.867 138.865 460.94C144.376 474.981 155.048 483.048 170.623 484.947C175.718 485.568 211.229 485.829 264.036 485.633C340.6 485.349 349.727 485.148 354.144 483.64C364.669 480.048 374.052 471.045 377.89 460.853C379.621 456.257 382.173 432.32 393.409 315.307C400.805 238.283 406.858 174.25 406.858 173.012L406.86 170.761H255.516C110.608 170.761 104.173 170.837 104.173 172.557Z"
        fill="black" />
</svg>